<?xml version="1.0" encoding="UTF-8" standalone="no"?>
<svg
   xmlns:rdf="http://www.w3.org/1999/02/22-rdf-syntax-ns#"
   xmlns:svg="http://www.w3.org/2000/svg"
   xmlns="http://www.w3.org/2000/svg"
   version="1.1"
   width="618.67902"
   height="265.5"
   id="svg21443">
  <defs
     id="defs21445" />
  <g
     transform="translate(341,-391.86218)"
     id="layer1">
    <g
       transform="translate(-354.28236,-204.02953)"
       id="g25049">
      <g
         id="g25006">
        <path
           d="m 370.24746,660.93738 c 10.17909,13.89258 7.68151,33.93448 -6.0395,44.12129 -13.51968,10.04926 -32.72027,7.69473 -42.89936,-6.20594 -10.17908,-13.89259 -7.48018,-33.65129 6.03322,-44.1213 13.51968,-10.47001 32.72657,-7.69472 42.90564,6.20595"
           id="path8906"
           style="fill:#ffffff;fill-opacity:1;fill-rule:nonzero;stroke:none" />
        <path
           d="m 318.66632,686.19 c 0,0 -6.24711,-9.12686 2.24594,-31.91167 10.66979,-28.5862 -13.2177,-26.3854 -13.2177,-26.3854 0,0 17.19371,-5.43728 33.95963,5.53438 16.16826,10.5752 24.90666,19.47551 24.90666,19.47551 L 318.66632,686.19"
           id="path8898-5"
           style="fill:#104221;fill-opacity:1;fill-rule:nonzero;stroke:none" />
        <path
           d="m 318.66632,686.19 c 0,0 -6.24711,-9.12686 2.24594,-31.91167 10.66979,-28.5862 -13.2177,-26.3854 -13.2177,-26.3854 0,0 17.19371,-5.43728 33.95963,5.53438 16.16826,10.5752 24.90666,19.47551 24.90666,19.47551 L 318.66632,686.19 z"
           id="path8900"
           style="fill:none;stroke:#ffffff;stroke-width:1.58940732;stroke-linecap:butt;stroke-linejoin:miter;stroke-miterlimit:4;stroke-opacity:1;stroke-dasharray:none" />
        <path
           d="m 323.91314,667.24042 c 0,0 1.61682,-11.03639 23.07594,-21.45785 26.91984,-13.07538 3.51046,-29.09594 3.51046,-29.09594 0,0 20.74822,8.93268 25.48546,28.78039 4.57367,19.13567 4.9071,31.77412 4.9071,31.77412 l -56.97896,-10.00072"
           id="path8902"
           style="fill:#104221;fill-opacity:1;fill-rule:nonzero;stroke:none" />
        <path
           d="m 337.11827,721.40288 c 0,0 34.68941,-8.95695 55.20485,26.0132 0,0 -11.70784,-12.09634 -25.03878,-7.2578 -13.33095,4.84662 -29.0022,14.66124 -39.47697,-9.51525 l 9.3109,-9.24015"
           id="path8976-9"
           style="fill:#104221;fill-opacity:1;fill-rule:nonzero;stroke:none" />
        <path
           d="m 326.15909,730.18183 c 0,0 -13.872,-29.11212 -48.41671,-23.4321 0,0 14.57031,1.22987 18.9867,13.21293 4.4101,11.98305 6.67491,26.70094 28.46117,20.20371 l 0.96884,-9.98454"
           id="path8978-7"
           style="fill:#104221;fill-opacity:1;fill-rule:nonzero;stroke:none" />
        <path
           d="m 384.59129,742.48045 c 0,0 -15.30008,-18.71494 -36.37543,-13.46375 0,0 21.28296,-1.12468 36.37543,13.46375"
           id="path8984-7"
           style="fill:#ffffff;fill-opacity:1;fill-rule:nonzero;stroke:none" />
        <path
           d="m 284.06499,708.92626 c 0,0 21.7548,0.5502 30.1472,19.04667 0,0 -11.3807,-16.29566 -30.1472,-19.04667"
           id="path8986-0"
           style="fill:#ffffff;fill-opacity:1;fill-rule:nonzero;stroke:none" />
        <path
           d="m 343.18922,711.62872 c 0,0 -37.93563,4.90326 -46.2777,-35.17243 -2.17044,-10.42146 1.30856,-25.1879 1.30856,-25.1879 0,0 7.76328,-16.02056 -14.97923,-15.78591 0,0 22.64185,-1.92571 30.04653,8.66566 7.41098,10.59138 8.35465,15.55938 8.75099,23.3512 0.39635,7.79991 21.15085,44.12938 21.15085,44.12938"
           id="path8966-2"
           style="fill:#104221;fill-opacity:1;fill-rule:nonzero;stroke:none" />
        <path
           d="m 370.24746,660.93738 c 10.17909,13.89258 7.68151,33.93447 -6.0395,44.12129 -13.51968,10.04926 -32.72027,7.69473 -42.89935,-6.20594 -10.17909,-13.89259 -7.48019,-33.65129 6.03321,-44.1213 13.51968,-10.47001 32.72657,-7.69472 42.90564,6.20595"
           id="path8906-1"
           style="fill:#ffffff;fill-opacity:1;fill-rule:nonzero;stroke:none" />
        <path
           d="m 343.18922,711.62872 c 0,0 -37.93563,4.90326 -46.2777,-35.17243 -2.17044,-10.42146 1.30856,-25.1879 1.30856,-25.1879 0,0 7.76328,-16.02056 -14.97923,-15.78591 0,0 22.64185,-1.92571 30.04653,8.66566 7.41098,10.59138 8.35465,15.55938 8.75099,23.3512 0.39635,7.79991 21.15085,44.12938 21.15085,44.12938 z"
           id="path8968"
           style="fill:none;stroke:#ffffff;stroke-width:1.58940732;stroke-linecap:butt;stroke-linejoin:miter;stroke-miterlimit:4;stroke-opacity:1;stroke-dasharray:none" />
        <path
           d="m 359.33232,714.0399 c 0.40263,-2.662 0.0126,-5.63147 0.1384,-8.34203 0.19503,-4.1346 -0.44667,-5.6072 -4.06408,-7.26589 -3.31544,-1.52115 -3.64887,-4.73335 -4.13957,-7.67854 -0.27681,-1.64251 1.23306,-1.48878 1.44696,-2.6701 0.20132,-1.07613 -0.66686,-2.37072 -1.11353,-3.32548 -0.91222,-1.99043 2.15157,-3.96469 4.17732,-4.78189 -0.44667,2.86428 2.25223,-0.43693 3.20849,-0.6554 1.17015,-0.267 2.66744,1.3917 3.99488,0.42075 0.7109,2.87237 5.51734,-0.38028 5.93885,2.70246 0.0818,0.60684 0.10065,2.69437 0.30826,2.77528 0.74235,0.29938 4.1962,-2.12799 5.20278,-2.39499 -1.33372,1.09231 -3.08266,1.33504 -4.42267,2.37072 -1.05692,0.82529 -0.30198,1.56159 -0.18245,1.10849 0.19502,-0.80103 1.4281,-1.22177 2.13899,-1.41596 5.15875,-1.45641 3.96343,3.73814 3.39093,6.95843 -0.16357,0.90621 0.5033,7.08788 -1.84959,6.29495 -2.79328,-0.93858 -1.97542,3.3983 -2.17674,4.29643 -0.2831,1.2865 -1.3589,1.9176 -2.05092,3.08274 -0.38376,0.6392 -0.33972,1.52924 -0.86189,2.1118 -0.60394,0.66347 -1.50358,0.5502 -2.0572,1.0114 -0.20761,0.17801 -0.83673,0.41265 -1.01917,0.5502 -0.15728,0.12137 0.35859,0.78485 -0.0881,1.13277 -0.60394,0.46119 -1.90622,0.42883 -2.30256,0.76866 -0.87446,0.76867 -0.44038,2.21699 -1.74265,2.85619 0.2139,0.12137 0.44667,0.25892 0.67315,0.38838"
           id="path8954-5"
           style="fill:#104221;fill-opacity:1;fill-rule:nonzero;stroke:none" />
        <path
           d="m 336.16201,710.64159 c 0,0 33.68282,18.60975 55.48166,-15.7131 5.66833,-8.91649 7.58084,-23.97421 7.58084,-23.97421 0,0 -1.64199,-17.82491 19.49628,-9.19969 0,0 -20.45883,-10.16255 -31.072,-3.02611 -10.61317,7.14452 -13.23029,11.43286 -16.33183,18.5612 -3.08895,7.12026 -35.15495,33.35191 -35.15495,33.35191"
           id="path8970-7"
           style="fill:#104221;fill-opacity:1;fill-rule:nonzero;stroke:none" />
        <path
           d="m 336.16201,710.64159 c 0,0 33.68282,18.60975 55.48166,-15.7131 5.66833,-8.91649 7.58084,-23.97421 7.58084,-23.97421 0,0 -1.64199,-17.82491 19.49628,-9.19969 0,0 -20.45883,-10.16255 -31.072,-3.02611 -10.61317,7.14452 -13.23029,11.43286 -16.33183,18.5612 -3.08895,7.12026 -35.15495,33.35191 -35.15495,33.35191 z"
           id="path8972"
           style="fill:none;stroke:#ffffff;stroke-width:1.58940732;stroke-linecap:butt;stroke-linejoin:miter;stroke-miterlimit:4;stroke-opacity:1;stroke-dasharray:none" />
        <path
           d="m 262.61846,743.68604 c 0,0 25.83776,9.91171 43.73608,5.41301 18.4834,-4.65244 28.9393,-12.42808 37.41976,-40.19707 l -9.00263,1.08423 c 0,0 -4.55479,43.27981 -56.18627,31.74176 l -15.96694,1.95807"
           id="path8974-9"
           style="fill:#104221;fill-opacity:1;fill-rule:nonzero;stroke:none" />
        <path
           d="m 323.91314,667.24042 c 0,0 1.61682,-11.03639 23.07594,-21.45785 26.91984,-13.07538 3.51046,-29.09594 3.51046,-29.09594 0,0 20.74822,8.93268 25.48546,28.78039 4.57367,19.13567 4.9071,31.77412 4.9071,31.77412 l -56.97896,-10.00072 z"
           id="path8904-6"
           style="fill:none;stroke:#ffffff;stroke-width:1.58940732;stroke-linecap:butt;stroke-linejoin:miter;stroke-miterlimit:4;stroke-opacity:1;stroke-dasharray:none" />
        <path
           d="m 370.24746,660.93738 c 10.17909,13.89258 7.68151,33.93448 -6.0395,44.12129 -13.51968,10.04926 -32.72027,7.69473 -42.89936,-6.20594 -10.17908,-13.89259 -7.48018,-33.65129 6.03322,-44.1213 13.51968,-10.47001 32.72657,-7.69472 42.90564,6.20595 z"
           id="path8908-0"
           style="fill:none;stroke:#ffffff;stroke-width:1.58940732;stroke-linecap:butt;stroke-linejoin:miter;stroke-miterlimit:4;stroke-opacity:1;stroke-dasharray:none" />
        <path
           d="m 331.71417,655.00653 c 1.31485,-0.77675 3.10783,0 4.00117,-1.51305 1.34002,1.90144 2.57308,-2.34645 2.7744,0.5583 -0.60395,0.12136 -2.54792,1.71532 -2.29627,2.88046 0.29568,1.34313 3.35947,1.24604 4.27169,1.75578 1.6357,0.90623 2.54162,2.78338 3.13928,0.79294 0.32085,-1.06803 -0.14469,-3.35784 -1.66715,-3.43066 -0.61654,-1.61015 0.30198,-2.37072 1.79298,-1.82052 0.94367,0.33983 3.49788,3.70577 3.66145,0.15373 1.38405,1.46451 2.96313,0.96285 4.36605,1.82052 0.49701,0.29937 0.88077,1.3836 1.57279,1.82052 0.62283,0.38029 1.64828,0.47738 2.35289,0.63111 -0.89334,0.23465 -1.77411,0.13756 -2.32143,0.97904 -0.42151,-2.54873 -1.5602,-1.85289 -2.89394,-0.50166 -0.7046,0.70394 -3.44754,1.90144 -0.72347,1.69915 0.15098,0.95477 0.98771,1.27841 1.95025,1.05186 -0.29568,0.66348 -0.64798,0.9224 -1.08837,1.4726 -0.67315,0.83339 -0.83672,-0.72011 -1.36518,-0.38029 -0.73606,0.4612 -0.43409,0.67966 -0.89334,1.17323 0.47813,-0.51784 -1.04433,2.11989 -0.79268,1.1894 -0.15728,0.56639 -0.13212,1.6587 -0.33343,2.12798 -0.0944,0.25083 -0.98142,2.09563 -0.98142,2.0228 -0.0126,2.42736 -1.7112,0.71203 0.40892,3.77859 -1.25194,-0.12946 -1.67974,-1.63442 -2.79956,-1.42405 -0.6417,0.12137 -1.62312,0.33984 -2.21448,0.59066 -1.15758,0.47738 -0.41522,1.04376 -2.18304,0.79294 -1.4218,-0.19419 -1.49729,0.6392 -1.9125,1.82052 -0.77382,2.20889 -0.86818,4.35306 1.79297,5.17027 1.73636,0.52593 4.00117,-0.0242 4.49188,-2.21699 1.02546,0.3722 0.93109,1.22177 0.30198,2.03899 -1.20161,1.5535 1.38405,1.62632 2.19561,0.85766 0.60395,1.26223 0.65428,2.73483 1.60424,3.81095 -1.73007,-0.33983 -2.75552,-1.90952 -4.66174,-2.07134 -1.05062,-0.089 -2.16415,0.35601 -3.13299,-0.0486 -1.16387,-0.49357 -2.32144,-1.45642 -3.63629,-1.20559 -1.26452,0.23464 -3.78727,-1.94188 -4.49817,-2.79146 -0.52217,-0.63112 -2.28998,-3.93233 -3.2022,-3.73004 -1.08208,0.24273 -0.27052,2.06325 0.16357,2.62154 -0.91221,-1.13276 -2.28369,-3.01802 -2.79955,-4.53107 -0.94997,-2.79955 0.58506,-5.34828 0.86187,-7.60572 0.27053,0.22656 0.70462,0.31556 0.9311,0.48547 0.0692,-1.10041 -0.50958,-2.02279 -1.57908,-2.15225 0.9248,-1.90953 1.09466,-3.70577 0.0692,-5.25928 1.34001,-1.03568 3.58595,-3.81905 5.27199,-3.41449"
           id="path8910-4"
           style="fill:#104221;fill-opacity:1;fill-rule:nonzero;stroke:none" />
        <path
           d="m 341.72339,651.10658 c 0.35859,-1.1894 1.56649,0.31556 2.74923,0.12946 -0.27052,0.94666 0.0692,1.70724 1.05062,1.50496 -0.25164,1.23795 -3.42238,-1.57778 -5.16503,-0.28319 -0.11324,-0.38029 -0.11324,-1.07613 -0.044,-1.46451 0.44037,0.0323 1.00029,-0.0323 1.40921,0.11328"
           id="path8912-4"
           style="fill:#104221;fill-opacity:1;fill-rule:nonzero;stroke:none" />
        <path
           d="m 340.18206,653.12129 c -0.11953,0.23464 0.15098,0.51783 -0.40264,0.55829 -0.0881,-0.50166 0.29568,-0.33984 0.40264,-0.55829"
           id="path8916-0"
           style="fill:#104221;fill-opacity:1;fill-rule:nonzero;stroke:none" />
        <path
           d="m 339.30759,655.6781 c -0.2139,0.0162 -0.42151,0.0323 -0.62911,0.0566 0.72347,-0.80912 0.42779,-0.16991 0.62911,-0.0566"
           id="path8922-9"
           style="fill:#104221;fill-opacity:1;fill-rule:nonzero;stroke:none" />
        <path
           d="m 351.32997,648.77631 c -0.22648,1.06804 0.72349,2.27363 1.28969,3.38213 -1.83072,0.99521 -4.49817,-1.75579 -5.48588,-2.97756 1.39034,-0.24274 2.79327,-0.27511 4.19619,-0.40457"
           id="path8924-9"
           style="fill:#104221;fill-opacity:1;fill-rule:nonzero;stroke:none" />
        <path
           d="m 357.14929,651.87524 c 0.70461,-0.0162 1.44067,-0.0971 2.14528,-0.0486 1.58538,0.11328 0.31456,1.63443 -1.26452,0.33984 0.75494,1.18131 1.18274,3.62485 -0.70461,1.50496 -0.40263,-0.4612 0.13841,-1.12467 -0.11324,-1.55351 -0.26423,-0.44502 -1.35888,-0.10519 -1.4218,-0.29937 -0.50958,-1.44024 0.74865,-0.58257 1.35889,0.0566"
           id="path8928-3"
           style="fill:#104221;fill-opacity:1;fill-rule:nonzero;stroke:none" />
        <path
           d="m 361.49019,653.33165 c 0.0755,0.41266 -0.26423,0.63921 0.0755,1.14896 -3.25253,0.50974 -1.99429,-2.41927 -0.0755,-1.14896"
           id="path8930-8"
           style="fill:#104221;fill-opacity:1;fill-rule:nonzero;stroke:none" />
        <path
           d="m 360.276,655.62147 c 0.76123,-1.43215 2.50387,0.10518 3.31543,0.90621 -1.74265,1.17323 -3.51047,-0.14565 -4.90081,-1.26222 0.76123,-0.43693 0.98771,-0.0566 1.58538,0.35601"
           id="path8934-3"
           style="fill:#104221;fill-opacity:1;fill-rule:nonzero;stroke:none" />
        <path
           d="m 329.701,678.49527 c 0.0629,0.0566 0.40264,-0.0405 0.5662,0.38839 -0.40263,0.25891 -0.25794,-0.16183 -0.5662,-0.38839"
           id="path8936-1"
           style="fill:#104221;fill-opacity:1;fill-rule:nonzero;stroke:none" />
        <path
           d="m 362.38353,653.46111 c 1.13241,0.69585 1.64199,1.99044 2.07608,3.21221 -0.88706,-0.33174 -2.76182,-2.25744 -2.07608,-3.21221"
           id="path8938-9"
           style="fill:#104221;fill-opacity:1;fill-rule:nonzero;stroke:none" />
        <path
           d="m 348.98967,672.1356 c -0.2139,-0.0566 -0.40893,0.46119 -0.65428,-0.31556 0.40893,-0.0971 0.32714,0.23464 0.65428,0.31556"
           id="path8940-4"
           style="fill:#104221;fill-opacity:1;fill-rule:nonzero;stroke:none" />
        <path
           d="m 351.57533,675.46917 c -0.5725,1.90952 -4.4101,0.25083 -5.90739,1.49687 1.01917,-2.59727 3.87535,-1.22987 5.90739,-1.49687"
           id="path8944-8"
           style="fill:#104221;fill-opacity:1;fill-rule:nonzero;stroke:none" />
        <path
           d="m 351.07833,678.02599 c -0.25165,0.48547 -1.59166,0.80103 -2.58566,0.80103 0.8493,-0.5502 1.61053,-1.39978 2.58566,-0.80103"
           id="path8946-8"
           style="fill:#104221;fill-opacity:1;fill-rule:nonzero;stroke:none" />
        <path
           d="m 356.19933,675.51772 c 0.51587,1.69105 -2.52275,0.85766 -3.32803,0.29937 1.01288,-0.58256 2.22079,-0.67157 3.32803,-0.29937"
           id="path8948-4"
           style="fill:#104221;fill-opacity:1;fill-rule:nonzero;stroke:none" />
        <path
           d="m 350.15353,683.8031 c -0.0126,0.008 0.0566,0.48547 -0.7801,0.3641 0.2139,-0.178 0.61024,-0.22655 0.7801,-0.3641"
           id="path8952-8"
           style="fill:#104221;fill-opacity:1;fill-rule:nonzero;stroke:none" />
        <path
           d="m 370.24746,660.93738 c 10.17909,13.89258 7.68151,33.93447 -6.0395,44.12129 -13.51968,10.04926 -32.72027,7.69472 -42.89936,-6.20594 -10.17908,-13.89259 -7.48018,-33.6513 6.03322,-44.1213 13.51968,-10.47001 32.72657,-7.69472 42.90564,6.20595 z"
           id="path8908-2"
           style="fill:none;stroke:#ffffff;stroke-width:1.58940732;stroke-linecap:butt;stroke-linejoin:miter;stroke-miterlimit:4;stroke-opacity:1;stroke-dasharray:none" />
        <path
           d="m 377.57666,643.96204 c 0,0 29.70681,71.70418 -40.08093,66.73619 0,0 2.17045,-19.89625 26.57383,-30.7789 16.25004,-7.23354 15.16796,-34.16104 13.5071,-35.95729"
           id="path8980-7"
           style="fill:#528c18;fill-opacity:1;fill-rule:nonzero;stroke:none" />
        <path
           d="m 377.57666,643.96204 c 0,0 29.70681,71.70418 -40.08093,66.73619 0,0 2.17045,-19.89625 26.57383,-30.7789 16.25004,-7.23354 15.16796,-34.16104 13.5071,-35.95729 z"
           id="path8982"
           style="fill:none;stroke:#ffffff;stroke-width:1.58940732;stroke-linecap:round;stroke-linejoin:round;stroke-miterlimit:4;stroke-opacity:1;stroke-dasharray:none" />
        <path
           d="m 344.3468,711.42644 c 0,0 -10.37411,-10.82602 -6.58054,-23.53728 0,0 -17.99899,8.0831 0.80526,23.00326 l 5.77528,0.53402"
           id="path8988-80"
           style="fill:#104221;fill-opacity:1;fill-rule:nonzero;stroke:none" />
        <path
           d="m 344.3468,711.42644 c 0,0 -10.37411,-10.82602 -6.58054,-23.53728 0,0 -17.99899,8.0831 0.80526,23.00326 l 5.77528,0.53402 z"
           id="path8990-5"
           style="fill:none;stroke:#ffffff;stroke-width:0.79470366;stroke-linecap:butt;stroke-linejoin:miter;stroke-miterlimit:4;stroke-opacity:1;stroke-dasharray:none" />
        <path
           d="m 343.39054,629.30889 c 0,0 -67.52921,50.25442 -6.55538,80.97669 l 2.02575,0.48547 c 0,0 -40.63454,-37.43796 4.52963,-81.46216"
           id="path8992-0"
           style="fill:#528c18;fill-opacity:1;fill-rule:nonzero;stroke:none" />
        <path
           d="m 338.31988,710.61731 c 0,0 0.28309,-15.85873 7.87022,-21.20701 0,0 16.29408,-7.24162 17.89204,-24.26551 0,0 31.43688,48.31254 -25.76226,45.47252"
           id="path8996-8"
           style="fill:#104221;fill-opacity:1;fill-rule:nonzero;stroke:none" />
        <path
           d="m 343.39054,629.30889 c 0,0 -67.52921,50.25442 -6.55538,80.97669 l 2.02575,0.48547 c 0,0 -40.63454,-37.43796 4.52963,-81.46216 z"
           id="path8994"
           style="fill:none;stroke:#ffffff;stroke-width:1.58940732;stroke-linecap:round;stroke-linejoin:round;stroke-miterlimit:4;stroke-opacity:1;stroke-dasharray:none" />
        <path
           d="m 338.31988,710.61731 c 0,0 0.28309,-15.85873 7.87022,-21.20701 0,0 16.29408,-7.24162 17.89204,-24.26551 0,0 31.43688,48.31254 -25.76226,45.47252 z"
           id="path8998"
           style="fill:none;stroke:#ffffff;stroke-width:1.58940732;stroke-linecap:butt;stroke-linejoin:miter;stroke-miterlimit:4;stroke-opacity:1;stroke-dasharray:none" />
      </g>
      <path
         d="m 311.69047,832.51319 -278.4082,0 0,3.62033 278.4082,0 0,-3.62033 z"
         id="path9000"
         style="fill:#528c18;fill-opacity:1;fill-rule:nonzero;stroke:none" />
      <g
         id="g24333">
        <path
           d="m 326.30001,840.48124 c 1.89232,0 5.7021,-1.00608 5.7021,-6.89883 0,-4.88667 -2.97072,-7.46176 -6.30276,-7.46176 -3.52016,0 -6.06064,2.21577 -6.06064,6.64732 0,4.74295 2.85152,7.71327 6.6613,7.71327 z m -0.47774,-15.11515 c 4.74011,0 8.33571,2.89847 8.33571,7.64142 0,4.55131 -3.37768,8.31213 -8.45863,8.31213 -5.77381,0 -8.24072,-4.33572 -8.24072,-8.00073 0,-3.28174 2.53955,-7.95282 8.36364,-7.95282"
           id="path9002"
           style="fill:#104221;fill-opacity:1;fill-rule:nonzero;stroke:none" />
        <path
           d="m 339.3385,831.54629 c 0,-3.16197 0,-3.73687 -0.0494,-4.38364 -0.0466,-0.69466 -0.16669,-1.042 -0.85955,-1.12584 -0.16856,-0.0239 -0.52896,-0.0599 -0.72173,-0.0599 -0.0708,0 -0.16576,-0.0838 -0.16576,-0.15569 0,-0.1317 0.095,-0.16768 0.33525,-0.16768 0.9592,0 2.276,0.0359 2.3952,0.0359 0.40883,0 4.98503,0.0239 5.4637,0 0.40789,-0.0239 0.7655,-0.0239 0.95827,-0.0958 0.12013,-0.0239 0.21698,-0.11974 0.28776,-0.11974 0.0959,0 0.14341,0.0958 0.14341,0.19163 0,0.1557 -0.0969,0.38327 -0.16763,0.97015 -0.0233,0.17966 -0.0466,1.08992 -0.0959,1.34145 -0.0233,0.0958 -0.095,0.21558 -0.19091,0.21558 -0.0959,0 -0.16949,-0.0958 -0.16949,-0.23955 0,-0.16767 -0.0708,-0.50303 -0.19091,-0.76653 -0.12106,-0.2635 -0.62301,-0.61084 -1.43786,-0.61084 l -3.44939,-0.0359 c -0.12013,0 -0.16948,0.0359 -0.16948,0.2156 l 0,5.55739 c 0,0.11974 0,0.19163 0.14434,0.19163 l 2.87852,-0.0239 c 0.35668,0 0.66958,0 0.95641,-0.0239 0.50288,-0.048 0.79064,-0.11974 0.98154,-0.35931 0.0959,-0.11973 0.19091,-0.21559 0.26541,-0.21559 0.095,0 0.11827,0.0719 0.11827,0.16769 0,0.11973 -0.14528,0.45512 -0.19277,1.12584 -0.0475,0.40723 -0.0708,1.22167 -0.0708,1.3654 0,0.19163 -0.0475,0.40722 -0.19091,0.40722 -0.12014,0 -0.14341,-0.0958 -0.14341,-0.19163 -0.0261,-0.21559 -0.0494,-0.50305 -0.14528,-0.74259 -0.095,-0.28745 -0.43117,-0.55095 -1.0784,-0.64677 -0.52709,-0.0719 -3.01728,-0.0478 -3.37861,-0.0478 -0.11826,0 -0.14434,0.0478 -0.14434,0.19163 l 0,1.6289 c 0,2.01216 0,3.6171 0.0968,4.40759 0.0726,0.59885 0.19277,0.98212 0.76829,1.07794 0.30918,0.048 0.76549,0.0958 0.9564,0.0958 0.12014,0 0.1667,0.0958 0.1667,0.16769 0,0.0958 -0.0959,0.16767 -0.33526,0.16767 -1.17245,0 -2.53768,-0.0719 -2.63453,-0.0719 -0.1192,0 -1.436,0.0719 -2.08323,0.0719 -0.21605,0 -0.33711,-0.048 -0.33711,-0.16767 0,-0.0719 0.0484,-0.16769 0.16856,-0.16769 0.1909,0 0.45445,-0.0719 0.64629,-0.0958 0.40789,-0.0719 0.45539,-0.47909 0.5513,-1.07794 0.12014,-0.8384 0.12014,-2.44334 0.12014,-4.40759 l 0,-3.59314"
           id="path9004"
           style="fill:#104221;fill-opacity:1;fill-rule:nonzero;stroke:none" />
        <path
           d="m 363.13958,835.13944 c 0,1.96425 0,3.56919 0.0959,4.40759 0.0708,0.59885 0.16763,0.98212 0.81206,1.07793 0.28962,0.048 0.76736,0.0958 0.96013,0.0958 0.1462,0 0.16762,0.0958 0.16762,0.16769 0,0.0958 -0.094,0.16767 -0.33432,0.16767 -1.15104,0 -2.49205,-0.0719 -2.61125,-0.0719 -0.0978,0 -1.55893,0.0719 -2.18194,0.0719 -0.23933,0 -0.33525,-0.048 -0.33525,-0.16767 0,-0.0719 0.0475,-0.14373 0.16762,-0.14373 0.19277,0 0.43211,-0.048 0.62301,-0.0958 0.43118,-0.0958 0.55131,-0.50304 0.62395,-1.10189 0.0959,-0.8384 0.0959,-2.44334 0.0959,-4.40759 l 0,-8.56366 -3.04615,0.0599 c -1.31587,0.0239 -1.81688,0.16769 -2.12886,0.64677 -0.24119,0.35932 -0.26354,0.50305 -0.33711,0.63479 -0.0466,0.17966 -0.11828,0.19163 -0.21605,0.19163 -0.0456,0 -0.14062,-0.0359 -0.14062,-0.1557 0,-0.22757 0.43024,-2.03611 0.45259,-2.20379 0.0475,-0.1317 0.14341,-0.38326 0.21698,-0.38326 0.14342,0 0.3576,0.15569 0.93499,0.22755 0.5988,0.0719 1.41085,0.0958 1.65112,0.0958 l 7.95575,0 c 0.69379,0 1.17432,-0.0359 1.50864,-0.0958 0.3129,-0.0359 0.50474,-0.0839 0.59973,-0.0839 0.0968,0 0.0968,0.10778 0.0968,0.23955 0,0.62281 -0.0717,2.07203 -0.0717,2.32356 0,0.16768 -0.0978,0.26349 -0.19463,0.26349 -0.0941,0 -0.14155,-0.0719 -0.16483,-0.3593 l -0.0261,-0.2156 c -0.0717,-0.63478 -0.52616,-1.08992 -2.53954,-1.12585 l -2.63453,-0.0599 0,8.56366"
           id="path9006"
           style="fill:#104221;fill-opacity:1;fill-rule:nonzero;stroke:none" />
        <path
           d="m 387.5733,835.13944 c 0,1.96425 0.0186,3.56919 0.11175,4.40759 0.0745,0.59885 0.12106,0.98212 0.77294,1.07793 0.28869,0.048 0.76364,0.0958 0.93127,0.0958 0.149,0 0.19555,0.0958 0.19555,0.16769 0,0.0958 -0.12106,0.16767 -0.36318,0.16767 -1.14546,0 -2.48647,-0.0719 -2.60753,-0.0719 -0.10244,0 -1.46208,0.0719 -2.08602,0.0719 -0.24213,0 -0.33526,-0.048 -0.33526,-0.16767 0,-0.0719 0.0466,-0.16769 0.16763,-0.16769 0.18625,0 0.42838,-0.0478 0.62394,-0.0958 0.42838,-0.0958 0.50288,-0.50303 0.56807,-1.10189 0.10244,-0.8384 0.10244,-2.37147 0.10244,-4.33572 l 0,-2.03612 c 0,-0.0958 -0.0466,-0.11973 -0.12107,-0.11973 l -8.79295,0 c -0.0745,0 -0.12107,0.0239 -0.12107,0.11973 l 0,2.03612 c 0,1.96425 0,3.52128 0.0978,4.35968 0.0717,0.59885 0.14341,0.98212 0.76363,1.07793 0.3129,0.048 0.76829,0.0958 0.96013,0.0958 0.1192,0 0.16856,0.0958 0.16856,0.16769 0,0.0958 -0.0959,0.16767 -0.33619,0.16767 -1.17618,0 -2.51719,-0.0719 -2.61311,-0.0719 -0.11828,0 -1.46022,0.0719 -2.10931,0.0719 -0.21419,0 -0.33245,-0.048 -0.33245,-0.16767 0,-0.0719 0.0475,-0.16769 0.16576,-0.16769 0.1937,0 0.45725,-0.0478 0.64629,-0.0958 0.41069,-0.0958 0.45818,-0.47908 0.55317,-1.07793 0.11921,-0.8384 0.11921,-2.44334 0.11921,-4.40759 l 0,-3.59315 c 0,-3.16197 0,-3.73687 -0.0475,-4.38364 -0.0503,-0.69466 -0.16669,-1.042 -0.86328,-1.12584 -0.16762,-0.0239 -0.52616,-0.0599 -0.71707,-0.0599 -0.0736,0 -0.16855,-0.0838 -0.16855,-0.15569 0,-0.1317 0.095,-0.16768 0.33525,-0.16768 0.95827,0 2.30021,0.0359 2.41848,0.0359 0.0959,0 1.43693,-0.0359 2.08602,-0.0359 0.23934,0 0.33619,0.0359 0.33619,0.16768 0,0.0719 -0.0969,0.15569 -0.16856,0.15569 -0.14248,0 -0.28776,0 -0.52616,0.0599 -0.57645,0.10778 -0.69565,0.39524 -0.74501,1.12584 -0.0233,0.64677 -0.0233,1.26958 -0.0233,4.41958 l 0,0.44315 c 0,0.11974 0.0466,0.11974 0.12106,0.11974 l 8.79295,0 c 0.0745,0 0.12107,0 0.12107,-0.11974 l 0,-0.44315 c 0,-3.15 -0.0279,-3.77281 -0.0466,-4.41958 -0.0559,-0.69466 -0.149,-1.042 -0.83813,-1.12584 -0.16763,-0.0239 -0.53082,-0.0599 -0.72638,-0.0599 -0.0931,0 -0.16763,-0.0838 -0.16763,-0.15569 0,-0.1317 0.10243,-0.16768 0.33525,-0.16768 0.94057,0 2.30021,0.0359 2.40265,0.0359 0.12107,0 1.46208,-0.0359 2.08602,-0.0359 0.23282,0 0.35388,0.0359 0.35388,0.16768 0,0.0719 -0.0932,0.15569 -0.19556,0.15569 -0.13969,0 -0.26075,0 -0.52151,0.0599 -0.54944,0.10778 -0.6705,0.39524 -0.71707,1.12584 -0.0466,0.64677 -0.0466,1.22167 -0.0466,4.38364 l 0,3.59315"
           id="path9008"
           style="fill:#104221;fill-opacity:1;fill-rule:nonzero;stroke:none" />
        <path
           d="m 394.04447,831.54629 c 0,-3.16197 0,-3.73687 -0.0465,-4.38364 -0.0465,-0.69466 -0.16764,-1.042 -0.85677,-1.12584 -0.16762,-0.0239 -0.53081,-0.0599 -0.72638,-0.0599 -0.0651,0 -0.16763,-0.0838 -0.16763,-0.15569 0,-0.1317 0.10246,-0.16768 0.33525,-0.16768 0.95921,0 2.32815,0.0359 2.44922,0.0359 0.13968,0 4.55385,0.0239 5.0288,0 0.40976,-0.0239 0.79156,-0.0958 0.9592,-0.11973 0.0932,-0.012 0.19556,-0.0958 0.28868,-0.0958 0.0746,0 0.0932,0.0958 0.0932,0.19163 0,0.1557 -0.11176,0.38327 -0.16762,0.97015 -0.0186,0.17966 -0.0651,1.08992 -0.12106,1.34145 -0.0186,0.0958 -0.0932,0.21558 -0.18626,0.21558 -0.12106,0 -0.16763,-0.0958 -0.16763,-0.27548 0,-0.1317 -0.0279,-0.4671 -0.12107,-0.70665 -0.149,-0.33536 -0.35387,-0.47909 -1.50863,-0.63479 -0.3632,-0.0359 -2.8031,-0.0599 -3.04522,-0.0599 -0.0932,0 -0.12107,0.0599 -0.12107,0.21558 l 0,5.53344 c 0,0.14373 0,0.2156 0.12107,0.2156 0.27007,0 3.04522,0 3.52016,-0.048 0.50287,-0.048 0.81951,-0.0719 1.03369,-0.28745 0.1397,-0.14373 0.24214,-0.2635 0.31664,-0.2635 0.0651,0 0.11176,0.048 0.11176,0.16769 0,0.11973 -0.11176,0.45512 -0.16763,1.12584 -0.0465,0.40723 -0.0932,1.17376 -0.0932,1.31749 0,0.16768 -0.0465,0.38327 -0.19555,0.38327 -0.0932,0 -0.1397,-0.0719 -0.1397,-0.19164 0,-0.19163 0,-0.40723 -0.0932,-0.67072 -0.0746,-0.28745 -0.27006,-0.52699 -1.08026,-0.62281 -0.57737,-0.0719 -2.83102,-0.0958 -3.18491,-0.0958 -0.12107,0 -0.149,0.0719 -0.149,0.14372 l 0,1.70076 c 0,0.69466 -0.0186,3.06614 0,3.47337 0.0465,1.36539 0.4377,1.62888 2.5144,1.62888 0.55876,0 1.56452,0 2.11397,-0.21558 0.54944,-0.23954 0.83812,-0.59886 0.95919,-1.4133 0.0465,-0.23955 0.0932,-0.31141 0.21419,-0.31141 0.12106,0 0.13969,0.16768 0.13969,0.31141 0,0.14372 -0.16763,1.53307 -0.27938,1.96424 -0.149,0.527 -0.36319,0.527 -1.18269,0.527 -1.57383,0 -2.80311,-0.0478 -3.65986,-0.0719 -0.88469,-0.0478 -1.44345,-0.0478 -1.75077,-0.0478 -0.0465,0 -0.45632,0 -0.91264,0.0239 -0.40975,0.0239 -0.88469,0.048 -1.21994,0.048 -0.21419,0 -0.33525,-0.048 -0.33525,-0.16767 0,-0.0719 0.0465,-0.16769 0.16763,-0.16769 0.19555,0 0.45631,-0.0719 0.64256,-0.0958 0.40975,-0.0719 0.45632,-0.47909 0.55875,-1.07794 0.11177,-0.8384 0.11177,-2.44334 0.11177,-4.40759 l 0,-3.59314"
           id="path9010"
           style="fill:#104221;fill-opacity:1;fill-rule:nonzero;stroke:none" />
        <path
           d="m 414.30498,829.88147 c 0,-3.73687 0,-4.40759 -0.0465,-5.16215 -0.0465,-0.81444 -0.24213,-1.19771 -1.03369,-1.37737 -0.18625,-0.0359 -0.59601,-0.0719 -0.81021,-0.0719 -0.0932,0 -0.19555,-0.0359 -0.19555,-0.13169 0,-0.14373 0.12107,-0.20362 0.39112,-0.20362 1.07095,0 2.53302,0.0719 2.74722,0.0719 0.2235,0 1.65763,-0.0719 2.37471,-0.0719 0.26075,0 0.38182,0.0599 0.38182,0.20362 0,0.0958 -0.0932,0.13169 -0.18626,0.13169 -0.16763,0 -0.31663,0.0359 -0.60532,0.0719 -0.64257,0.10778 -0.83812,0.53897 -0.88469,1.37737 -0.0465,0.75456 -0.0465,1.42528 -0.0465,5.16215 l 0,3.36558 c 0,3.44941 0.76364,4.93458 1.79733,5.9167 1.17339,1.10191 2.25365,1.31749 3.6226,1.31749 1.46207,0 2.89622,-0.69467 3.76229,-1.72471 1.09888,-1.36539 1.38758,-3.40151 1.38758,-5.8688 l 0,-3.00626 c 0,-3.73687 0,-4.40759 -0.0465,-5.16215 -0.0559,-0.81444 -0.24213,-1.19771 -1.03369,-1.37737 -0.19557,-0.0359 -0.596,-0.0719 -0.81952,-0.0719 -0.0932,0 -0.18625,-0.0359 -0.18625,-0.13169 0,-0.14373 0.12107,-0.20362 0.38182,-0.20362 1.08026,0 2.39333,0.0719 2.54234,0.0719 0.16763,0 1.29445,-0.0719 2.01153,-0.0719 0.26075,0 0.3818,0.0599 0.3818,0.20362 0,0.0958 -0.0932,0.13169 -0.19555,0.13169 -0.16764,0 -0.30732,0.0359 -0.59601,0.0719 -0.64257,0.14373 -0.83814,0.53897 -0.8847,1.37737 -0.0465,0.75456 -0.0465,1.42528 -0.0465,5.16215 l 0,2.57508 c 0,2.58707 -0.28868,5.46158 -2.20708,7.16234 -1.72283,1.53307 -3.52016,1.77261 -4.93567,1.77261 -0.81019,0 -3.23146,-0.0958 -4.93568,-1.70074 -1.17339,-1.12586 -2.08601,-2.80265 -2.08601,-6.29998 l 0,-3.50931"
           id="path9012"
           style="fill:#104221;fill-opacity:1;fill-rule:nonzero;stroke:none" />
        <path
           d="m 434.74674,838.27745 c 0.0465,1.6768 0.24212,2.17984 0.81951,2.32357 0.38182,0.0958 0.85675,0.11973 1.05232,0.11973 0.0932,0 0.16762,0.0719 0.16762,0.16769 0,0.11974 -0.13968,0.16767 -0.38182,0.16767 -1.19201,0 -2.03945,-0.0719 -2.2257,-0.0719 -0.19557,0 -1.08026,0.0719 -2.03947,0.0719 -0.21418,0 -0.33525,-0.0239 -0.33525,-0.16767 0,-0.0958 0.0746,-0.16769 0.16763,-0.16769 0.16762,0 0.54944,-0.0239 0.85676,-0.11973 0.53082,-0.14373 0.60532,-0.69468 0.60532,-2.53916 l 0,-11.67772 c 0,-0.81444 0.12107,-1.01805 0.28869,-1.01805 0.24213,0 0.596,0.39524 0.81019,0.61082 0.33525,0.34735 3.40841,3.60513 6.66782,6.95873 2.07671,2.15589 4.33036,4.57528 4.98224,5.24599 l -0.2235,-10.20452 c -0.0186,-1.31749 -0.13969,-1.77263 -0.78226,-1.89239 -0.39112,-0.0719 -0.86607,-0.10778 -1.03369,-0.10778 -0.1397,0 -0.16764,-0.11974 -0.16764,-0.19163 0,-0.11974 0.16764,-0.1317 0.40976,-0.1317 0.9592,0 1.96496,0.0359 2.19778,0.0359 0.24212,0 0.94056,-0.0359 1.79733,-0.0359 0.21418,0 0.39112,0.012 0.39112,0.1317 0,0.0719 -0.10246,0.19163 -0.24212,0.19163 -0.10246,0 -0.27007,0 -0.50289,0.0599 -0.69844,0.14372 -0.745,0.53896 -0.745,1.77261 l -0.0465,11.92924 c 0,1.34144 -0.0279,1.4612 -0.16762,1.4612 -0.2142,0 -0.42839,-0.16767 -1.61108,-1.24562 -0.2142,-0.19163 -3.25011,-3.18592 -5.48513,-5.50948 -2.4399,-2.56311 -4.8146,-5.05436 -5.45718,-5.77299 l 0.23282,9.60568"
           id="path9014"
           style="fill:#104221;fill-opacity:1;fill-rule:nonzero;stroke:none" />
        <path
           d="m 456.02873,835.13944 c 0,1.96425 0,3.56919 0.10247,4.40759 0.0652,0.59885 0.13968,0.98212 0.76363,1.07793 0.30732,0.048 0.76363,0.0958 0.9592,0.0958 0.12106,0 0.16763,0.0958 0.16763,0.16769 0,0.0958 -0.0932,0.16767 -0.33525,0.16767 -1.17339,0 -2.54234,-0.0719 -2.63547,-0.0719 -0.12107,0 -1.44345,0.0719 -2.08602,0.0719 -0.2142,0 -0.33525,-0.048 -0.33525,-0.16767 0,-0.0719 0.0465,-0.16769 0.16762,-0.16769 0.19556,0 0.4563,-0.0478 0.64257,-0.0958 0.40975,-0.0958 0.48424,-0.47908 0.55874,-1.07793 0.0932,-0.8384 0.11176,-2.44334 0.11176,-4.40759 l 0,-3.59315 c 0,-3.16197 0,-3.73687 -0.0465,-4.38364 -0.0465,-0.69466 -0.21419,-1.01805 -0.6705,-1.11387 -0.24213,-0.0359 -0.50288,-0.0719 -0.64258,-0.0719 -0.0932,0 -0.16762,-0.0839 -0.16762,-0.1557 0,-0.1317 0.0932,-0.16767 0.33526,-0.16767 0.68913,0 2.01151,0.0359 2.13258,0.0359 0.0932,0 1.46208,-0.0359 2.10465,-0.0359 0.24212,0 0.33525,0.0359 0.33525,0.16767 0,0.0719 -0.0932,0.1557 -0.16763,0.1557 -0.13969,0 -0.28869,0 -0.5215,0.0599 -0.57738,0.10778 -0.69844,0.39524 -0.74501,1.12585 -0.0279,0.64677 -0.0279,1.22167 -0.0279,4.38364 l 0,3.59314"
           id="path9016"
           style="fill:#104221;fill-opacity:1;fill-rule:nonzero;stroke:none" />
        <path
           d="m 467.08119,835.13944 c 0,1.96425 0,3.56919 0.0932,4.40759 0.0746,0.59885 0.16762,0.98212 0.81951,1.07793 0.27937,0.048 0.76362,0.0958 0.94987,0.0958 0.149,0 0.17695,0.0958 0.17695,0.16769 0,0.0958 -0.10246,0.16767 -0.34457,0.16767 -1.14545,0 -2.48647,-0.0719 -2.60752,-0.0719 -0.0932,0 -1.55521,0.0719 -2.17915,0.0719 -0.24213,0 -0.33525,-0.048 -0.33525,-0.16767 0,-0.0719 0.0465,-0.14373 0.16762,-0.14373 0.19557,0 0.42838,-0.048 0.62395,-0.0958 0.42837,-0.0958 0.54944,-0.50304 0.62394,-1.10189 0.0932,-0.8384 0.0932,-2.44334 0.0932,-4.40759 l 0,-8.56366 -3.04521,0.0599 c -1.31308,0.0239 -1.81596,0.16769 -2.13258,0.64677 -0.23282,0.35932 -0.26076,0.50305 -0.33526,0.63479 -0.0465,0.17966 -0.12106,0.19163 -0.2142,0.19163 -0.0465,0 -0.13968,-0.0359 -0.13968,-0.1557 0,-0.22757 0.42838,-2.03611 0.45632,-2.20379 0.0465,-0.1317 0.13968,-0.38326 0.21418,-0.38326 0.13969,0 0.36319,0.15569 0.93126,0.22755 0.59601,0.0719 1.41551,0.0958 1.65765,0.0958 l 7.95296,0 c 0.68912,0 1.17338,-0.0359 1.50863,-0.0958 0.30732,-0.0359 0.50289,-0.0839 0.596,-0.0839 0.10247,0 0.10247,0.10778 0.10247,0.23955 0,0.62281 -0.0746,2.07203 -0.0746,2.32356 0,0.16768 -0.10246,0.26349 -0.19557,0.26349 -0.0931,0 -0.13968,-0.0719 -0.16763,-0.3593 l -0.0186,-0.2156 c -0.0746,-0.63478 -0.53082,-1.08992 -2.54234,-1.12585 l -2.63547,-0.0599 0,8.56366"
           id="path9018"
           style="fill:#104221;fill-opacity:1;fill-rule:nonzero;stroke:none" />
        <path
           d="m 478.64584,831.54629 c 0,-3.16197 0,-3.73687 -0.0465,-4.38364 -0.0465,-0.69466 -0.16763,-1.042 -0.86607,-1.12584 -0.16764,-0.0239 -0.53082,-0.0599 -0.71708,-0.0599 -0.0746,0 -0.16762,-0.0838 -0.16762,-0.15569 0,-0.1317 0.0932,-0.16768 0.33526,-0.16768 0.95919,0 2.31883,0.0359 2.43989,0.0359 0.14901,0 4.55386,0.0239 5.03812,0 0.40975,-0.0239 0.79157,-0.0958 0.95919,-0.11973 0.0932,-0.012 0.18625,-0.0958 0.2887,-0.0958 0.0652,0 0.0932,0.0958 0.0932,0.19163 0,0.1557 -0.12107,0.38327 -0.16762,0.97015 -0.0279,0.17966 -0.0746,1.08992 -0.12107,1.34145 -0.0279,0.0958 -0.0932,0.21558 -0.19557,0.21558 -0.11176,0 -0.16762,-0.0958 -0.16762,-0.27548 0,-0.1317 -0.0186,-0.4671 -0.11176,-0.70665 -0.14902,-0.33536 -0.3632,-0.47909 -1.50865,-0.63479 -0.3725,-0.0359 -2.8124,-0.0599 -3.04522,-0.0599 -0.10246,0 -0.12106,0.0599 -0.12106,0.21558 l 0,5.53344 c 0,0.14373 0,0.2156 0.12106,0.2156 0.26075,0 3.04522,0 3.52016,-0.048 0.50289,-0.048 0.81019,-0.0719 1.03371,-0.28745 0.13968,-0.14373 0.2328,-0.2635 0.3073,-0.2635 0.0746,0 0.12107,0.048 0.12107,0.16769 0,0.11973 -0.12107,0.45512 -0.16762,1.12584 -0.0465,0.40723 -0.0932,1.17376 -0.0932,1.31749 0,0.16768 -0.0558,0.38327 -0.19557,0.38327 -0.0932,0 -0.13968,-0.0719 -0.13968,-0.19164 0,-0.19163 0,-0.40723 -0.10246,-0.67072 -0.0746,-0.28745 -0.26075,-0.52699 -1.08026,-0.62281 -0.57739,-0.0719 -2.82172,-0.0958 -3.18491,-0.0958 -0.12107,0 -0.1397,0.0719 -0.1397,0.14372 l 0,1.70076 c 0,0.69466 -0.0279,3.06614 0,3.47337 0.0465,1.36539 0.42839,1.62888 2.5144,1.62888 0.54946,0 1.55522,0 2.10465,-0.21558 0.54944,-0.23954 0.83814,-0.59886 0.9592,-1.4133 0.0465,-0.23955 0.10246,-0.31141 0.2142,-0.31141 0.12106,0 0.149,0.16768 0.149,0.31141 0,0.14372 -0.16764,1.53307 -0.2887,1.96424 -0.13969,0.527 -0.36319,0.527 -1.17338,0.527 -1.58315,0 -2.80309,-0.0478 -3.66916,-0.0719 -0.88471,-0.0478 -1.43415,-0.0478 -1.75078,-0.0478 -0.0465,0 -0.45631,0 -0.90331,0.0239 -0.40975,0.0239 -0.89401,0.048 -1.22927,0.048 -0.21419,0 -0.33526,-0.048 -0.33526,-0.16767 0,-0.0719 0.0465,-0.16769 0.16764,-0.16769 0.19556,0 0.45632,-0.0719 0.65188,-0.0958 0.40976,-0.0719 0.45631,-0.47909 0.54944,-1.07794 0.12107,-0.8384 0.12107,-2.44334 0.12107,-4.40759 l 0,-3.59314"
           id="path9020"
           style="fill:#104221;fill-opacity:1;fill-rule:nonzero;stroke:none" />
        <path
           d="m 492.8087,833.75008 c 0,2.1559 0,4.04829 0.0186,4.43155 0.0279,0.50304 0.0746,1.24562 0.24213,1.46122 0.26076,0.38327 1.00576,0.81444 3.50153,0.81444 1.93703,0 3.65986,-0.64677 4.93568,-1.84448 1.09889,-1.03004 1.65764,-2.97034 1.65764,-4.83877 0,-2.58707 -1.12682,-4.23991 -1.9929,-5.10227 -1.99288,-2.01215 -4.31172,-2.28763 -6.83544,-2.28763 -0.40043,0 -1.07094,0.0839 -1.26651,0.1557 -0.18625,0.0719 -0.26075,0.16769 -0.26075,0.40723 l 0,6.80301 z m -1.91839,-2.20379 c 0,-3.16197 0,-3.73687 -0.0465,-4.38364 -0.0465,-0.69466 -0.16762,-1.042 -0.85675,-1.12584 -0.17694,-0.0239 -0.53082,-0.0599 -0.72638,-0.0599 -0.0746,0 -0.16763,-0.0838 -0.16763,-0.15569 0,-0.1317 0.0932,-0.16768 0.33525,-0.16768 0.95919,0 2.32815,0.0359 2.44922,0.0359 0.2328,0 1.58313,-0.0359 2.82171,-0.0359 2.11396,0 5.96938,-0.20362 8.46515,2.32357 1.05232,1.05398 2.05808,2.74275 2.05808,5.17412 0,2.56311 -1.10819,4.52736 -2.28158,5.72507 -0.90333,0.93422 -2.80309,2.34753 -6.39776,2.34753 -0.91263,0 -2.03014,-0.0719 -2.94277,-0.11974 -0.91264,-0.0719 -1.62971,-0.11974 -1.72283,-0.11974 -0.056,0 -0.4377,0.0239 -0.86607,0.0239 -0.42839,0.0239 -0.93126,0.048 -1.26651,0.048 -0.22351,0 -0.34457,-0.048 -0.34457,-0.16768 0,-0.0719 0.0558,-0.16768 0.17693,-0.16768 0.18626,0 0.45632,-0.0478 0.64257,-0.0958 0.40976,-0.0958 0.45632,-0.47908 0.54944,-1.07793 0.12107,-0.83841 0.12107,-2.44335 0.12107,-4.40759 l 0,-3.59315"
           id="path9022"
           style="fill:#104221;fill-opacity:1;fill-rule:nonzero;stroke:none" />
        <path
           d="m 517.16507,840.74474 c -0.33526,-0.16768 -0.35389,-0.2635 -0.35389,-0.91026 0,-1.19772 0.0932,-2.15589 0.12107,-2.53916 0.0186,-0.26349 0.0652,-0.38327 0.18625,-0.38327 0.149,0 0.17694,0.0719 0.17694,0.26351 0,0.21558 0,0.55094 0.0651,0.8863 0.3632,1.77262 1.93703,2.44334 3.54811,2.44334 2.30021,0 3.42703,-1.65285 3.42703,-3.18592 0,-1.65285 -0.69844,-2.61102 -2.75652,-4.31177 l -1.08026,-0.89829 c -2.54235,-2.07205 -3.11041,-3.55721 -3.11041,-5.18611 0,-2.56311 1.90908,-4.31176 4.95429,-4.31176 0.94058,0 1.62971,0.0958 2.22572,0.22756 0.45632,0.0958 0.65187,0.13169 0.84744,0.13169 0.18625,0 0.23282,0.0359 0.23282,0.16769 0,0.10778 -0.0932,0.91026 -0.0932,2.52717 0,0.38327 -0.0465,0.56293 -0.16762,0.56293 -0.13969,0 -0.16763,-0.11974 -0.19557,-0.31141 -0.0186,-0.29943 -0.16762,-0.93421 -0.30732,-1.19771 -0.149,-0.27548 -0.79156,-1.26958 -2.99865,-1.26958 -1.64833,0 -2.94278,1.01806 -2.94278,2.7787 0,1.3654 0.62394,2.22775 2.92416,4.02432 l 0.6705,0.527 c 2.82172,2.22775 3.50155,3.71291 3.50155,5.62924 0,0.98213 -0.39114,2.80266 -2.03947,3.97642 -1.03369,0.71863 -2.32815,1.00608 -3.62259,1.00608 -1.11751,0 -2.22572,-0.16768 -3.21285,-0.64676"
           id="path9024"
           style="fill:#104221;fill-opacity:1;fill-rule:nonzero;stroke:none" />
        <path
           d="m 536.46357,835.13944 c 0,1.96425 0,3.56919 0.0932,4.40759 0.0746,0.59885 0.16763,0.98212 0.81951,1.07793 0.28868,0.048 0.76363,0.0958 0.94989,0.0958 0.149,0 0.16762,0.0958 0.16762,0.16769 0,0.0958 -0.0932,0.16767 -0.32594,0.16767 -1.15476,0 -2.49577,-0.0719 -2.61684,-0.0719 -0.0932,0 -1.55522,0.0719 -2.17915,0.0719 -0.24212,0 -0.33525,-0.048 -0.33525,-0.16767 0,-0.0719 0.0465,-0.14373 0.16762,-0.14373 0.19557,0 0.42837,-0.048 0.62395,-0.0958 0.42839,-0.0958 0.54944,-0.50304 0.62394,-1.10189 0.0932,-0.8384 0.0932,-2.44334 0.0932,-4.40759 l 0,-8.56366 -3.04522,0.0599 c -1.31308,0.0239 -1.81595,0.16769 -2.13259,0.64677 -0.24212,0.35932 -0.26075,0.50305 -0.33525,0.63479 -0.0465,0.17966 -0.11176,0.19163 -0.21419,0.19163 -0.0465,0 -0.13968,-0.0359 -0.13968,-0.1557 0,-0.22757 0.42837,-2.03611 0.447,-2.20379 0.0558,-0.1317 0.149,-0.38326 0.2235,-0.38326 0.13969,0 0.36319,0.15569 0.93126,0.22755 0.60532,0.0719 1.41551,0.0958 1.65763,0.0958 l 7.95297,0 c 0.68913,0 1.17339,-0.0359 1.50864,-0.0958 0.30732,-0.0359 0.50287,-0.0839 0.596,-0.0839 0.0932,0 0.0932,0.10778 0.0932,0.23955 0,0.62281 -0.0651,2.07203 -0.0651,2.32356 0,0.16768 -0.10247,0.26349 -0.19557,0.26349 -0.0932,0 -0.13969,-0.0719 -0.16762,-0.3593 l -0.0186,-0.2156 c -0.0746,-0.63478 -0.53082,-1.08992 -2.54233,-1.12585 l -2.63546,-0.0599 0,8.56366"
           id="path9026"
           style="fill:#104221;fill-opacity:1;fill-rule:nonzero;stroke:none" />
        <path
           d="m 551.34731,834.54058 c 0.0932,0 0.0932,-0.0478 0.0651,-0.14373 l -2.08602,-5.58135 c -0.11176,-0.3114 -0.23282,-0.3114 -0.35388,0 l -1.96495,5.58135 c -0.0279,0.0958 0,0.14373 0.0651,0.14373 l 4.27449,0 z m -2.35609,-8.4918 c 0.27006,-0.65874 0.36319,-0.7785 0.50288,-0.7785 0.21418,0 0.28868,0.28745 0.50288,0.74257 0.39112,0.86235 3.76228,9.27032 5.05674,12.36042 0.77294,1.82052 1.34101,2.08402 1.79733,2.22775 0.31662,0.0958 0.62394,0.11973 0.83813,0.11973 0.12106,0 0.27007,0.0478 0.27007,0.16769 0,0.11974 -0.24212,0.16767 -0.48426,0.16767 -0.30732,0 -1.86251,0 -3.33391,-0.048 -0.40043,-0.0239 -0.73569,-0.0239 -0.73569,-0.14373 0,-0.0958 0.0465,-0.0958 0.13969,-0.14372 0.12106,-0.0478 0.33525,-0.21558 0.19557,-0.55094 l -1.89978,-4.6711 c -0.0465,-0.0958 -0.0651,-0.11973 -0.18626,-0.11973 l -4.87047,0 c -0.0932,0 -0.15832,0.0478 -0.2142,0.16767 l -1.19201,3.25779 c -0.19557,0.50304 -0.31662,1.00607 -0.31662,1.36539 0,0.40722 0.36319,0.55094 0.71706,0.55094 l 0.19557,0 c 0.16763,0 0.21418,0.0719 0.21418,0.16769 0,0.11974 -0.12106,0.16767 -0.3073,0.16767 -0.50289,0 -1.65765,-0.0719 -1.89978,-0.0719 -0.21419,0 -1.26651,0.0719 -2.12327,0.0719 -0.27007,0 -0.40975,-0.048 -0.40975,-0.16767 0,-0.0958 0.0932,-0.16769 0.18625,-0.16769 0.149,0 0.45632,-0.0239 0.62394,-0.0478 0.9592,-0.11974 1.36896,-0.83839 1.77871,-1.86843 l 4.9543,-12.75566"
           id="path9028"
           style="fill:#104221;fill-opacity:1;fill-rule:nonzero;stroke:none" />
        <path
           d="m 563.83661,835.13944 c 0,1.96425 0,3.56919 0.0932,4.40759 0.0745,0.59885 0.16763,0.98212 0.81952,1.07793 0.27937,0.048 0.76362,0.0958 0.94987,0.0958 0.14901,0 0.17695,0.0958 0.17695,0.16769 0,0.0958 -0.10246,0.16767 -0.34457,0.16767 -1.14545,0 -2.48646,-0.0719 -2.60753,-0.0719 -0.0932,0 -1.5552,0.0719 -2.17914,0.0719 -0.24213,0 -0.33525,-0.048 -0.33525,-0.16767 0,-0.0719 0.0465,-0.14373 0.16762,-0.14373 0.18625,0 0.42839,-0.048 0.62394,-0.0958 0.42838,-0.0958 0.54945,-0.50304 0.62395,-1.10189 0.0932,-0.8384 0.0932,-2.44334 0.0932,-4.40759 l 0,-8.56366 -3.04521,0.0599 c -1.31307,0.0239 -1.81596,0.16769 -2.13258,0.64677 -0.23282,0.35932 -0.26077,0.50305 -0.33527,0.63479 -0.0465,0.17966 -0.12106,0.19163 -0.21418,0.19163 -0.0465,0 -0.13969,-0.0359 -0.13969,-0.1557 0,-0.22757 0.42837,-2.03611 0.45632,-2.20379 0.0465,-0.1317 0.13969,-0.38326 0.21419,-0.38326 0.13968,0 0.35388,0.15569 0.93125,0.22755 0.59601,0.0719 1.41552,0.0958 1.64833,0.0958 l 7.96227,0 c 0.68913,0 1.17339,-0.0359 1.50864,-0.0958 0.30732,-0.0359 0.50289,-0.0839 0.59601,-0.0839 0.10246,0 0.10246,0.10778 0.10246,0.23955 0,0.62281 -0.0746,2.07203 -0.0746,2.32356 0,0.16768 -0.10246,0.26349 -0.19555,0.26349 -0.0932,0 -0.1397,-0.0719 -0.16763,-0.3593 l -0.0186,-0.2156 c -0.0746,-0.63478 -0.53082,-1.08992 -2.54234,-1.12585 l -2.63546,-0.0599 0,8.56366"
           id="path9030"
           style="fill:#104221;fill-opacity:1;fill-rule:nonzero;stroke:none" />
        <path
           d="m 574.13855,831.54629 c 0,-3.16197 0,-3.73687 -0.0465,-4.38364 -0.0465,-0.69466 -0.16764,-1.042 -0.86607,-1.12584 -0.16765,-0.0239 -0.52152,-0.0599 -0.71707,-0.0599 -0.0745,0 -0.16765,-0.0838 -0.16765,-0.15569 0,-0.1317 0.0932,-0.16768 0.33527,-0.16768 0.95919,0 2.31883,0.0359 2.43989,0.0359 0.149,0 4.55386,0.0239 5.0288,0 0.40976,-0.0239 0.79157,-0.0958 0.96851,-0.11973 0.0932,-0.012 0.18625,-0.0958 0.27938,-0.0958 0.0746,0 0.10247,0.0958 0.10247,0.19163 0,0.1557 -0.12107,0.38327 -0.16764,0.97015 -0.0279,0.17966 -0.0745,1.08992 -0.12106,1.34145 -0.0279,0.0958 -0.0932,0.21558 -0.19557,0.21558 -0.11177,0 -0.16763,-0.0958 -0.16763,-0.27548 0,-0.1317 -0.0186,-0.4671 -0.12107,-0.70665 -0.1397,-0.33536 -0.35389,-0.47909 -1.50865,-0.63479 -0.36318,-0.0359 -2.80308,-0.0599 -3.0359,-0.0599 -0.10246,0 -0.12107,0.0599 -0.12107,0.21558 l 0,5.53344 c 0,0.14373 0,0.2156 0.12107,0.2156 0.26075,0 3.0359,0 3.52016,-0.048 0.50288,-0.048 0.81019,-0.0719 1.02439,-0.28745 0.149,-0.14373 0.24212,-0.2635 0.31662,-0.2635 0.0745,0 0.12107,0.048 0.12107,0.16769 0,0.11973 -0.12107,0.45512 -0.16764,1.12584 -0.0558,0.40723 -0.0932,1.17376 -0.0932,1.31749 0,0.16768 -0.0559,0.38327 -0.19556,0.38327 -0.10246,0 -0.149,-0.0719 -0.149,-0.19164 0,-0.19163 0,-0.40723 -0.0932,-0.67072 -0.0746,-0.28745 -0.26076,-0.52699 -1.07096,-0.62281 -0.57737,-0.0719 -2.83102,-0.0958 -3.19422,-0.0958 -0.12107,0 -0.13969,0.0719 -0.13969,0.14372 l 0,1.70076 c 0,0.69466 -0.0279,3.06614 0,3.47337 0.0465,1.36539 0.42839,1.62888 2.5144,1.62888 0.54944,0 1.55521,0 2.10465,-0.21558 0.54944,-0.23954 0.83813,-0.59886 0.95919,-1.4133 0.0465,-0.23955 0.10247,-0.31141 0.21419,-0.31141 0.12107,0 0.14902,0.16768 0.14902,0.31141 0,0.14372 -0.16764,1.53307 -0.2887,1.96424 -0.13969,0.527 -0.36319,0.527 -1.17338,0.527 -1.58315,0 -2.8031,-0.0478 -3.66916,-0.0719 -0.88471,-0.0478 -1.43415,-0.0478 -1.75078,-0.0478 -0.0465,0 -0.45631,0 -0.90333,0.0239 -0.40975,0.0239 -0.894,0.048 -1.22926,0.048 -0.21418,0 -0.33525,-0.048 -0.33525,-0.16767 0,-0.0719 0.056,-0.16769 0.16763,-0.16769 0.19557,0 0.45632,-0.0719 0.65188,-0.0958 0.40045,-0.0719 0.45632,-0.47909 0.54945,-1.07794 0.12107,-0.8384 0.12107,-2.44334 0.12107,-4.40759 l 0,-3.59314"
           id="path9032"
           style="fill:#104221;fill-opacity:1;fill-rule:nonzero;stroke:none" />
        <path
           d="m 584.61363,840.76869 c -0.28869,-0.14373 -0.31662,-0.21558 -0.31662,-0.76654 0,-1.00607 0.10246,-1.82052 0.12107,-2.15588 0,-0.21559 0.0465,-0.33535 0.16763,-0.33535 0.12107,0 0.19557,0.0719 0.19557,0.23954 0,0.16767 0,0.45512 0.0652,0.74257 0.33525,1.48518 1.91839,2.01217 3.33391,2.01217 2.08601,0 3.15697,-1.17376 3.15697,-2.70683 0,-1.46122 -0.78227,-2.1559 -2.6541,-3.54524 l -0.95919,-0.71863 c -2.27227,-1.70075 -3.01728,-2.94637 -3.01728,-4.35968 0,-2.39544 1.89045,-3.84466 4.67492,-3.84466 0.83813,0 1.67627,0.11974 2.17915,0.23954 0.40044,0.0958 0.57737,0.0958 0.73569,0.0958 0.16762,0 0.2235,0.0239 0.2235,0.1557 0,0.0958 -0.10246,0.75456 -0.10246,2.15589 0,0.3114 -0.0186,0.45512 -0.16763,0.45512 -0.13969,0 -0.16762,-0.0958 -0.18625,-0.26349 -0.0279,-0.25153 -0.19557,-0.79049 -0.31662,-1.00609 -0.1397,-0.23954 -0.83814,-1.01805 -2.7286,-1.01805 -1.53657,0 -2.80309,0.77851 -2.80309,2.21578 0,1.29352 0.64257,2.03611 2.7379,3.4494 l 0.59601,0.40723 c 2.56096,1.74867 3.44566,3.16197 3.44566,4.91064 0,1.19771 -0.45632,2.49124 -1.96496,3.47337 -0.8847,0.5749 -2.20708,0.71862 -3.35254,0.71862 -0.98712,0 -2.20708,-0.14372 -3.06384,-0.55095"
           id="path9034"
           style="fill:#104221;fill-opacity:1;fill-rule:nonzero;stroke:none" />
      </g>
      <path
         d="m 269.23686,805.9635 c 0.17519,6.32679 0.89696,8.21942 3.06228,8.76017 1.45055,0.3605 3.2585,0.45063 3.98027,0.45063 0.35738,0 0.63068,0.27037 0.63068,0.63088 0,0.45963 -0.53958,0.63087 -1.44355,0.63087 -4.51985,0 -7.68023,-0.27037 -8.40201,-0.27037 -0.72177,0 -4.06436,0.27037 -7.68023,0.27037 -0.81287,0 -1.26135,-0.0901 -1.26135,-0.63087 0,-0.36051 0.26628,-0.63088 0.63067,-0.63088 0.63068,0 2.07423,-0.0901 3.25149,-0.45063 1.98312,-0.54075 2.26342,-2.62264 2.26342,-9.5713 l 0,-43.99014 c 0,-3.07327 0.44848,-3.88439 1.07916,-3.88439 0.90397,0 2.25642,1.53212 3.06929,2.35226 1.26836,1.26176 12.83076,13.54583 25.11493,26.1904 7.85542,8.1293 16.34852,17.24997 18.78714,19.78249 l -0.81287,-38.48348 c -0.0911,-4.9659 -0.54659,-6.67828 -2.9852,-7.1289 -1.44355,-0.27939 -3.25149,-0.36051 -3.88217,-0.36051 -0.53957,0 -0.63067,-0.45963 -0.63067,-0.73001 0,-0.45063 0.63067,-0.54075 1.53464,-0.54075 3.60887,0 7.40694,0.18025 8.31091,0.18025 0.90397,0 3.52478,-0.18025 6.77627,-0.18025 0.80586,0 1.44354,0.0901 1.44354,0.54075 0,0.27038 -0.36439,0.73001 -0.90396,0.73001 -0.3644,0 -0.99507,0 -1.89904,0.17124 -2.6138,0.54977 -2.796,2.0819 -2.796,6.6873 l -0.18219,44.98151 c 0,5.05603 -0.0911,5.51567 -0.63068,5.51567 -0.81287,0 -1.62574,-0.63989 -6.05449,-4.69553 -0.81287,-0.73001 -12.28417,-12.02271 -20.68618,-20.78288 -9.21488,-9.66143 -18.15646,-19.05248 -20.59508,-21.76525 l 0.91098,36.22134 z m -47.79123,-25.37927 c 0,-11.92358 0,-14.09559 -0.1822,-16.53799 -0.1822,-2.61363 -0.63068,-3.87538 -3.25149,-4.2449 -0.63067,-0.0901 -1.99013,-0.17124 -2.7049,-0.17124 -0.27329,0 -0.63768,-0.36951 -0.63768,-0.63988 0,-0.45063 0.36439,-0.63088 1.26836,-0.63088 3.60887,0 8.75939,0.18025 9.20787,0.18025 0.54659,0 17.16841,0.0901 18.97635,0 1.52763,-0.0901 2.97819,-0.3605 3.60886,-0.45063 0.35739,-0.0901 0.72178,-0.3605 1.08617,-0.3605 0.26628,0 0.35738,0.3605 0.35738,0.721 0,0.54076 -0.44848,1.44201 -0.63067,3.61403 -0.0911,0.721 -0.2733,4.15477 -0.45549,5.05602 -0.0841,0.3605 -0.35739,0.81113 -0.71477,0.81113 -0.45549,0 -0.63768,-0.3605 -0.63768,-0.99138 0,-0.54075 -0.0911,-1.8025 -0.44848,-2.70376 -0.53958,-1.27076 -1.35946,-1.81151 -5.6901,-2.35226 -1.35946,-0.18025 -10.56733,-0.27038 -11.4713,-0.27038 -0.36439,0 -0.45549,0.27038 -0.45549,0.81113 l 0,20.86399 c 0,0.54075 0,0.82014 0.45549,0.82014 0.98806,0 11.4713,0 13.27924,-0.18926 1.89202,-0.18025 3.06929,-0.27038 3.88216,-1.0815 0.53958,-0.54076 0.90397,-0.99138 1.17025,-0.99138 0.27329,0 0.45549,0.18025 0.45549,0.63088 0,0.45062 -0.45549,1.71238 -0.63068,4.24489 -0.18219,1.53213 -0.36439,4.42515 -0.36439,4.96591 0,0.63989 -0.18219,1.45101 -0.72177,1.45101 -0.36439,0 -0.54659,-0.27037 -0.54659,-0.73001 0,-0.721 0,-1.53213 -0.35738,-2.52351 -0.27329,-1.0815 -0.99507,-1.99177 -4.06436,-2.35227 -2.16532,-0.27037 -10.65842,-0.3605 -12.01087,-0.3605 -0.45549,0 -0.54659,0.27038 -0.54659,0.54075 l 0,6.41692 c 0,2.61363 -0.0911,11.56307 0,13.0952 0.1822,5.14615 1.62574,6.14654 9.48817,6.14654 2.07423,0 5.8723,0 7.94652,-0.82014 2.07423,-0.90125 3.16039,-2.25313 3.61588,-5.3264 0.17519,-0.90125 0.35738,-1.17163 0.81287,-1.17163 0.44848,0 0.53958,0.63088 0.53958,1.17163 0,0.54075 -0.63068,5.78604 -1.08617,7.4083 -0.53957,1.98275 -1.35245,1.98275 -4.42174,1.98275 -5.96339,0 -10.56733,-0.18025 -13.81881,-0.27037 -3.34258,-0.18025 -5.42382,-0.18025 -6.60108,-0.18025 -0.17519,0 -1.70983,0 -3.42667,0.0991 -1.53465,0.0811 -3.34259,0.17124 -4.61094,0.17124 -0.81288,0 -1.26136,-0.17124 -1.26136,-0.63087 0,-0.27038 0.17519,-0.63088 0.63068,-0.63088 0.72177,0 1.71684,-0.27038 2.43861,-0.3605 1.53465,-0.27038 1.71684,-1.80251 2.08123,-4.06465 0.44849,-3.1634 0.44849,-9.2108 0.44849,-16.6191 l 0,-13.54582 z m -48.86339,0 c 0,-11.92358 0,-14.09559 -0.18219,-16.53799 -0.1822,-2.61363 -0.63068,-3.87538 -3.25149,-4.2449 -0.63068,-0.0901 -1.99013,-0.17124 -2.71191,-0.17124 -0.27329,0 -0.63067,-0.36951 -0.63067,-0.63988 0,-0.45063 0.35738,-0.63088 1.26135,-0.63088 3.61587,0 8.7664,0.18025 9.21488,0.18025 0.53958,0 17.1614,0.0901 18.96933,0 1.53465,-0.0901 2.9782,-0.3605 3.61588,-0.45063 0.35738,-0.0901 0.72177,-0.3605 1.08616,-0.3605 0.26629,0 0.35739,0.3605 0.35739,0.721 0,0.54076 -0.45549,1.44201 -0.63068,3.61403 -0.0911,0.721 -0.27329,4.15477 -0.45549,5.05602 -0.0911,0.3605 -0.35738,0.81113 -0.72177,0.81113 -0.44848,0 -0.63068,-0.3605 -0.63068,-0.99138 0,-0.54075 -0.0911,-1.8025 -0.45549,-2.70376 -0.53957,-1.27076 -1.35245,-1.81151 -5.6901,-2.35226 -1.35245,-0.18025 -10.56732,-0.27038 -11.47129,-0.27038 -0.35739,0 -0.44848,0.27038 -0.44848,0.81113 l 0,20.86399 c 0,0.54075 0,0.82014 0.44848,0.82014 0.99506,0 11.47129,0 13.27923,-0.18926 1.89904,-0.18025 3.0763,-0.27038 3.88216,-1.0815 0.54659,-0.54076 0.90397,-0.99138 1.17727,-0.99138 0.27329,0 0.44848,0.18025 0.44848,0.63088 0,0.45062 -0.44848,1.71238 -0.63069,4.24489 -0.18218,1.53213 -0.35738,4.42515 -0.35738,4.96591 0,0.63989 -0.1822,1.45101 -0.72178,1.45101 -0.36438,0 -0.54658,-0.27037 -0.54658,-0.73001 0,-0.721 0,-1.53213 -0.35738,-2.52351 -0.2733,-1.0815 -0.99507,-1.99177 -4.06436,-2.35227 -2.17233,-0.27037 -10.65843,-0.3605 -12.01789,-0.3605 -0.44847,0 -0.53957,0.27038 -0.53957,0.54075 l 0,6.41692 c 0,2.61363 -0.0911,11.56307 0,13.0952 0.18219,5.14615 1.62574,6.14654 9.48116,6.14654 2.08123,0 5.8723,0 7.94652,-0.82014 2.08123,-0.90125 3.1674,-2.25313 3.61588,-5.3264 0.18219,-0.90125 0.36439,-1.17163 0.81287,-1.17163 0.45549,0 0.54658,0.63088 0.54658,1.17163 0,0.54075 -0.63768,5.78604 -1.08616,7.4083 -0.53958,1.98275 -1.35245,1.98275 -4.42875,1.98275 -5.95638,0 -10.56733,-0.18025 -13.81881,-0.27037 -3.34259,-0.18025 -5.41681,-0.18025 -6.59407,-0.18025 -0.18219,0 -1.71683,0 -3.43368,0.0991 -1.53465,0.0811 -3.34259,0.17124 -4.60394,0.17124 -0.81287,0 -1.26134,-0.17124 -1.26134,-0.63087 0,-0.27038 0.17518,-0.63088 0.63067,-0.63088 0.72178,0 1.71684,-0.27038 2.43861,-0.3605 1.53464,-0.27038 1.71684,-1.80251 2.07422,-4.06465 0.45549,-3.1634 0.45549,-9.2108 0.45549,-16.6191 l 0,-13.54582 z m -52.93475,6.49803 c 0,0.45062 0.18219,0.721 0.54658,1.00039 1.17026,0.62186 5.23461,1.17162 8.75939,1.17162 1.89904,0 4.06436,-0.0901 5.9634,-1.36089 2.7049,-1.8025 4.78613,-5.86715 4.78613,-11.74332 0,-9.5713 -5.24162,-15.07795 -13.72772,-15.07795 -2.35452,0 -4.88424,0.27037 -5.69711,0.45062 -0.35738,0.18026 -0.63067,0.45063 -0.63067,0.90126 l 0,24.65827 z m -6.86036,-6.49803 c 0,-11.92358 0,-14.09559 -0.18219,-16.53799 -0.1822,-2.61363 -0.63068,-3.87538 -3.25149,-4.2449 -0.63068,-0.0901 -1.99013,-0.17124 -2.71191,-0.17124 -0.26628,0 -0.63067,-0.36951 -0.63067,-0.63988 0,-0.45063 0.36439,-0.63088 1.26135,-0.63088 3.61588,0 8.94159,0.18025 9.39707,0.18025 0.81288,0 7.49804,-0.18025 9.93666,-0.18025 5.05942,0 10.65843,0.45062 14.81388,3.34365 1.98313,1.442 5.50791,5.14615 5.50791,10.48156 0,5.6869 -2.34752,11.19356 -9.75446,17.52035 6.50297,8.1293 12.01088,15.07795 16.62182,19.87262 4.23954,4.33502 6.86035,5.05603 8.85049,5.3264 1.53464,0.27038 2.34751,0.27038 2.796,0.27038 0.45548,0 0.72177,0.3605 0.72177,0.63088 0,0.45963 -0.44848,0.63087 -1.89203,0.63087 l -4.96833,0 c -4.51283,0 -6.50297,-0.45062 -8.4931,-1.53213 -3.43368,-1.8025 -6.32078,-5.50665 -10.84062,-11.29269 -3.33558,-4.15478 -6.86036,-9.12068 -8.5772,-11.20257 -0.36439,-0.3605 -0.53958,-0.45063 -1.08617,-0.45063 l -10.11184,-0.18025 c -0.36439,0 -0.54658,0.18025 -0.54658,0.63088 l 0,1.81152 c 0,7.40829 0,13.36557 0.36439,16.52897 0.26628,2.26214 0.72177,3.70415 3.16039,4.06465 1.08616,0.18025 2.803,0.3605 3.52477,0.3605 0.53958,0 0.63068,0.3605 0.63068,0.63088 0,0.3605 -0.36439,0.63087 -1.26836,0.63087 -4.33064,0 -9.39007,-0.27037 -9.75446,-0.27037 -0.0911,0 -5.4168,0.27037 -7.85542,0.27037 -0.81287,0 -1.26135,-0.17124 -1.26135,-0.63087 0,-0.27038 0.17519,-0.63088 0.63067,-0.63088 0.72178,0 1.70984,-0.18025 2.43862,-0.3605 1.53465,-0.3605 1.71684,-1.80251 2.07422,-4.06465 0.45549,-3.1634 0.45549,-9.2108 0.45549,-16.6191 l 0,-13.54582 z m -26.08056,12.82482 c 0,-7.31817 -0.451984,-8.30955 -4.065058,-9.30093 -0.722474,-0.18926 -2.258521,-0.27939 -3.070692,-0.27939 -0.360886,0 -0.725277,-0.18025 -0.725277,-0.54075 0,-0.54075 0.452685,-0.721 1.447752,-0.721 4.063656,0 9.754457,0.27038 10.206442,0.27038 0.451284,0 6.141384,-0.27038 8.850488,-0.27038 0.995065,0 1.446355,0.18025 1.446355,0.721 0,0.3605 -0.36229,0.54075 -0.72248,0.54075 -0.631376,0 -1.173757,0.0901 -2.257819,0.27939 -2.440016,0.44162 -3.16179,1.98276 -3.342584,5.14615 -0.180794,2.89302 -0.180794,5.59678 -0.180794,9.39106 l 0,10.12106 c 0,4.05564 -0.0897,4.2449 -1.172356,4.87578 -5.7833,3.07327 -13.910613,4.06465 -19.150831,4.06465 -6.86526,0 -19.69111,-0.91027 -29.716759,-9.66143 -5.510007,-4.79466 -10.748823,-14.45609 -10.748823,-25.74879 0,-14.44707 7.046054,-24.65826 15.085072,-29.71429 8.128014,-5.06504 17.071001,-5.69592 24.027359,-5.69592 5.6901,0 12.101974,1.18064 13.818114,1.54115 1.896934,0.45062 5.058723,0.81112 7.316544,0.90125 0.903268,0.0901 1.084763,0.45062 1.084763,0.81113 0,1.26175 -0.632779,3.79427 -0.632779,12.82482 0,1.45102 -0.181494,1.90164 -0.812871,1.90164 -0.451985,0 -0.542382,-0.54075 -0.632779,-1.36089 -0.08899,-1.26175 -0.542381,-3.79427 -1.896232,-5.95728 -2.259222,-3.43377 -9.575066,-7.31817 -21.227858,-7.31817 -5.6901,0 -12.464963,0.54075 -19.328822,5.96629 -5.240218,4.15478 -8.942286,12.3742 -8.942286,22.93688 0,12.7347 6.413976,21.95451 9.573663,25.01877 7.137152,6.95767 15.356964,9.67044 23.666472,9.67044 3.250785,0 7.948621,-0.54976 10.296839,-1.90164 1.173758,-0.63088 1.807237,-1.62226 1.807237,-3.15439 l 0,-15.35734"
         id="path9036"
         style="fill:#104221;fill-opacity:1;fill-rule:nonzero;stroke:none" />
      <g
         id="g24362">
        <path
           d="m 356.61887,774.82359 c 0,-14.08657 0,-16.61909 -0.1822,-19.51211 -0.18219,-3.07327 -0.89696,-4.51528 -3.88216,-5.14615 -0.72177,-0.18025 -2.25642,-0.27038 -3.0693,-0.27038 -0.36439,0 -0.72176,-0.18025 -0.72176,-0.54075 0,-0.54977 0.44848,-0.721 1.44353,-0.721 4.06437,0 9.48818,0.27037 10.20995,0.27037 1.98313,0 7.22474,-0.27037 11.3802,-0.27037 11.28911,0 15.35346,3.78526 16.80401,5.14615 1.98314,1.89263 4.51284,5.95728 4.51284,10.74293 0,12.83383 -9.39707,21.50389 -22.22082,21.50389 -0.45549,0 -1.44355,0 -1.89904,-0.0901 -0.44848,0 -0.98805,-0.18025 -0.98805,-0.63989 0,-0.721 0.53957,-0.81113 2.4316,-0.81113 8.7664,0 15.63376,-6.4079 15.63376,-14.71745 0,-2.98315 -0.27329,-9.03055 -5.05942,-13.91534 -4.79314,-4.87578 -10.30104,-4.51528 -12.37527,-4.51528 -1.53464,0 -3.06929,0.18025 -3.88917,0.54076 -0.53958,0.18025 -0.72176,0.82014 -0.72176,1.72139 l 0,37.12259 c 0,8.67005 0,15.80797 0.45549,19.60224 0.26627,2.61363 0.81286,4.6054 3.52478,4.9659 1.26135,0.18025 3.24447,0.3605 4.05734,0.3605 0.54659,0 0.72879,0.27038 0.72879,0.54076 0,0.45062 -0.45549,0.721 -1.45056,0.721 -4.96832,0 -10.65843,-0.27038 -11.10691,-0.27038 -0.27329,0 -5.96339,0.27038 -8.6753,0.27038 -0.98806,0 -1.44354,-0.18025 -1.44354,-0.721 0,-0.27038 0.18219,-0.54076 0.72177,-0.54076 0.81287,0 1.89904,-0.18025 2.71191,-0.3605 1.80793,-0.3605 2.25642,-2.35227 2.62081,-4.9659 0.44848,-3.79427 0.44848,-10.93219 0.44848,-19.60224 l 0,-15.8981"
           id="path9038"
           style="fill:#528c18;fill-opacity:1;fill-rule:nonzero;stroke:none" />
        <path
           d="m 356.61887,774.82359 c 0,-14.08657 0,-16.61909 -0.1822,-19.51211 -0.18219,-3.07327 -0.89696,-4.51528 -3.88216,-5.14615 -0.72177,-0.18025 -2.25642,-0.27038 -3.0693,-0.27038 -0.36439,0 -0.72176,-0.18025 -0.72176,-0.54075 0,-0.54977 0.44848,-0.721 1.44353,-0.721 4.06437,0 9.48818,0.27037 10.20995,0.27037 1.98313,0 7.22474,-0.27037 11.3802,-0.27037 11.28911,0 15.35346,3.78526 16.80401,5.14615 1.98314,1.89263 4.51284,5.95728 4.51284,10.74293 0,12.83383 -9.39707,21.50389 -22.22082,21.50389 -0.45549,0 -1.44355,0 -1.89904,-0.0901 -0.44848,0 -0.98805,-0.18025 -0.98805,-0.63989 0,-0.721 0.53957,-0.81113 2.4316,-0.81113 8.7664,0 15.63376,-6.4079 15.63376,-14.71745 0,-2.98315 -0.27329,-9.03055 -5.05942,-13.91534 -4.79314,-4.87578 -10.30104,-4.51528 -12.37527,-4.51528 -1.53464,0 -3.06929,0.18025 -3.88917,0.54076 -0.53958,0.18025 -0.72176,0.82014 -0.72176,1.72139 l 0,37.12259 c 0,8.67005 0,15.80797 0.45549,19.60224 0.26627,2.61363 0.81286,4.6054 3.52478,4.9659 1.26135,0.18025 3.24447,0.3605 4.05734,0.3605 0.54659,0 0.72879,0.27038 0.72879,0.54076 0,0.45062 -0.45549,0.721 -1.45056,0.721 -4.96832,0 -10.65843,-0.27038 -11.10691,-0.27038 -0.27329,0 -5.96339,0.27038 -8.6753,0.27038 -0.98806,0 -1.44354,-0.18025 -1.44354,-0.721 0,-0.27038 0.18219,-0.54076 0.72177,-0.54076 0.81287,0 1.89904,-0.18025 2.71191,-0.3605 1.80793,-0.3605 2.25642,-2.35227 2.62081,-4.9659 0.44848,-3.79427 0.44848,-10.93219 0.44848,-19.60224 l 0,-15.8981 z"
           id="path9040"
           style="fill:none;stroke:#528c18;stroke-width:1.58940732;stroke-linecap:round;stroke-linejoin:round;stroke-miterlimit:4;stroke-opacity:1;stroke-dasharray:none" />
        <path
           d="m 423.64573,792.34395 c 0.36439,0 0.36439,-0.18026 0.2733,-0.54076 l -7.85542,-21.04424 c -0.45549,-1.17163 -0.90397,-1.17163 -1.35946,0 l -7.40694,21.04424 c -0.0911,0.3605 0,0.54076 0.27328,0.54076 l 16.07523,0 z m -8.85048,-31.97645 c 0.99506,-2.5235 1.35944,-2.97413 1.89902,-2.97413 0.81287,0 1.07916,1.0815 1.89905,2.79388 1.44355,3.25353 14.17619,34.95959 19.05342,46.61279 2.89411,6.86754 5.05943,7.85892 6.77627,8.39967 1.17025,0.3605 2.34752,0.45062 3.16039,0.45062 0.45549,0 0.99506,0.18026 0.99506,0.63088 0,0.45063 -0.90397,0.63088 -1.80793,0.63088 -1.17727,0 -7.04255,0 -12.55747,-0.18025 -1.53464,-0.0901 -2.79599,-0.0901 -2.79599,-0.54075 0,-0.3605 0.18219,-0.3605 0.53957,-0.54076 0.45549,-0.18025 1.26836,-0.81112 0.72178,-2.07288 l -7.13365,-17.61948 c -0.1822,-0.3605 -0.27329,-0.45063 -0.72177,-0.45063 l -18.33866,0 c -0.35739,0 -0.63068,0.18025 -0.81288,0.63088 l -4.51283,12.28407 c -0.72178,1.90164 -1.17727,3.79427 -1.17727,5.15516 0,1.53213 1.35245,2.07288 2.71191,2.07288 l 0.72178,0 c 0.63067,0 0.81287,0.27038 0.81287,0.63088 0,0.45063 -0.44848,0.63088 -1.17726,0.63088 -1.89203,0 -6.22968,-0.27038 -7.13365,-0.27038 -0.81287,0 -4.78613,0.27038 -8.03762,0.27038 -0.99507,0 -1.53464,-0.18025 -1.53464,-0.63088 0,-0.3605 0.35738,-0.63088 0.72177,-0.63088 0.53958,0 1.71684,-0.0901 2.34751,-0.18025 3.61587,-0.45062 5.15053,-3.16339 6.68516,-7.04779 l 18.69606,-48.05479"
           id="path9042"
           style="fill:#528c18;fill-opacity:1;fill-rule:nonzero;stroke:none" />
        <path
           d="m 423.64573,792.34395 c 0.36439,0 0.36439,-0.18026 0.2733,-0.54076 l -7.85542,-21.04424 c -0.45549,-1.17163 -0.90397,-1.17163 -1.35946,0 l -7.40694,21.04424 c -0.0911,0.3605 0,0.54076 0.27328,0.54076 l 16.07523,0 z m -8.85048,-31.97645 c 0.99506,-2.5235 1.35944,-2.97413 1.89902,-2.97413 0.81287,0 1.07916,1.0815 1.89905,2.79388 1.44355,3.25353 14.17619,34.95959 19.05342,46.61279 2.89411,6.86754 5.05943,7.85892 6.77627,8.39967 1.17025,0.3605 2.34752,0.45062 3.16039,0.45062 0.45549,0 0.99506,0.18026 0.99506,0.63088 0,0.45063 -0.90397,0.63088 -1.80793,0.63088 -1.17727,0 -7.04255,0 -12.55747,-0.18025 -1.53464,-0.0901 -2.79599,-0.0901 -2.79599,-0.54075 0,-0.3605 0.18219,-0.3605 0.53957,-0.54076 0.45549,-0.18025 1.26836,-0.81112 0.72178,-2.07288 l -7.13365,-17.61948 c -0.1822,-0.3605 -0.27329,-0.45063 -0.72177,-0.45063 l -18.33866,0 c -0.35739,0 -0.63068,0.18025 -0.81288,0.63088 l -4.51283,12.28407 c -0.72178,1.90164 -1.17727,3.79427 -1.17727,5.15516 0,1.53213 1.35245,2.07288 2.71191,2.07288 l 0.72178,0 c 0.63067,0 0.81287,0.27038 0.81287,0.63088 0,0.45063 -0.44848,0.63088 -1.17726,0.63088 -1.89203,0 -6.22968,-0.27038 -7.13365,-0.27038 -0.81287,0 -4.78613,0.27038 -8.03762,0.27038 -0.99507,0 -1.53464,-0.18025 -1.53464,-0.63088 0,-0.3605 0.35738,-0.63088 0.72177,-0.63088 0.53958,0 1.71684,-0.0901 2.34751,-0.18025 3.61587,-0.45062 5.15053,-3.16339 6.68516,-7.04779 l 18.69606,-48.05479 z"
           id="path9044"
           style="fill:none;stroke:#528c18;stroke-width:1.58940732;stroke-linecap:round;stroke-linejoin:round;stroke-miterlimit:4;stroke-opacity:1;stroke-dasharray:none" />
        <path
           d="m 465.01809,787.55829 c 0,0.45063 0.17519,0.72101 0.53958,0.99138 1.17726,0.63088 5.24162,1.18064 8.75939,1.18064 1.89903,0 4.06435,-0.0991 5.96339,-1.36089 2.71191,-1.8025 4.78613,-5.86715 4.78613,-11.74332 0,-9.5713 -5.23461,-15.07796 -13.72772,-15.07796 -2.34751,0 -4.87722,0.27038 -5.6901,0.45063 -0.36439,0.18025 -0.63067,0.45063 -0.63067,0.90125 l 0,24.65827 z m -6.86736,-6.50704 c 0,-11.91456 0,-14.08658 -0.18221,-16.52897 -0.17519,-2.61363 -0.63068,-3.8844 -3.25149,-4.2449 -0.63067,-0.0901 -1.98311,-0.18025 -2.7119,-0.18025 -0.2663,0 -0.63068,-0.3605 -0.63068,-0.63088 0,-0.45062 0.3644,-0.63088 1.26835,-0.63088 3.60888,0 8.9416,0.18026 9.39709,0.18026 0.80586,0 7.49104,-0.18026 9.92964,-0.18026 5.05942,0 10.65843,0.45063 14.81388,3.34365 1.99014,1.44201 5.5079,5.14615 5.5079,10.47256 0,5.69591 -2.34751,11.20257 -9.74745,17.52936 6.50297,8.1293 12.01087,15.07795 16.61481,19.87262 4.24655,4.33502 6.86736,5.05602 8.85049,5.3264 1.54165,0.27037 2.35452,0.27037 2.803,0.27037 0.45549,0 0.72178,0.36051 0.72178,0.63088 0,0.45063 -0.44848,0.63088 -1.89904,0.63088 l -4.96132,0 c -4.51984,0 -6.50998,-0.44162 -8.4931,-1.53213 -3.43368,-1.80251 -6.32078,-5.50665 -10.84063,-11.29269 -3.34258,-4.15478 -6.86736,-9.12068 -8.57719,-11.20257 -0.36439,-0.3605 -0.54659,-0.45063 -1.08617,-0.45063 l -10.11884,-0.18025 c -0.36439,0 -0.53958,0.18025 -0.53958,0.63088 l 0,1.81151 c 0,7.39929 0,13.36558 0.3644,16.52898 0.26628,2.25313 0.71476,3.70414 3.15339,4.06464 1.08616,0.18025 2.803,0.3605 3.52478,0.3605 0.54658,0 0.63067,0.36051 0.63067,0.63088 0,0.3605 -0.35738,0.63088 -1.26135,0.63088 -4.33765,0 -9.39006,-0.27038 -9.75446,-0.27038 -0.0911,0 -5.42381,0.27038 -7.85542,0.27038 -0.81988,0 -1.26836,-0.18025 -1.26836,-0.63088 0,-0.27037 0.1822,-0.63088 0.63068,-0.63088 0.72177,0 1.71684,-0.18025 2.43861,-0.3605 1.54166,-0.3605 1.71684,-1.81151 2.08124,-4.06464 0.44848,-3.1634 0.44848,-9.21081 0.44848,-16.6191 l 0,-13.55484"
           id="path9046"
           style="fill:#528c18;fill-opacity:1;fill-rule:nonzero;stroke:none" />
        <path
           d="m 465.01809,787.55829 c 0,0.45063 0.17519,0.72101 0.53958,0.99138 1.17726,0.63088 5.24162,1.18064 8.75939,1.18064 1.89903,0 4.06435,-0.0991 5.96339,-1.36089 2.71191,-1.8025 4.78613,-5.86715 4.78613,-11.74332 0,-9.5713 -5.23461,-15.07796 -13.72772,-15.07796 -2.34751,0 -4.87722,0.27038 -5.6901,0.45063 -0.36439,0.18025 -0.63067,0.45063 -0.63067,0.90125 l 0,24.65827 z m -6.86736,-6.50704 c 0,-11.91456 0,-14.08658 -0.18221,-16.52897 -0.17519,-2.61363 -0.63068,-3.8844 -3.25149,-4.2449 -0.63067,-0.0901 -1.98311,-0.18025 -2.7119,-0.18025 -0.2663,0 -0.63068,-0.3605 -0.63068,-0.63088 0,-0.45062 0.3644,-0.63088 1.26835,-0.63088 3.60888,0 8.9416,0.18026 9.39709,0.18026 0.80586,0 7.49104,-0.18026 9.92964,-0.18026 5.05942,0 10.65843,0.45063 14.81388,3.34365 1.99014,1.44201 5.5079,5.14615 5.5079,10.47256 0,5.69591 -2.34751,11.20257 -9.74745,17.52936 6.50297,8.1293 12.01087,15.07795 16.61481,19.87262 4.24655,4.33502 6.86736,5.05602 8.85049,5.3264 1.54165,0.27037 2.35452,0.27037 2.803,0.27037 0.45549,0 0.72178,0.36051 0.72178,0.63088 0,0.45063 -0.44848,0.63088 -1.89904,0.63088 l -4.96132,0 c -4.51984,0 -6.50998,-0.44162 -8.4931,-1.53213 -3.43368,-1.80251 -6.32078,-5.50665 -10.84063,-11.29269 -3.34258,-4.15478 -6.86736,-9.12068 -8.57719,-11.20257 -0.36439,-0.3605 -0.54659,-0.45063 -1.08617,-0.45063 l -10.11884,-0.18025 c -0.36439,0 -0.53958,0.18025 -0.53958,0.63088 l 0,1.81151 c 0,7.39929 0,13.36558 0.3644,16.52898 0.26628,2.25313 0.71476,3.70414 3.15339,4.06464 1.08616,0.18025 2.803,0.3605 3.52478,0.3605 0.54658,0 0.63067,0.36051 0.63067,0.63088 0,0.3605 -0.35738,0.63088 -1.26135,0.63088 -4.33765,0 -9.39006,-0.27038 -9.75446,-0.27038 -0.0911,0 -5.42381,0.27038 -7.85542,0.27038 -0.81988,0 -1.26836,-0.18025 -1.26836,-0.63088 0,-0.27037 0.1822,-0.63088 0.63068,-0.63088 0.72177,0 1.71684,-0.18025 2.43861,-0.3605 1.54166,-0.3605 1.71684,-1.81151 2.08124,-4.06464 0.44848,-3.1634 0.44848,-9.21081 0.44848,-16.6191 l 0,-13.55484 z"
           id="path9048"
           style="fill:none;stroke:#528c18;stroke-width:1.58940732;stroke-linecap:round;stroke-linejoin:round;stroke-miterlimit:4;stroke-opacity:1;stroke-dasharray:none" />
        <path
           d="m 531.13396,794.60609 c 0,7.40829 0,13.4557 0.3644,16.6191 0.26627,2.25313 0.63068,3.70414 3.06929,4.06464 1.08616,0.18025 2.88709,0.3605 3.61588,0.3605 0.53957,0 0.63067,0.36051 0.63067,0.63088 0,0.3605 -0.36439,0.63088 -1.26836,0.63088 -4.33765,0 -9.39006,-0.27038 -9.83855,-0.27038 -0.36439,0 -5.87229,0.27038 -8.22681,0.27038 -0.89697,0 -1.26136,-0.18025 -1.26136,-0.63088 0,-0.27037 0.1822,-0.54075 0.63068,-0.54075 0.72177,0 1.62574,-0.18025 2.34751,-0.3605 1.62575,-0.3605 2.08123,-1.90164 2.34752,-4.15477 0.36439,-3.1634 0.36439,-9.21081 0.36439,-16.6191 l 0,-32.24682 -11.47129,0.18025 c -4.96833,0.0901 -6.86036,0.63088 -8.03762,2.4424 -0.90397,1.35188 -0.99507,1.89263 -1.26836,2.43338 -0.1822,0.63088 -0.44848,0.721 -0.81287,0.721 -0.17519,0 -0.53958,-0.18025 -0.53958,-0.63088 0,-0.81112 1.62574,-7.67867 1.71684,-8.30954 0.18219,-0.45063 0.53958,-1.44201 0.81287,-1.44201 0.53958,0 1.35245,0.63088 3.52478,0.90125 2.25642,0.27038 5.32571,0.36051 6.22968,0.36051 l 29.98513,0 c 2.62082,0 4.42876,-0.18026 5.69712,-0.36051 1.17026,-0.18025 1.89203,-0.3605 2.25641,-0.3605 0.35739,0 0.35739,0.45063 0.35739,0.90126 0,2.35226 -0.26629,7.85892 -0.26629,8.76017 0,0.63088 -0.36438,1.00039 -0.72177,1.00039 -0.36439,0 -0.54658,-0.27939 -0.6377,-1.36089 l -0.0841,-0.81113 c -0.27329,-2.35227 -1.99013,-4.06465 -9.57928,-4.2449 l -9.93664,-0.18025 0,32.24682"
           id="path9050"
           style="fill:#528c18;fill-opacity:1;fill-rule:nonzero;stroke:none" />
        <path
           d="m 531.13396,794.60609 c 0,7.40829 0,13.4557 0.3644,16.6191 0.26627,2.25313 0.63068,3.70414 3.06929,4.06464 1.08616,0.18025 2.88709,0.3605 3.61588,0.3605 0.53957,0 0.63067,0.36051 0.63067,0.63088 0,0.3605 -0.36439,0.63088 -1.26836,0.63088 -4.33765,0 -9.39006,-0.27038 -9.83855,-0.27038 -0.36439,0 -5.87229,0.27038 -8.22681,0.27038 -0.89697,0 -1.26136,-0.18025 -1.26136,-0.63088 0,-0.27037 0.1822,-0.54075 0.63068,-0.54075 0.72177,0 1.62574,-0.18025 2.34751,-0.3605 1.62575,-0.3605 2.08123,-1.90164 2.34752,-4.15477 0.36439,-3.1634 0.36439,-9.21081 0.36439,-16.6191 l 0,-32.24682 -11.47129,0.18025 c -4.96833,0.0901 -6.86036,0.63088 -8.03762,2.4424 -0.90397,1.35188 -0.99507,1.89263 -1.26836,2.43338 -0.1822,0.63088 -0.44848,0.721 -0.81287,0.721 -0.17519,0 -0.53958,-0.18025 -0.53958,-0.63088 0,-0.81112 1.62574,-7.67867 1.71684,-8.30954 0.18219,-0.45063 0.53958,-1.44201 0.81287,-1.44201 0.53958,0 1.35245,0.63088 3.52478,0.90125 2.25642,0.27038 5.32571,0.36051 6.22968,0.36051 l 29.98513,0 c 2.62082,0 4.42876,-0.18026 5.69712,-0.36051 1.17026,-0.18025 1.89203,-0.3605 2.25641,-0.3605 0.35739,0 0.35739,0.45063 0.35739,0.90126 0,2.35226 -0.26629,7.85892 -0.26629,8.76017 0,0.63088 -0.36438,1.00039 -0.72177,1.00039 -0.36439,0 -0.54658,-0.27939 -0.6377,-1.36089 l -0.0841,-0.81113 c -0.27329,-2.35227 -1.99013,-4.06465 -9.57928,-4.2449 l -9.93664,-0.18025 0,32.24682 z"
           id="path9052"
           style="fill:none;stroke:#528c18;stroke-width:1.58940732;stroke-linecap:round;stroke-linejoin:round;stroke-miterlimit:4;stroke-opacity:1;stroke-dasharray:none" />
        <path
           d="m 578.82709,796.94935 c 0,-4.15478 -0.53958,-5.68691 -1.71684,-7.85893 -0.63068,-1.17162 -11.3802,-18.24135 -14.09211,-22.306 -1.89904,-2.89302 -3.79106,-4.6054 -5.23461,-5.59678 -1.17726,-0.73001 -2.71191,-1.09051 -3.34258,-1.09051 -0.45549,0 -0.81288,-0.3605 -0.81288,-0.721 0,-0.3605 0.26629,-0.54076 0.98806,-0.54076 1.53466,0 7.49804,0.18026 7.86243,0.18026 0.53958,0 3.79107,-0.18026 6.86037,-0.18026 0.90396,0 1.08615,0.18026 1.08615,0.54076 0,0.27037 -0.53958,0.54075 -1.26135,0.81112 -0.63768,0.27038 -0.99507,0.63088 -0.99507,1.27077 0,1.0815 0.53958,1.98276 1.07916,2.97413 l 14.4565,23.93727 c 1.62573,-3.25352 11.56239,-19.69237 13.00594,-22.21587 0.99507,-1.7214 1.35245,-2.98315 1.35245,-3.97453 0,-1.09051 -0.35739,-1.72139 -1.26135,-1.99177 -0.72178,-0.18025 -1.17727,-0.54075 -1.17727,-0.90125 0,-0.27037 0.45548,-0.45063 1.26836,-0.45063 2.07422,0 4.87722,0.18026 5.5079,0.18026 0.53958,0 6.23669,-0.18026 7.77133,-0.18026 0.53958,0 0.99508,0.18026 0.99508,0.45063 0,0.3605 -0.36439,0.81113 -0.99508,0.81113 -0.90396,0 -2.44561,0.27037 -3.70696,0.99138 -1.53466,0.91026 -2.25643,1.72139 -3.97326,3.80328 -2.62081,3.06426 -13.81882,21.13438 -15.44456,24.37888 -1.35946,2.71277 -0.99508,5.15517 -0.99508,7.67868 l 0,6.59716 c 0,1.26176 0,4.51528 0.2733,7.67868 0.17518,2.25313 0.72177,3.70414 3.06929,4.06464 1.08616,0.18025 2.88709,0.3605 3.60887,0.3605 0.45548,0 0.63769,0.36051 0.63769,0.63088 0,0.3605 -0.4555,0.63088 -1.26837,0.63088 -4.42174,0 -9.57226,-0.27038 -10.02774,-0.27038 -0.35739,0 -5.41682,0.27038 -7.76432,0.27038 -0.90397,0 -1.26837,-0.18025 -1.26837,-0.63088 0,-0.27037 0.18219,-0.63088 0.63769,-0.63088 0.72177,0 1.62573,-0.18025 2.34752,-0.3605 1.62574,-0.3605 2.16532,-1.81151 2.34752,-4.06464 0.18219,-3.1634 0.18219,-6.41692 0.18219,-7.67868 l 0,-6.59716"
           id="path9054"
           style="fill:#528c18;fill-opacity:1;fill-rule:nonzero;stroke:none" />
        <path
           d="m 578.82709,796.94935 c 0,-4.15478 -0.53958,-5.68691 -1.71684,-7.85893 -0.63068,-1.17162 -11.3802,-18.24135 -14.09211,-22.306 -1.89904,-2.89302 -3.79106,-4.6054 -5.23461,-5.59678 -1.17726,-0.73001 -2.71191,-1.09051 -3.34258,-1.09051 -0.45549,0 -0.81288,-0.3605 -0.81288,-0.721 0,-0.3605 0.26629,-0.54076 0.98806,-0.54076 1.53466,0 7.49804,0.18026 7.86243,0.18026 0.53958,0 3.79107,-0.18026 6.86037,-0.18026 0.90396,0 1.08615,0.18026 1.08615,0.54076 0,0.27037 -0.53958,0.54075 -1.26135,0.81112 -0.63768,0.27038 -0.99507,0.63088 -0.99507,1.27077 0,1.0815 0.53958,1.98276 1.07916,2.97413 l 14.4565,23.93727 c 1.62573,-3.25352 11.56239,-19.69237 13.00594,-22.21587 0.99507,-1.7214 1.35245,-2.98315 1.35245,-3.97453 0,-1.09051 -0.35739,-1.72139 -1.26135,-1.99177 -0.72178,-0.18025 -1.17727,-0.54075 -1.17727,-0.90125 0,-0.27037 0.45548,-0.45063 1.26836,-0.45063 2.07422,0 4.87722,0.18026 5.5079,0.18026 0.53958,0 6.23669,-0.18026 7.77133,-0.18026 0.53958,0 0.99508,0.18026 0.99508,0.45063 0,0.3605 -0.36439,0.81113 -0.99508,0.81113 -0.90396,0 -2.44561,0.27037 -3.70696,0.99138 -1.53466,0.91026 -2.25643,1.72139 -3.97326,3.80328 -2.62081,3.06426 -13.81882,21.13438 -15.44456,24.37888 -1.35946,2.71277 -0.99508,5.15517 -0.99508,7.67868 l 0,6.59716 c 0,1.26176 0,4.51528 0.2733,7.67868 0.17518,2.25313 0.72177,3.70414 3.06929,4.06464 1.08616,0.18025 2.88709,0.3605 3.60887,0.3605 0.45548,0 0.63769,0.36051 0.63769,0.63088 0,0.3605 -0.4555,0.63088 -1.26837,0.63088 -4.42174,0 -9.57226,-0.27038 -10.02774,-0.27038 -0.35739,0 -5.41682,0.27038 -7.76432,0.27038 -0.90397,0 -1.26837,-0.18025 -1.26837,-0.63088 0,-0.27037 0.18219,-0.63088 0.63769,-0.63088 0.72177,0 1.62573,-0.18025 2.34752,-0.3605 1.62574,-0.3605 2.16532,-1.81151 2.34752,-4.06464 0.18219,-3.1634 0.18219,-6.41692 0.18219,-7.67868 l 0,-6.59716 z"
           id="path9056"
           style="fill:none;stroke:#528c18;stroke-width:1.58940732;stroke-linecap:round;stroke-linejoin:round;stroke-miterlimit:4;stroke-opacity:1;stroke-dasharray:none" />
      </g>
    </g>
  </g>
</svg>
