<?xml version="1.0" encoding="UTF-8" standalone="no"?>
<svg
   xmlns:dc="http://purl.org/dc/elements/1.1/"
   xmlns:cc="http://creativecommons.org/ns#"
   xmlns:rdf="http://www.w3.org/1999/02/22-rdf-syntax-ns#"
   xmlns:svg="http://www.w3.org/2000/svg"
   xmlns="http://www.w3.org/2000/svg"
   xmlns:sodipodi="http://sodipodi.sourceforge.net/DTD/sodipodi-0.dtd"
   xmlns:inkscape="http://www.inkscape.org/namespaces/inkscape"
   width="372pt"
   height="268pt"
   viewBox="0 0 372 268"
   version="1.1"
   id="svg2"
   inkscape:version="0.48.4 r9939"
   sodipodi:docname="Justice_Party_Logo.svg">
  <metadata
     id="metadata116">
    <rdf:RDF>
      <cc:Work
         rdf:about="">
        <dc:format>image/svg+xml</dc:format>
        <dc:type
           rdf:resource="http://purl.org/dc/dcmitype/StillImage" />
      </cc:Work>
    </rdf:RDF>
  </metadata>
  <defs
     id="defs114" />
  <sodipodi:namedview
     pagecolor="#ffffff"
     bordercolor="#666666"
     borderopacity="1"
     objecttolerance="10"
     gridtolerance="10"
     guidetolerance="10"
     inkscape:pageopacity="0"
     inkscape:pageshadow="2"
     inkscape:window-width="1680"
     inkscape:window-height="987"
     id="namedview112"
     showgrid="false"
     inkscape:zoom="3.1"
     inkscape:cx="323.55745"
     inkscape:cy="68.246303"
     inkscape:window-x="1592"
     inkscape:window-y="142"
     inkscape:window-maximized="1"
     inkscape:current-layer="svg2" />
  <g
     id="g3193">
    <g
       transform="scale(1.0732627,0.93173833)"
       style="font-size:11.68521309px;font-style:normal;font-weight:normal;line-height:125%;letter-spacing:0px;word-spacing:0px;fill:#011c49;fill-opacity:1;stroke:none;font-family:Sans"
       id="text3093">
      <path
         d="m 195.67738,280.48005 0.99849,-0.13694 c 0.0266,0.63904 0.14644,1.07647 0.35946,1.31231 0.21301,0.23583 0.5078,0.35375 0.88438,0.35375 0.27767,0 0.51731,-0.0637 0.71891,-0.19114 0.2016,-0.12743 0.34044,-0.3005 0.41652,-0.51922 0.0761,-0.21871 0.11411,-0.56771 0.11411,-1.04699 l 0,-5.76273 1.1069,0 0,5.69997 c -1e-5,0.6999 -0.0846,1.24193 -0.2539,1.62612 -0.16928,0.38418 -0.43744,0.67707 -0.8045,0.87867 -0.36707,0.2016 -0.79785,0.3024 -1.29234,0.3024 -0.73413,0 -1.29614,-0.21111 -1.68602,-0.63333 -0.38989,-0.42222 -0.57723,-1.04984 -0.56201,-1.88287 z"
         style=""
         id="path3023" />
      <path
         d="m 207.5737,274.48909 1.1069,0 0,4.83271 c -1e-5,0.84064 -0.0951,1.5082 -0.28528,2.00269 -0.1902,0.49449 -0.53349,0.89674 -1.02988,1.20675 -0.49639,0.31 -1.14779,0.46501 -1.95419,0.46501 -0.78358,0 -1.42452,-0.13504 -1.92281,-0.4051 -0.4983,-0.27007 -0.85395,-0.66091 -1.06696,-1.17252 -0.21301,-0.51161 -0.31952,-1.21055 -0.31952,-2.09683 l 0,-4.83271 1.1069,0 0,4.827 c 0,0.72653 0.0675,1.26191 0.20255,1.60615 0.13504,0.34424 0.36707,0.60955 0.6961,0.79594 0.32902,0.18638 0.73127,0.27958 1.20675,0.27958 0.814,0 1.39408,-0.18449 1.74023,-0.55345 0.34613,-0.36897 0.51921,-1.07837 0.51921,-2.12822 z"
         style=""
         id="path3025" />
      <path
         d="m 210.15266,280.16624 1.04414,-0.0913 c 0.0495,0.41841 0.16451,0.7617 0.3452,1.02987 0.18067,0.26817 0.4612,0.48498 0.84158,0.65045 0.38038,0.16546 0.8083,0.24819 1.28378,0.24819 0.42221,0 0.79498,-0.0628 1.11831,-0.18828 0.32331,-0.12553 0.5639,-0.29765 0.72177,-0.51637 0.15785,-0.21871 0.23678,-0.4574 0.23678,-0.71606 0,-0.26246 -0.0761,-0.49164 -0.22823,-0.68753 -0.15215,-0.19589 -0.4032,-0.36041 -0.75314,-0.49354 -0.22443,-0.0875 -0.72082,-0.22347 -1.48918,-0.40796 -0.76837,-0.18448 -1.3066,-0.3585 -1.61471,-0.52207 -0.3994,-0.2092 -0.69704,-0.46881 -0.89294,-0.77882 -0.19589,-0.31 -0.29384,-0.6571 -0.29384,-1.04129 0,-0.42221 0.11982,-0.81685 0.35946,-1.18392 0.23964,-0.36706 0.58958,-0.64569 1.04984,-0.83588 0.46026,-0.19018 0.97187,-0.28528 1.53483,-0.28529 0.62001,10e-6 1.1668,0.0999 1.64038,0.29955 0.47356,0.19971 0.83777,0.49355 1.09263,0.88153 0.25485,0.38799 0.39179,0.82733 0.41081,1.31801 l -1.06125,0.0799 c -0.0571,-0.52872 -0.25011,-0.92812 -0.57913,-1.1982 -0.32903,-0.27006 -0.81496,-0.40509 -1.4578,-0.4051 -0.66947,1e-5 -1.1573,0.12268 -1.4635,0.36802 -0.30621,0.24535 -0.45931,0.54109 -0.45931,0.88723 0,0.3005 0.10841,0.54775 0.32523,0.74174 0.213,0.19399 0.76931,0.39274 1.6689,0.59624 0.89959,0.20351 1.51676,0.38133 1.85149,0.53348 0.48688,0.22443 0.84634,0.50876 1.07838,0.853 0.23202,0.34424 0.34803,0.74079 0.34804,1.18963 -1e-5,0.44504 -0.12743,0.86441 -0.38228,1.2581 -0.25486,0.39369 -0.62097,0.6999 -1.09834,0.91861 -0.47738,0.21872 -1.01466,0.32808 -1.61185,0.32808 -0.75696,0 -1.39124,-0.11031 -1.90284,-0.33093 -0.51161,-0.22062 -0.91291,-0.5525 -1.2039,-0.99564 -0.29099,-0.44314 -0.44409,-0.94429 -0.45931,-1.50344 z"
         style=""
         id="path3027" />
      <path
         d="m 220.46281,282.85361 0,-7.37743 -2.75584,0 0,-0.98709 6.62999,0 0,0.98709 -2.76725,0 0,7.37743 z"
         style=""
         id="path3029" />
      <path
         d="m 225.66638,282.85361 0,-8.36452 1.1069,0 0,8.36452 z"
         style=""
         id="path3031" />
      <path
         d="m 234.68705,279.92089 1.1069,0.27958 c -0.23204,0.90911 -0.6495,1.60234 -1.2524,2.07972 -0.6029,0.47737 -1.33988,0.71606 -2.21094,0.71606 -0.9015,0 -1.63468,-0.18353 -2.19954,-0.5506 -0.56486,-0.36706 -0.99469,-0.89864 -1.28948,-1.59473 -0.29479,-0.69609 -0.44219,-1.44353 -0.44219,-2.24233 0,-0.87106 0.16641,-1.63087 0.49925,-2.27942 0.33282,-0.64853 0.8064,-1.14112 1.42071,-1.47777 0.6143,-0.33662 1.29043,-0.50494 2.02836,-0.50495 0.83683,10e-6 1.54053,0.21302 2.1111,0.63904 0.57056,0.42603 0.96806,1.02512 1.19249,1.79728 l -1.08979,0.25676 c -0.194,-0.6086 -0.47548,-1.05174 -0.84444,-1.32942 -0.36897,-0.27767 -0.83303,-0.41651 -1.39218,-0.41652 -0.64284,1e-5 -1.18013,0.15406 -1.61185,0.46216 -0.43173,0.30812 -0.73508,0.72178 -0.91006,1.24099 -0.17497,0.51922 -0.26246,1.0546 -0.26246,1.60614 0,0.71131 0.10365,1.33228 0.31096,1.8629 0.20731,0.53063 0.52968,0.92718 0.96711,1.18964 0.43743,0.26246 0.91101,0.39369 1.42072,0.39369 0.62001,0 1.14493,-0.17878 1.57476,-0.53634 0.42982,-0.35755 0.72081,-0.88818 0.87297,-1.59188 z"
         style=""
         id="path3033" />
      <path
         d="m 237.18613,282.85361 0,-8.36452 6.04801,0 0,0.98709 -4.94111,0 0,2.56184 4.6273,0 0,0.98138 -4.6273,0 0,2.84713 5.1351,0 0,0.98708 z"
         style=""
         id="path3035" />
    </g>
    <g
       transform="scale(1.0968029,0.91174084)"
       style="font-size:11.94150829px;font-style:normal;font-weight:normal;line-height:125%;letter-spacing:0px;word-spacing:0px;fill:#fe1320;fill-opacity:1;stroke:none;font-family:Sans"
       id="text3093-1">
      <path
         d="m 239.37322,289.03983 0,-8.54798 3.22444,0 c 0.56753,10e-6 1.00095,0.0272 1.30027,0.0816 0.41981,0.07 0.77161,0.20312 1.05538,0.39941 0.28376,0.19632 0.51213,0.47134 0.68512,0.82506 0.17297,0.35375 0.25946,0.74247 0.25947,1.16617 -1e-5,0.72691 -0.2313,1.34206 -0.69387,1.84545 -0.46258,0.5034 -1.29833,0.75509 -2.50725,0.75509 l -2.19238,0 0,3.47517 z m 1.13118,-4.4839 2.20988,0 c 0.73079,0 1.24973,-0.13605 1.55682,-0.40816 0.30709,-0.2721 0.46063,-0.65499 0.46064,-1.14867 -1e-5,-0.35762 -0.0904,-0.66373 -0.27114,-0.91835 -0.18076,-0.25461 -0.41885,-0.42273 -0.71427,-0.50437 -0.19048,-0.0505 -0.54227,-0.0758 -1.05538,-0.0758 l -2.18655,0 z"
         style=""
         id="path3038" />
      <path
         d="m 246.41101,289.03983 3.28275,-8.54798 1.21864,0 3.49849,8.54798 -1.28861,0 -0.99707,-2.58889 -3.57429,0 -0.93876,2.58889 z m 2.46644,-3.51015 2.89791,0 -0.89211,-2.36732 c -0.27211,-0.71912 -0.47425,-1.30998 -0.60641,-1.77256 -0.10884,0.5481 -0.26239,1.09231 -0.46063,1.63262 z"
         style=""
         id="path3040" />
      <path
         d="m 255.34382,289.03983 0,-8.54798 3.79003,0 c 0.76189,10e-6 1.34108,0.0768 1.73758,0.23032 0.39649,0.15355 0.7133,0.42468 0.95043,0.8134 0.23711,0.38873 0.35567,0.81826 0.35567,1.28861 0,0.60641 -0.19631,1.11757 -0.58891,1.5335 -0.39261,0.41594 -0.99902,0.68027 -1.81921,0.79299 0.29931,0.14383 0.52671,0.28572 0.6822,0.42565 0.33041,0.30321 0.64333,0.68221 0.93876,1.13701 l 1.48686,2.3265 -1.42272,0 -1.13117,-1.7784 c -0.33042,-0.51311 -0.60253,-0.90572 -0.81632,-1.17783 -0.2138,-0.2721 -0.40524,-0.46257 -0.57433,-0.57142 -0.1691,-0.10884 -0.34111,-0.18464 -0.51603,-0.2274 -0.12828,-0.0272 -0.33819,-0.0408 -0.62973,-0.0408 l -1.31193,0 0,3.79586 z m 1.13118,-4.77544 2.43145,0 c 0.51699,0 0.92126,-0.0534 1.21281,-0.16035 0.29153,-0.10689 0.5131,-0.27793 0.66471,-0.51311 0.15159,-0.23517 0.2274,-0.49076 0.2274,-0.76675 0,-0.40427 -0.14675,-0.73662 -0.44022,-0.99707 -0.29349,-0.26044 -0.75704,-0.39066 -1.39065,-0.39067 l -2.7055,0 z"
         style=""
         id="path3042" />
      <path
         d="m 266.13083,289.03983 0,-7.53925 -2.81629,0 0,-1.00873 6.77541,0 0,1.00873 -2.82795,0 0,7.53925 z"
         style=""
         id="path3044" />
      <path
         d="m 273.66424,289.03983 0,-3.62094 -3.29441,-4.92704 1.37607,0 1.68511,2.57722 c 0.31097,0.48202 0.60057,0.96403 0.86879,1.44604 0.25655,-0.44702 0.56753,-0.95041 0.93293,-1.51018 l 1.65595,-2.51308 1.31776,0 -3.41102,4.92704 0,3.62094 z"
         style=""
         id="path3046" />
    </g>
    <g
       transform="scale(1.1259144,0.88816698)"
       style="font-size:12.25846195px;font-style:normal;font-weight:normal;line-height:125%;letter-spacing:0px;word-spacing:0px;fill:#011c49;fill-opacity:1;stroke:none;font-family:Sans"
       id="text3093-4">
      <path
         d="m 277.55474,287.90114 1.1612,0 0,5.06978 c -10e-6,0.88188 -0.0998,1.58219 -0.29928,2.10094 -0.19953,0.51875 -0.55966,0.94073 -1.0804,1.26595 -0.52075,0.32522 -1.2041,0.48782 -2.05006,0.48782 -0.82202,0 -1.4944,-0.14165 -2.01714,-0.42497 -0.52274,-0.28332 -0.89584,-0.69333 -1.1193,-1.23004 -0.22346,-0.5367 -0.33519,-1.26993 -0.33519,-2.1997 l 0,-5.06978 1.1612,0 0,5.0638 c 0,0.76216 0.0708,1.32381 0.21249,1.68494 0.14166,0.36113 0.38507,0.63946 0.73024,0.83499 0.34516,0.19552 0.76715,0.29329 1.26595,0.29329 0.85394,0 1.46247,-0.19353 1.8256,-0.5806 0.36312,-0.38707 0.54468,-1.13127 0.54469,-2.23262 z"
         style=""
         id="path3049" />
      <path
         d="m 280.26022,293.85679 1.09536,-0.0958 c 0.0519,0.43894 0.17258,0.79908 0.36213,1.0804 0.18954,0.28132 0.48383,0.50877 0.88287,0.68235 0.39903,0.17358 0.84795,0.26037 1.34675,0.26037 0.44293,0 0.83399,-0.0658 1.17318,-0.19752 0.33917,-0.13168 0.59157,-0.31225 0.75717,-0.54169 0.1656,-0.22945 0.2484,-0.47985 0.2484,-0.75119 0,-0.27534 -0.0798,-0.51576 -0.23942,-0.72127 -0.15962,-0.2055 -0.42299,-0.37808 -0.7901,-0.51775 -0.23543,-0.0918 -0.75618,-0.23443 -1.56223,-0.42797 -0.80606,-0.19353 -1.3707,-0.37609 -1.69392,-0.54768 -0.41899,-0.21946 -0.73124,-0.49181 -0.93674,-0.81703 -0.20551,-0.32521 -0.30826,-0.68933 -0.30826,-1.09237 0,-0.44292 0.1257,-0.85693 0.37709,-1.242 0.25139,-0.38507 0.61851,-0.67736 1.10135,-0.87689 0.48283,-0.19951 1.01954,-0.29927 1.61012,-0.29928 0.65043,10e-6 1.22404,0.10476 1.72085,0.31424 0.4968,0.20951 0.87888,0.51776 1.14624,0.92477 0.26735,0.40703 0.411,0.86792 0.43096,1.38267 l -1.11332,0.0838 c -0.0599,-0.55466 -0.26237,-0.97365 -0.60753,-1.25697 -0.34518,-0.28331 -0.85495,-0.42497 -1.52932,-0.42498 -0.70231,10e-6 -1.21407,0.1287 -1.5353,0.38607 -0.32123,0.25739 -0.48184,0.56764 -0.48184,0.93076 0,0.31525 0.11373,0.57462 0.34118,0.77813 0.22346,0.20351 0.80705,0.41201 1.75078,0.62549 0.94372,0.21349 1.59116,0.40004 1.94232,0.55965 0.51077,0.23544 0.88786,0.53372 1.13128,0.89484 0.2434,0.36114 0.36511,0.77713 0.36512,1.248 -10e-6,0.46687 -0.13369,0.90681 -0.40104,1.31982 -0.26736,0.413 -0.65143,0.73423 -1.15222,0.96367 -0.5008,0.22945 -1.06444,0.34417 -1.69093,0.34417 -0.79409,0 -1.45948,-0.11572 -1.99619,-0.34716 -0.5367,-0.23144 -0.95769,-0.5796 -1.26295,-1.04448 -0.30527,-0.46488 -0.46588,-0.99061 -0.48184,-1.5772 z"
         style=""
         id="path3051" />
      <path
         d="m 287.87986,296.67599 3.36988,-8.77485 1.25098,0 3.59135,8.77485 -1.32281,0 -1.02354,-2.65759 -3.66915,0 -0.96368,2.65759 z m 2.5319,-3.60331 2.97483,0 -0.91579,-2.43015 c -0.27933,-0.73821 -0.48683,-1.34475 -0.6225,-1.81961 -0.11174,0.56265 -0.26936,1.1213 -0.47286,1.67596 z"
         style=""
         id="path3053" />
      <path
         d="m 297.1994,296.67599 0,-1.22704 1.22705,0 0,1.22704 z"
         style=""
         id="path3055" />
      <path
         d="m 300.07846,292.40229 c 0,-1.45648 0.39106,-2.59673 1.17318,-3.42075 0.78211,-0.82401 1.79168,-1.23602 3.0287,-1.23603 0.81004,10e-6 1.54028,0.19355 2.19072,0.5806 0.65042,0.38708 1.14623,0.92678 1.48742,1.6191 0.34116,0.69234 0.51175,1.47745 0.51176,2.35533 -10e-6,0.88986 -0.17957,1.68594 -0.5387,2.38824 -0.35914,0.70231 -0.86792,1.23403 -1.52632,1.59516 -0.65842,0.36113 -1.36871,0.54169 -2.13087,0.54169 -0.82601,0 -1.56423,-0.19951 -2.21466,-0.59855 -0.65044,-0.39904 -1.14325,-0.94373 -1.47844,-1.63407 -0.33519,-0.69033 -0.50279,-1.42057 -0.50279,-2.19072 z m 1.19712,0.018 c 0,1.05745 0.28431,1.89045 0.85294,2.49898 0.56863,0.60853 1.28191,0.9128 2.13985,0.9128 0.87389,0 1.59315,-0.30726 2.1578,-0.92178 0.56463,-0.61452 0.84695,-1.48642 0.84696,-2.6157 -10e-6,-0.71427 -0.12072,-1.33777 -0.36213,-1.87049 -0.24143,-0.53271 -0.59457,-0.94571 -1.05945,-1.23901 -0.46488,-0.29329 -0.98663,-0.43994 -1.56523,-0.43994 -0.82202,0 -1.52931,0.28232 -2.12188,0.84695 -0.59258,0.56465 -0.88886,1.50738 -0.88886,2.82819 z"
         style=""
         id="path3057" />
      <path
         d="m 309.97861,296.67599 0,-8.77485 3.89062,0 c 0.78211,10e-6 1.37668,0.0788 1.78371,0.23643 0.40701,0.15763 0.73222,0.43596 0.97564,0.83499 0.24341,0.39904 0.36512,0.83998 0.36513,1.32281 -1e-5,0.62251 -0.20153,1.14724 -0.60455,1.57421 -0.40303,0.42697 -1.02553,0.69832 -1.8675,0.81403 0.30726,0.14765 0.54069,0.2933 0.70031,0.43695 0.33918,0.31126 0.66041,0.70032 0.96368,1.16719 l 1.52632,2.38824 -1.46048,0 -1.1612,-1.8256 c -0.33919,-0.52672 -0.61851,-0.92975 -0.83798,-1.20908 -0.21948,-0.27933 -0.416,-0.47486 -0.58958,-0.58659 -0.17358,-0.11173 -0.35016,-0.18954 -0.52972,-0.23344 -0.13169,-0.0279 -0.34717,-0.0419 -0.64644,-0.0419 l -1.34676,0 0,3.89661 z m 1.1612,-4.90218 2.49599,0 c 0.53071,0 0.94571,-0.0549 1.245,-0.16461 0.29927,-0.10973 0.52672,-0.2853 0.68235,-0.52673 0.15562,-0.24141 0.23343,-0.50378 0.23344,-0.7871 -10e-6,-0.41499 -0.15064,-0.75617 -0.45191,-1.02353 -0.30128,-0.26735 -0.77713,-0.40103 -1.42756,-0.40104 l -2.77731,0 z"
         style=""
         id="path3059" />
      <path
         d="m 322.92541,293.23429 0,-1.02952 3.71705,-0.006 0,3.25616 c -0.57064,0.4549 -1.15922,0.79708 -1.76575,1.02652 -0.60654,0.22945 -1.22904,0.34417 -1.8675,0.34417 -0.86193,0 -1.64504,-0.18455 -2.34934,-0.55366 -0.7043,-0.36911 -1.23602,-0.90282 -1.59516,-1.60114 -0.35913,-0.69832 -0.5387,-1.47844 -0.5387,-2.34036 0,-0.85394 0.17857,-1.65102 0.53571,-2.39124 0.35714,-0.74021 0.8709,-1.28989 1.54129,-1.64903 0.67038,-0.35912 1.44252,-0.53869 2.31642,-0.5387 0.63446,10e-6 1.20808,0.10276 1.72085,0.30826 0.51276,0.20551 0.91479,0.49182 1.20609,0.85893 0.29129,0.36712 0.51276,0.84597 0.6644,1.43654 l -1.04747,0.2873 c -0.13169,-0.44691 -0.2953,-0.79807 -0.49082,-1.05346 -0.19554,-0.25538 -0.47486,-0.45988 -0.83798,-0.61352 -0.36313,-0.15362 -0.76616,-0.23044 -1.20909,-0.23044 -0.53072,0 -0.98962,0.0808 -1.37668,0.24241 -0.38707,0.16162 -0.69932,0.37411 -0.93674,0.63747 -0.23743,0.26337 -0.42199,0.55267 -0.55367,0.8679 -0.22346,0.5427 -0.33519,1.13128 -0.33519,1.76575 0,0.78212 0.13467,1.43654 0.40402,1.96327 0.26935,0.52673 0.66141,0.91779 1.17617,1.17317 0.51476,0.25539 1.06144,0.38308 1.64005,0.38308 0.50278,0 0.9936,-0.0968 1.47245,-0.2903 0.47884,-0.19353 0.84196,-0.40004 1.08938,-0.61951 l 0,-1.63406 z"
         style=""
         id="path3061" />
    </g>
  </g>
  <path
     style="fill:#ffffff"
     inkscape:connector-curvature="0"
     id="path7"
     d="m 108.69,193.95 c 0.03,-1.5 0.05,-3 0.06,-4.5 1.69,1.24 3.3,2.61 5.06,3.77 -1.73,0.01 -3.46,0.23 -5.12,0.73 z" />
  <path
     style="fill:#ffffff"
     inkscape:connector-curvature="0"
     id="path9"
     d="m 156.73,202.44 c 1.48,-0.42 2.03,0.03 1.66,1.34 -1.5,0.42 -2.05,-0.02 -1.66,-1.34 z" />
  <path
     style="fill:#ffffff"
     inkscape:connector-curvature="0"
     id="path11"
     d="m 218.21,231.59 c 3.26,0.14 6.58,-0.3 9.79,0.41 2.2,0.52 1.84,4.18 -0.26,4.63 -3.18,0.5 -6.41,0.19 -9.61,0.25 0.02,-1.77 0.04,-3.53 0.08,-5.29 z" />
  <path
     style="fill:#ffffff"
     inkscape:connector-curvature="0"
     id="path13"
     d="m 248.9,241.89 c 1.35,-3.65 2.77,-7.28 4.19,-10.91 1.61,3.61 3.1,7.27 4.67,10.89 -2.96,0.02 -5.91,0.03 -8.86,0.02 z" />
  <path
     style="fill:#ffffff"
     inkscape:connector-curvature="0"
     id="path15"
     d="m 284.15,231.63 c 3.24,0.05 6.52,-0.24 9.75,0.22 2.68,0.05 2.73,4.32 0.15,4.63 -3.29,0.41 -6.62,0.15 -9.93,0.17 0.01,-1.68 0.02,-3.35 0.03,-5.02 z" />
  <path
     style="fill:#011c49"
     inkscape:connector-curvature="0"
     id="path36"
     d="m 162.86,6.26 c 1.04,-1.62 2.5,-4 4.8,-3.15 1.23,0.85 1.92,2.21 2.71,3.44 -0.59,0.36 -1.77,1.09 -2.36,1.45 0,0.82 -0.01,2.46 -0.01,3.28 -0.91,-0.43 -1.8,-0.88 -2.7,-1.33 -0.58,-1.38 -1.45,-2.59 -2.44,-3.69 z" />
  <path
     style="fill:#011c49"
     inkscape:connector-curvature="0"
     id="path38"
     d="m 168.26,27 c 0.37,-0.39 1.11,-1.17 1.48,-1.56 1.6,1.99 3.79,3.2 6.34,2.11 -0.01,0.77 -0.05,2.31 -0.07,3.08 -3.34,-2.82 -8.25,-1.28 -12.17,-2.92 0.3,-0.51 0.92,-1.55 1.22,-2.06 0.8,0.34 2.4,1.01 3.2,1.35 z" />
  <path
     style="fill:#011c49"
     inkscape:connector-curvature="0"
     id="path40"
     d="m 165.37,29.72 c 4.76,0.42 4.26,6.53 2.81,9.75 1.32,4.71 3.17,10.01 0.5,14.62 0.93,3.94 2.69,7.81 2.33,11.94 -0.25,2.42 -1.18,4.7 -1.99,6.98 0.73,-0.01 2.2,-0.03 2.93,-0.04 1.26,-1.19 2.1,-3.47 4.15,-3.32 10.18,-0.1 20.38,0.13 30.56,-0.08 1.82,-1.06 2.56,-3.49 4.52,-4.5 2.65,-0.99 6.09,-0.31 7.71,2.16 1.16,3.9 -2.27,6.69 -3.97,9.77 -1.66,2.17 -0.83,5 -0.85,7.5 1,0.55 1.99,1.12 2.98,1.71 -0.01,1.27 -0.01,2.54 -0.01,3.81 -1.41,0.36 -3.04,1.67 -4.31,0.28 -2.3,-1.16 -1.52,-3.71 -0.57,-5.5 -0.51,-3.73 -1.16,-8.02 1.36,-11.21 0.95,-1.39 3.14,-4.21 0.33,-4.99 -2.63,0.3 -3.25,3.44 -5.26,4.64 -10.46,1.22 -21.29,1.3 -31.28,5.01 -2.12,0.61 -3.08,2.8 -4.84,3.87 -3.42,0.32 -6.88,0.14 -10.32,0.13 -2.81,0.12 -3.69,-3.48 -6.31,-4.06 -10.04,-3.6 -20.86,-3.93 -31.39,-4.85 -1.65,-1.92 -3.36,-5.82 -6.48,-4.21 -0.34,2.24 1.57,3.73 2.53,5.53 1.28,2.38 1.53,5.23 0.89,7.85 -0.65,2.23 0.52,4.38 0.88,6.54 -1.55,1.13 -3.61,2.95 -5.37,1.06 -2.29,-1.94 -0.15,-4.8 2.08,-5.54 0.35,-2.38 1.07,-5 -0.4,-7.16 -1.99,-3.52 -5.9,-7.03 -3.65,-11.39 2.16,-0.86 4.59,-2.01 6.91,-1.01 2.1,0.83 3.12,2.99 4.43,4.68 10.8,-0.06 21.6,-0.13 32.4,0.03 0.86,1.11 1.73,2.19 2.61,3.28 0.72,0 2.14,-0.01 2.86,-0.01 -0.78,-2.62 -1.69,-5.23 -2.01,-7.96 0.27,-3.74 1.51,-7.32 2.56,-10.9 -2.84,-4.45 -0.85,-9.48 0.21,-14.12 -0.95,-3.46 -1.2,-6.98 0.47,-10.29 z" />
  <path
     style="fill:#011c49"
     inkscape:connector-curvature="0"
     id="path42"
     d="m 122.07,91.09 c 5.6,10.24 10.16,21.01 15.57,31.35 1.05,0.98 2.52,1.29 3.76,1.95 -5.14,7.1 -13.47,12.58 -22.5,12.17 -8.54,-0.35 -16.16,-5.57 -21.26,-12.16 1.36,-0.78 3.37,-0.95 4.02,-2.63 4.84,-9.92 9.12,-20.13 14.32,-29.87 -3.71,10.43 -8.34,20.51 -12.37,30.83 4.86,-0.96 9.82,-0.74 14.75,-0.84 0.86,-9.72 0.15,-19.52 1.21,-29.22 0.65,9.73 0.5,19.49 1.17,29.22 4.76,0.11 9.56,-0.12 14.26,0.75 -4.32,-10.51 -9,-20.89 -12.93,-31.55 z" />
  <path
     style="fill:#011c49"
     inkscape:connector-curvature="0"
     id="path44"
     d="m 217.05,90.94 c 5.2,10.58 10.02,21.34 15.16,31.95 1.19,0.53 2.38,1.09 3.56,1.67 -5.46,6.41 -12.99,11.86 -21.72,12.01 -9.05,0.34 -16.98,-5.38 -22.32,-12.24 1.29,-0.49 2.59,-0.98 3.89,-1.47 5.03,-10.43 9.85,-20.99 15.37,-31.17 -3.83,10.46 -8.5,20.6 -12.62,30.94 4.71,-0.87 9.5,-0.62 14.26,-0.74 0.64,-10.02 0.17,-20.07 0.82,-30.08 0.81,10.01 1.15,20.06 1.57,30.1 4.91,0.08 9.88,-0.21 14.71,0.9 -4.11,-10.67 -9.06,-21.03 -12.68,-31.87 z" />
  <g
     id="#00317cff">
    <path
       fill="#00317c"
       opacity="1.00"
       d=" M 156.97 11.01 C 157.78 10.06 158.77 9.31 159.74 8.55 C 159.48 9.56 159.23 10.57 158.97 11.58 C 161.93 12.42 164.81 13.67 167.14 15.73 C 164.74 14.81 162.31 13.84 159.69 13.90 C 160.66 17.26 164.54 17.40 167.20 18.76 C 165.18 18.50 163.18 18.20 161.17 17.99 C 162.49 20.49 165.21 21.53 167.44 23.01 C 166.38 22.97 164.26 22.88 163.20 22.84 C 163.81 23.78 164.43 24.71 165.06 25.65 C 164.76 26.16 164.14 27.20 163.84 27.71 C 162.20 27.16 160.48 26.90 158.77 26.75 C 157.96 25.41 158.13 23.95 158.68 22.55 C 157.96 21.31 157.90 20.02 158.49 18.67 C 157.57 18.01 157.25 17.16 157.51 16.11 C 157.91 14.37 156.96 12.74 156.97 11.01 Z"
       id="path59" />
    <path
       fill="#00317c"
       opacity="1.00"
       d=" M 168.29 12.14 C 170.79 14.49 174.00 13.99 176.93 12.78 C 176.49 13.21 175.60 14.08 175.16 14.51 C 178.42 15.72 179.48 20.04 179.06 23.14 C 176.37 21.74 172.65 19.54 170.33 22.74 C 169.87 21.60 169.37 20.47 168.84 19.37 C 168.77 18.39 168.62 16.43 168.55 15.45 L 169.71 14.93 C 169.24 14.00 168.76 13.07 168.29 12.14 Z"
       id="path61" />
    <path
       fill="#00317c"
       opacity="1.00"
       d=" M 292.32 19.51 C 294.78 25.38 297.30 31.22 299.56 37.17 C 304.99 35.18 310.30 32.90 315.67 30.75 C 313.29 35.42 310.70 39.97 308.23 44.59 C 311.24 45.72 314.23 46.92 317.10 48.37 C 313.47 49.90 309.97 51.73 306.39 53.38 C 306.53 54.00 306.82 55.26 306.96 55.88 C 305.95 58.11 304.89 60.31 303.98 62.58 C 302.95 60.86 301.15 60.81 299.33 61.10 L 299.30 59.98 C 300.86 59.98 302.41 59.99 303.98 60.01 L 304.01 59.27 C 302.71 59.18 301.55 58.75 300.55 57.99 C 302.14 57.94 303.73 57.93 305.33 57.95 C 304.97 56.28 304.58 54.63 304.17 52.97 C 297.94 52.45 291.96 54.95 285.78 54.65 C 291.44 52.51 297.62 52.69 303.38 51.15 C 302.66 50.62 301.24 49.56 300.53 49.03 C 301.37 48.95 303.05 48.81 303.90 48.73 L 303.86 48.07 C 300.80 48.39 297.72 48.79 294.65 48.36 C 297.34 46.50 300.93 47.76 303.72 46.15 C 299.63 45.95 295.53 46.13 291.45 45.89 C 288.65 50.92 283.94 54.42 278.87 56.94 C 280.90 57.13 282.93 57.20 284.97 57.01 C 283.91 58.65 282.76 60.42 283.56 62.43 C 284.64 66.39 280.39 68.43 277.61 70.03 C 278.22 70.41 279.43 71.15 280.04 71.52 C 278.68 72.46 277.34 73.41 276.00 74.36 C 274.99 71.25 272.18 69.57 269.18 68.77 C 268.03 67.64 266.86 66.54 265.67 65.46 C 270.74 67.42 275.15 63.25 278.33 59.83 C 274.24 61.77 269.54 66.16 264.93 63.02 C 267.12 62.35 269.51 61.98 271.25 60.36 C 270.71 60.26 269.62 60.05 269.07 59.95 C 269.87 57.66 269.96 54.65 272.59 53.64 C 278.78 50.69 281.88 43.96 287.97 40.92 C 286.10 43.13 284.25 45.38 282.85 47.94 C 281.21 51.10 277.95 52.82 275.41 55.14 C 278.47 54.19 281.63 53.19 284.19 51.21 C 287.06 48.67 287.52 44.63 289.40 41.46 C 291.80 39.78 294.99 40.51 297.67 40.99 C 297.52 41.59 297.23 42.78 297.08 43.38 C 299.55 42.95 302.71 40.89 304.82 43.23 C 305.46 44.83 305.93 46.49 306.52 48.12 C 307.28 45.14 305.99 42.37 304.75 39.75 C 302.84 39.91 300.92 40.14 299.01 39.98 C 296.73 38.94 294.77 36.15 291.99 37.33 C 287.89 37.71 285.15 41.01 281.69 42.81 C 279.05 44.26 276.02 44.73 273.08 45.13 C 271.59 46.53 270.17 48.01 268.80 49.52 C 266.05 48.08 263.32 46.61 260.60 45.12 C 265.58 43.78 270.63 42.77 275.67 41.71 C 274.13 36.53 272.52 31.37 270.95 26.20 C 276.65 29.86 282.23 33.71 287.98 37.30 C 289.50 31.39 290.85 25.44 292.32 19.51 Z"
       id="path63" />
    <path
       fill="#00317c"
       opacity="1.00"
       d=" M 176.08 27.55 C 176.36 26.65 177.63 25.37 178.57 26.42 C 181.90 28.68 185.07 31.19 188.21 33.73 C 191.60 36.48 195.75 38.05 199.20 40.70 C 202.71 43.18 205.78 46.19 208.76 49.27 C 210.73 51.38 213.84 51.50 216.32 52.73 C 226.43 57.05 235.48 64.33 241.31 73.70 C 243.35 73.90 245.41 73.82 247.30 72.95 C 246.24 70.35 244.92 67.87 243.86 65.28 C 248.80 67.41 251.78 72.65 251.64 77.95 C 251.49 82.24 252.08 87.41 248.64 90.65 C 245.98 93.73 240.93 95.08 237.40 92.75 C 233.48 89.46 232.04 84.05 232.38 79.09 C 225.58 72.39 219.18 65.28 212.48 58.48 C 206.14 55.68 198.67 55.25 192.96 50.99 C 187.76 46.13 183.95 40.04 179.31 34.68 C 178.21 33.34 176.76 32.22 176.01 30.63 C 176.03 29.86 176.07 28.32 176.08 27.55 Z"
       id="path65" />
    <path
       fill="#00317c"
       opacity="1.00"
       d=" M 284.88 60.37 C 289.26 64.51 294.65 68.03 300.90 68.03 C 301.16 65.94 300.30 63.50 302.01 61.81 C 303.18 63.54 303.54 65.76 302.68 67.70 C 300.57 69.81 296.95 69.69 295.08 72.09 C 294.50 75.59 295.64 79.02 296.17 82.43 C 292.98 79.58 293.23 75.09 292.76 71.21 C 290.74 67.19 287.23 64.18 284.88 60.37 Z"
       id="path67" />
    <path
       fill="#00317c"
       opacity="1.00"
       d=" M 259.07 64.63 C 260.42 64.86 261.92 64.95 262.86 66.11 C 266.90 70.42 268.40 76.45 272.25 80.91 C 276.48 85.47 281.80 88.81 286.31 93.06 C 281.18 91.71 276.68 88.48 271.36 87.80 C 272.14 90.97 273.01 94.76 276.21 96.36 C 278.04 97.50 280.09 96.30 281.99 96.05 C 281.27 98.01 280.92 100.75 278.51 101.32 C 275.07 102.71 272.12 100.02 269.84 97.82 C 269.52 102.91 274.46 106.23 279.11 106.30 C 275.11 108.61 270.84 110.44 266.31 111.42 C 263.94 107.20 261.56 102.98 259.88 98.43 C 258.37 98.58 257.23 97.96 256.46 96.57 C 252.90 98.76 248.74 99.67 244.59 99.24 C 247.97 96.79 251.68 94.62 254.36 91.36 C 256.63 88.47 255.90 84.58 255.92 81.18 C 256.45 81.84 257.51 83.16 258.04 83.82 C 258.27 81.08 258.66 78.37 259.23 75.68 C 260.54 75.89 261.69 76.70 261.92 78.09 C 262.75 80.95 262.79 83.94 263.09 86.88 C 265.82 83.55 265.08 79.02 264.50 75.09 C 263.78 71.17 263.18 66.45 259.07 64.63 Z"
       id="path69" />
    <path
       fill="#00317c"
       opacity="1.00"
       d=" M 317.12 132.52 C 318.21 126.97 319.10 121.38 319.26 115.71 C 321.87 121.57 324.14 127.78 328.26 132.78 C 330.98 136.18 335.78 134.71 339.19 136.79 C 344.41 139.64 349.27 143.14 353.89 146.89 C 347.68 146.41 341.41 146.56 335.24 145.82 C 328.51 142.48 321.13 139.27 317.12 132.52 Z"
       id="path71" />
    <path
       fill="#00317c"
       opacity="1.00"
       d=" M 250.17 160.13 C 256.11 154.16 264.52 150.59 272.98 150.94 C 282.08 150.53 291.31 152.68 299.08 157.50 C 300.73 156.34 302.51 157.24 304.20 157.78 C 300.53 164.80 296.96 171.87 293.49 178.99 C 292.39 178.33 291.30 177.66 290.22 176.97 C 290.28 175.29 290.42 173.23 288.58 172.42 C 280.79 167.97 270.06 167.05 262.44 172.35 C 255.53 177.38 254.34 187.27 256.99 194.89 C 259.64 202.07 267.50 206.06 274.86 205.74 C 280.21 204.86 285.80 203.43 290.10 199.97 C 291.53 199.03 290.68 197.39 290.52 196.06 C 291.29 195.62 292.06 195.18 292.84 194.75 C 296.34 201.87 299.68 209.06 303.30 216.12 C 302.46 216.59 301.62 217.05 300.79 217.51 C 300.42 217.19 299.69 216.54 299.32 216.22 C 288.66 222.08 275.95 225.14 263.95 222.15 C 254.03 219.74 246.04 211.87 242.55 202.41 C 237.47 188.40 239.40 171.02 250.17 160.13 Z"
       id="path73" />
    <path
       fill="#00317c"
       opacity="1.00"
       d=" M 33.96 151.53 C 40.99 151.54 48.02 151.52 55.06 151.54 C 55.03 152.89 55.00 154.23 54.97 155.58 C 53.97 155.98 52.98 156.41 52.00 156.86 C 52.03 172.59 52.02 188.32 52.01 204.05 C 51.72 210.59 49.24 217.90 43.02 221.03 C 37.14 223.81 30.36 223.38 24.04 222.97 C 18.40 222.63 13.68 219.21 8.37 217.79 C 6.75 219.61 4.90 218.80 3.24 217.66 C 6.62 210.65 10.28 203.78 13.33 196.62 C 14.05 196.73 15.50 196.94 16.22 197.04 C 15.31 201.21 18.17 204.75 22.00 205.98 C 25.73 207.32 30.09 208.49 33.90 206.81 C 36.49 205.20 36.73 201.73 36.94 198.98 C 36.97 185.33 37.00 171.68 36.93 158.03 C 37.22 156.28 35.09 156.16 34.03 155.54 C 34.01 154.20 33.99 152.86 33.96 151.53 Z"
       id="path75" />
    <path
       fill="#00317c"
       opacity="1.00"
       d=" M 148.97 151.53 C 167.50 151.49 186.04 151.62 204.57 151.46 C 204.70 158.28 204.51 165.10 204.68 171.92 C 204.08 171.95 202.86 172.02 202.26 172.06 C 201.90 170.70 201.52 169.36 201.11 168.02 C 195.54 168.09 189.97 168.03 184.40 168.07 C 184.45 184.34 184.35 200.61 184.44 216.88 C 184.20 218.51 185.84 219.09 187.09 219.41 C 187.12 220.61 187.16 221.81 187.19 223.02 C 180.28 223.00 173.36 223.14 166.45 222.93 C 166.48 221.72 166.50 220.51 166.53 219.30 C 167.16 219.15 168.43 218.85 169.06 218.70 C 169.43 201.82 169.08 184.93 169.24 168.04 C 163.85 168.08 158.47 167.99 153.09 168.12 C 152.73 169.41 152.40 170.70 152.07 172.01 C 151.30 172.01 149.75 172.01 148.97 172.01 C 148.96 165.18 148.97 158.36 148.97 151.53 Z"
       id="path77" />
    <path
       fill="#00317c"
       opacity="1.00"
       d=" M 209.98 151.56 C 216.99 151.49 224.01 151.55 231.04 151.52 C 231.02 152.93 231.01 154.35 231.00 155.76 C 226.91 156.54 228.23 160.95 228.05 164.00 C 228.11 181.34 228.00 198.69 228.09 216.03 C 227.60 218.05 229.66 218.49 231.00 219.24 C 231.00 220.48 230.99 221.73 230.98 222.98 C 224.02 223.05 217.04 223.10 210.08 222.94 C 210.06 221.69 210.04 220.43 210.01 219.18 C 211.01 218.75 212.00 218.32 212.99 217.88 C 212.96 197.62 213.00 177.36 212.97 157.11 C 211.98 156.67 210.99 156.24 209.99 155.81 C 209.98 154.39 209.98 152.98 209.98 151.56 Z"
       id="path79" />
    <path
       fill="#00317c"
       opacity="1.00"
       d=" M 314.47 151.51 C 332.14 151.54 349.82 151.56 367.49 151.50 C 367.48 158.10 367.46 164.71 367.52 171.31 C 366.70 171.33 365.08 171.38 364.26 171.40 C 363.58 170.26 363.94 167.49 362.01 167.65 C 352.08 167.49 342.15 167.63 332.22 167.60 C 332.28 171.35 332.27 175.09 332.26 178.84 C 340.52 178.82 348.79 178.93 357.05 178.82 C 359.00 179.07 359.67 176.99 360.40 175.64 C 361.06 175.64 362.37 175.64 363.02 175.64 C 363.04 182.75 363.04 189.86 363.02 196.97 C 362.33 196.98 360.95 197.01 360.26 197.02 C 359.83 195.99 359.39 194.97 358.92 193.96 C 350.02 193.87 341.12 193.97 332.22 193.90 C 332.29 198.00 332.29 202.09 332.21 206.19 C 342.52 206.19 352.84 206.16 363.15 206.21 C 363.53 204.81 363.88 203.40 364.23 202.00 C 365.04 201.99 366.64 201.97 367.45 201.97 C 367.52 208.98 367.48 216.00 367.48 223.02 C 349.82 223.04 332.16 223.02 314.50 223.04 C 314.48 221.79 314.47 220.55 314.47 219.32 C 317.56 219.34 317.23 216.23 317.23 214.05 C 317.08 195.10 317.39 176.14 317.07 157.19 C 316.41 156.93 315.10 156.40 314.44 156.14 C 314.45 154.59 314.46 153.05 314.47 151.51 Z"
       id="path81" />
  </g>
  <path
     style="fill:#fe1320"
     inkscape:connector-curvature="0"
     id="path84"
     d="m 299.38,81.79 c 5.92,11.59 2.7,25.86 -4.74,35.99 1.02,1.01 0.87,2.43 1.01,3.72 -1.08,0.69 -2.15,1.4 -3.21,2.1 l 0.04,-1.57 c -1.61,0.29 -2.99,1.03 -3.91,2.38 -5.41,2.61 -9.92,6.69 -15.28,9.4 -1.24,-7.48 -3.78,-14.97 -9.22,-20.48 6.37,-1 12.72,-2.77 18.33,-6.03 3.73,-2.13 6.47,-5.51 9.49,-8.48 0.5,1.83 0.98,3.67 1.49,5.5 0.3,-3.3 -0.78,-6.95 1.15,-9.89 2.27,-3.94 3.69,-8.27 4.85,-12.64 z" />
  <path
     style="fill:#fe1320"
     inkscape:connector-curvature="0"
     id="path86"
     d="m 304.98,87.73 c 4.95,7.45 10.54,15.02 12.13,24.03 1.3,7.3 -1.3,14.42 -3.04,21.39 -1.12,3.94 -2.02,7.94 -3.46,11.77 -0.35,1.68 -2.35,0.95 -3.54,1.18 -7.05,-0.1 -14.12,0.15 -21.17,-0.17 5.56,-2.39 9.57,-7.57 15.69,-8.7 -0.09,-0.59 -0.26,-1.77 -0.35,-2.35 1.88,-1.83 3.28,-4.03 4.07,-6.53 5.11,-9.78 6.51,-21.78 2.55,-32.2 -0.98,-2.8 -2.09,-5.56 -2.88,-8.42 z" />
  <path
     style="fill:#fe1320"
     inkscape:connector-curvature="0"
     id="path88"
     d="m 111.29,151.2 c 5.84,-4.76 13.55,-6.5 20.94,-6.49 0.02,2.32 0.04,4.63 0.08,6.95 -2.36,0.17 -4.73,0.36 -7.09,0.56 -0.71,-1.06 -1.39,-2.13 -2.21,-3.1 -0.88,0.48 -2.46,0.86 -1.49,2.12 0.61,0.31 1.83,0.92 2.45,1.22 -6.22,1.86 -12.07,6.19 -13.88,12.68 -1.97,5.07 -0.51,10.58 -1.71,15.75 -0.04,0.53 -0.11,1.59 -0.15,2.12 1.1,0.6 2.2,1.2 3.31,1.77 -0.04,0.43 -0.12,1.28 -0.16,1.71 2.52,0.05 5.16,-0.6 7.55,0.53 8.19,2.98 17.67,1.97 25.17,6.87 5.1,3.37 5.3,10.52 3.51,15.78 -2.31,6.21 -9.54,8.77 -15.68,8.49 -0.26,-2.23 -0.18,-4.49 -0.25,-6.73 3.11,-0.72 7.26,-0.54 9.01,-3.71 1.23,-2.78 1.68,-7.13 -1.59,-8.68 -5.42,-2.37 -11.42,-2.81 -17.19,-3.8 -0.08,5.21 0.25,10.43 -0.13,15.63 -1.45,5.92 -5.63,10.92 -10.58,14.34 -7.6,5.21 -17.34,6.32 -26.27,4.9 -9.32,-1.42 -18.18,-7.26 -22.15,-15.96 -1.26,-2.53 -0.9,-5.42 -0.96,-8.14 0.03,-19.38 0.03,-38.76 0,-58.14 2.32,0.01 4.64,0.03 6.97,0.05 -0.1,17.38 0.03,34.76 -0.06,52.14 0.19,2.92 -2.85,4.37 -4.43,6.36 0.95,0.05 2.84,0.16 3.79,0.21 0.21,-0.44 0.64,-1.33 0.85,-1.77 -1.67,7.21 4.16,13.31 10.18,16.23 4.29,1.9 9.01,2.74 13.66,3.1 5.5,-0.89 11.28,-1.99 15.68,-5.68 0.2,0.56 0.6,1.69 0.81,2.26 0.19,-0.15 0.57,-0.46 0.76,-0.61 -0.28,-0.46 -0.83,-1.38 -1.1,-1.84 2.35,-2.44 4.9,-5.01 5.8,-8.38 0.43,-4.51 -0.07,-9.05 0.16,-13.57 -0.97,0.76 -2.03,1.36 -3.21,1.7 0.02,0.35 0.06,1.05 0.08,1.41 -0.56,0.08 -1.69,0.24 -2.25,0.32 -1.17,2.81 -0.5,5.9 -0.97,8.83 -1.55,3.55 -4.87,6.21 -8.48,7.47 -2.19,0.14 -4.45,-0.29 -6.44,0.9 -0.18,-0.54 -0.52,-1.62 -0.7,-2.16 -0.29,0.42 -0.86,1.25 -1.15,1.67 -5.99,1.64 -12.56,-1.29 -16.03,-6.29 -1.1,-1.48 -0.81,-3.43 -0.89,-5.16 0.09,-19.07 -0.05,-38.14 0.07,-57.21 2.54,0.01 5.09,0.04 7.63,0.31 -1.3,1.4 -3.2,1.78 -4.92,2.42 0.46,2.02 1.55,3.37 3.78,3 0.99,4.41 0.62,8.93 0.66,13.4 -0.01,12.36 0.02,24.71 -0.01,37.07 0.08,1.52 -0.33,3.64 1.48,4.32 5.54,3.17 13.43,3 18.27,-1.45 0.01,-11.64 -0.01,-23.28 0,-34.92 -0.03,-7.85 3.27,-15.86 9.48,-20.8 m -2.6,42.75 c 1.66,-0.5 3.39,-0.72 5.12,-0.73 -1.76,-1.16 -3.37,-2.53 -5.06,-3.77 -0.01,1.5 -0.03,3 -0.06,4.5 z" />
  <path
     style="fill:#fe1320"
     inkscape:connector-curvature="0"
     id="path90"
     d="m 120.22,161.17 c 3.47,-2.54 7.9,-3.37 12.13,-3.11 -0.06,2.32 -0.1,4.64 -0.14,6.97 -3,0.13 -6.54,0.01 -8.73,2.43 -1.81,1.89 -1.43,4.64 -1.32,7.02 10.17,2.5 21.55,2.45 30.19,9.14 13.07,9.65 12.25,31.66 -0.27,41.41 -5.86,4.31 -13.21,5.83 -20.31,6.56 0.01,-2.33 0.01,-4.67 0,-7 8.6,-0.49 18.49,-3.72 21.72,-12.58 1.06,0.38 2.12,0.76 3.18,1.13 -0.26,-1.36 -0.53,-2.71 -0.81,-4.06 0.92,0.2 1.85,0.4 2.78,0.6 0.04,-1.64 0.32,-3.25 0.84,-4.81 -0.95,0.31 -1.9,0.62 -2.85,0.93 -1.21,-2.78 -1.98,-5.71 -2.67,-8.65 -1.28,-4.82 -5.38,-8.19 -9.58,-10.48 0.18,-0.55 0.55,-1.65 0.73,-2.2 -1.56,0.57 -3.21,1.52 -4.89,0.82 -5.89,-1.84 -12.08,-2.21 -18.04,-3.71 -3.21,-0.79 -6.58,-2.98 -6.95,-6.54 -0.55,-4.99 0.79,-10.73 4.99,-13.87 m 36.51,41.27 c -0.39,1.32 0.16,1.76 1.66,1.34 0.37,-1.31 -0.18,-1.76 -1.66,-1.34 z" />
  <path
     style="fill:#fe1320"
     inkscape:connector-curvature="0"
     id="path92"
     d="m 110.22,201.22 c 0.6,0.54 0.6,0.54 0,0 z" />
  <path
     style="fill:#fe1320"
     inkscape:connector-curvature="0"
     id="path94"
     d="m 157.32,207.22 c 0.56,0.58 0.56,0.58 0,0 z" />
  <path
     style="fill:#fe1320"
     inkscape:connector-curvature="0"
     id="path96"
     d="m 209.11,226.16 c 5.95,0.03 11.91,-0.08 17.86,0 3.26,-0.03 6.82,1.27 8.46,4.27 1.71,3.46 0.84,8.34 -2.78,10.23 -4.42,2.43 -9.71,1.1 -14.52,1.4 0.07,3.05 -0.39,6.23 0.75,9.14 -2.94,-0.07 -5.88,-0.07 -8.82,0.01 1.25,-3.26 0.58,-6.8 0.72,-10.2 -0.16,-4.49 0.33,-9.02 -0.22,-13.47 -0.36,-0.34 -1.09,-1.03 -1.45,-1.38 m 9.1,5.43 c -0.04,1.76 -0.06,3.52 -0.08,5.29 3.2,-0.06 6.43,0.25 9.61,-0.25 2.1,-0.45 2.46,-4.11 0.26,-4.63 -3.21,-0.71 -6.53,-0.27 -9.79,-0.41 z" />
  <path
     style="fill:#fe1320"
     inkscape:connector-curvature="0"
     id="path98"
     d="m 247.11,226.07 c 4.19,0.1 8.38,0.17 12.56,-0.06 -0.81,3.16 1.56,5.95 2.45,8.84 2.54,5.42 4.14,11.34 7.52,16.33 -3.06,-0.06 -6.13,-0.04 -9.19,0.03 -0.2,-1.78 -0.63,-3.53 -1.08,-5.25 -3.96,-0.21 -7.92,-0.22 -11.86,0.01 -0.42,1.09 -0.85,2.17 -1.3,3.25 0.11,0.49 0.32,1.47 0.42,1.96 -2.83,-0.03 -5.66,-0.05 -8.49,-0.01 4.25,-7.32 6.39,-15.67 9.87,-23.38 -0.23,-0.43 -0.67,-1.29 -0.9,-1.72 m 1.79,15.82 c 2.95,0.01 5.9,0 8.86,-0.02 -1.57,-3.62 -3.06,-7.28 -4.67,-10.89 -1.42,3.63 -2.84,7.26 -4.19,10.91 z" />
  <path
     style="fill:#fe1320"
     inkscape:connector-curvature="0"
     id="path100"
     d="m 274.88,226.11 c 6.04,0.09 12.07,0.01 18.11,0.04 3.14,0.03 6.69,0.35 9.01,2.73 1.76,2.3 2.05,5.54 1.11,8.23 -1.06,2.67 -3.89,3.78 -6.28,4.95 2.27,3.1 4.35,6.37 7.11,9.08 -3.27,0 -6.55,0.01 -9.82,0.07 0.08,-0.49 0.24,-1.49 0.31,-1.99 -1.94,-2.5 -3.83,-5.02 -5.81,-7.48 -1.5,0.04 -3,0.09 -4.5,0.15 0.07,3.1 -0.37,6.32 0.73,9.31 -2.91,-0.07 -5.82,-0.07 -8.72,0 1.36,-7.82 0.3,-15.88 0.56,-23.8 -0.45,-0.32 -1.36,-0.97 -1.81,-1.29 m 9.27,5.52 c -0.01,1.67 -0.02,3.34 -0.03,5.02 3.31,-0.02 6.64,0.24 9.93,-0.17 2.58,-0.31 2.53,-4.58 -0.15,-4.63 -3.23,-0.46 -6.51,-0.17 -9.75,-0.22 z" />
  <path
     style="fill:#fe1320"
     inkscape:connector-curvature="0"
     id="path102"
     d="m 307.95,226.12 c 9.04,0.07 18.08,0.03 27.12,0.02 0.05,2.44 0.04,4.89 0,7.34 -0.43,-0.37 -1.29,-1.11 -1.72,-1.48 -2.71,0.07 -5.43,0.09 -8.14,0.1 0.47,6.35 -0.72,12.85 0.68,19.1 -2.99,-0.07 -5.97,-0.08 -8.94,0.02 0.67,-1.31 1.08,-2.73 0.96,-4.21 -0.01,-4.98 -0.07,-9.96 0,-14.94 -3.31,0.37 -7.29,-1.09 -10.02,1.36 0.05,-2.44 0.05,-4.88 0.06,-7.31 z" />
  <path
     style="fill:#fe1320"
     inkscape:connector-curvature="0"
     id="path104"
     d="m 338.09,226.13 c 3.64,0.04 7.29,0.05 10.93,-0.08 -0.26,0.42 -0.77,1.26 -1.02,1.68 1.76,2.48 3.5,4.98 5.24,7.49 1.71,-2.99 5.6,-5.49 5.08,-9.21 3,0.18 6.01,0.16 9.02,0.08 -3.52,4.66 -7.11,9.28 -10.32,14.15 -0.87,3.52 -0.5,7.37 0.15,10.93 -3.06,-0.03 -6.11,-0.02 -9.16,-0.02 0.3,-0.5 0.9,-1.5 1.2,-2 -0.28,-3.26 0.84,-7.04 -1.46,-9.78 -3.21,-4.43 -6.34,-8.9 -9.66,-13.24 z" />
</svg>
