<?xml version="1.0" encoding="UTF-8" standalone="no"?>
<!-- Created with Inkscape (http://www.inkscape.org/) -->
<svg
   xmlns:dc="http://purl.org/dc/elements/1.1/"
   xmlns:cc="http://creativecommons.org/ns#"
   xmlns:rdf="http://www.w3.org/1999/02/22-rdf-syntax-ns#"
   xmlns:svg="http://www.w3.org/2000/svg"
   xmlns="http://www.w3.org/2000/svg"
   xmlns:xlink="http://www.w3.org/1999/xlink"
   xmlns:sodipodi="http://sodipodi.sourceforge.net/DTD/sodipodi-0.dtd"
   xmlns:inkscape="http://www.inkscape.org/namespaces/inkscape"
   version="1.0"
   width="252.37746"
   height="262.10986"
   id="svg2"
   sodipodi:version="0.32"
   inkscape:version="0.46"
   sodipodi:docname="Libertarian Party.svg"
   inkscape:output_extension="org.inkscape.output.svg.inkscape">
  <metadata
     id="metadata4085">
    <rdf:RDF>
      <cc:Work
         rdf:about="">
        <dc:format>image/svg+xml</dc:format>
        <dc:type
           rdf:resource="http://purl.org/dc/dcmitype/StillImage" />
      </cc:Work>
    </rdf:RDF>
  </metadata>
  <sodipodi:namedview
     inkscape:window-height="721"
     inkscape:window-width="1024"
     inkscape:pageshadow="2"
     inkscape:pageopacity="0.0"
     guidetolerance="10.0"
     gridtolerance="10.0"
     objecttolerance="10.0"
     borderopacity="1.0"
     bordercolor="#666666"
     pagecolor="#ffffff"
     id="base"
     showgrid="false"
     inkscape:zoom="1.9381186"
     inkscape:cx="126.18873"
     inkscape:cy="131.05493"
     inkscape:window-x="-4"
     inkscape:window-y="-4"
     inkscape:current-layer="svg2" />
  <defs
     id="defs4">
    <inkscape:perspective
       sodipodi:type="inkscape:persp3d"
       inkscape:vp_x="0 : 131.05493 : 1"
       inkscape:vp_y="0 : 1000 : 0"
       inkscape:vp_z="252.37746 : 131.05493 : 1"
       inkscape:persp3d-origin="126.18873 : 87.369954 : 1"
       id="perspective4087" />
    <linearGradient
       id="linearGradient3564">
      <stop
         id="stop3566"
         style="stop-color:#ae841b;stop-opacity:1"
         offset="0" />
      <stop
         id="stop3568"
         style="stop-color:#ae841b;stop-opacity:0"
         offset="1" />
    </linearGradient>
    <linearGradient
       id="linearGradient3554">
      <stop
         id="stop3556"
         style="stop-color:#ead67a;stop-opacity:1"
         offset="0" />
      <stop
         id="stop3558"
         style="stop-color:#ae841b;stop-opacity:1"
         offset="1" />
    </linearGradient>
    <linearGradient
       id="linearGradient3544">
      <stop
         id="stop3546"
         style="stop-color:#0d0046;stop-opacity:1"
         offset="0" />
      <stop
         id="stop3548"
         style="stop-color:#0d0046;stop-opacity:0"
         offset="1" />
    </linearGradient>
    <linearGradient
       id="linearGradient3483">
      <stop
         id="stop3485"
         style="stop-color:#faf7e7;stop-opacity:1"
         offset="0" />
      <stop
         id="stop3487"
         style="stop-color:#faf7e7;stop-opacity:0"
         offset="1" />
    </linearGradient>
    <linearGradient
       id="linearGradient3407">
      <stop
         id="stop3409"
         style="stop-color:#e7d16b;stop-opacity:1"
         offset="0" />
      <stop
         id="stop3411"
         style="stop-color:#e7d16b;stop-opacity:0"
         offset="1" />
    </linearGradient>
    <linearGradient
       id="linearGradient3225">
      <stop
         id="stop3227"
         style="stop-color:#bc920f;stop-opacity:1"
         offset="0" />
      <stop
         id="stop3229"
         style="stop-color:#bc920f;stop-opacity:0"
         offset="1" />
    </linearGradient>
    <linearGradient
       id="linearGradient3215">
      <stop
         id="stop3217"
         style="stop-color:#f3e8b5;stop-opacity:1"
         offset="0" />
      <stop
         id="stop3219"
         style="stop-color:#f3e8b5;stop-opacity:0"
         offset="1" />
    </linearGradient>
    <linearGradient
       x1="197.69443"
       y1="410.01901"
       x2="159.90962"
       y2="410.55746"
       id="linearGradient3221"
       xlink:href="#linearGradient3215"
       gradientUnits="userSpaceOnUse" />
    <linearGradient
       x1="149.58073"
       y1="468.76932"
       x2="148.87151"
       y2="419.00079"
       id="linearGradient3231"
       xlink:href="#linearGradient3225"
       gradientUnits="userSpaceOnUse" />
    <linearGradient
       x1="197.69443"
       y1="410.01901"
       x2="159.90962"
       y2="410.55746"
       id="linearGradient3252"
       xlink:href="#linearGradient3215"
       gradientUnits="userSpaceOnUse" />
    <linearGradient
       x1="149.58073"
       y1="468.76932"
       x2="148.87151"
       y2="419.00079"
       id="linearGradient3254"
       xlink:href="#linearGradient3225"
       gradientUnits="userSpaceOnUse" />
    <linearGradient
       x1="197.69443"
       y1="410.01901"
       x2="159.90962"
       y2="410.55746"
       id="linearGradient3268"
       xlink:href="#linearGradient3215"
       gradientUnits="userSpaceOnUse" />
    <linearGradient
       x1="149.58073"
       y1="468.76932"
       x2="148.87151"
       y2="419.00079"
       id="linearGradient3270"
       xlink:href="#linearGradient3225"
       gradientUnits="userSpaceOnUse" />
    <linearGradient
       x1="197.69443"
       y1="410.01901"
       x2="159.90962"
       y2="410.55746"
       id="linearGradient3284"
       xlink:href="#linearGradient3215"
       gradientUnits="userSpaceOnUse" />
    <linearGradient
       x1="149.58073"
       y1="468.76932"
       x2="148.87151"
       y2="419.00079"
       id="linearGradient3286"
       xlink:href="#linearGradient3225"
       gradientUnits="userSpaceOnUse" />
    <linearGradient
       x1="197.69443"
       y1="410.01901"
       x2="159.90962"
       y2="410.55746"
       id="linearGradient3300"
       xlink:href="#linearGradient3215"
       gradientUnits="userSpaceOnUse" />
    <linearGradient
       x1="149.58073"
       y1="468.76932"
       x2="148.87151"
       y2="419.00079"
       id="linearGradient3302"
       xlink:href="#linearGradient3225"
       gradientUnits="userSpaceOnUse" />
    <linearGradient
       x1="197.69443"
       y1="410.01901"
       x2="159.90962"
       y2="410.55746"
       id="linearGradient3316"
       xlink:href="#linearGradient3215"
       gradientUnits="userSpaceOnUse" />
    <linearGradient
       x1="149.58073"
       y1="468.76932"
       x2="148.87151"
       y2="419.00079"
       id="linearGradient3318"
       xlink:href="#linearGradient3225"
       gradientUnits="userSpaceOnUse" />
    <linearGradient
       x1="197.69443"
       y1="410.01901"
       x2="159.90962"
       y2="410.55746"
       id="linearGradient3332"
       xlink:href="#linearGradient3215"
       gradientUnits="userSpaceOnUse" />
    <linearGradient
       x1="149.58073"
       y1="468.76932"
       x2="148.87151"
       y2="419.00079"
       id="linearGradient3334"
       xlink:href="#linearGradient3225"
       gradientUnits="userSpaceOnUse" />
    <linearGradient
       x1="197.69443"
       y1="410.01901"
       x2="159.90962"
       y2="410.55746"
       id="linearGradient3348"
       xlink:href="#linearGradient3215"
       gradientUnits="userSpaceOnUse" />
    <linearGradient
       x1="149.58073"
       y1="468.76932"
       x2="148.87151"
       y2="419.00079"
       id="linearGradient3350"
       xlink:href="#linearGradient3225"
       gradientUnits="userSpaceOnUse" />
    <linearGradient
       x1="197.69443"
       y1="410.01901"
       x2="159.90962"
       y2="410.55746"
       id="linearGradient3364"
       xlink:href="#linearGradient3215"
       gradientUnits="userSpaceOnUse" />
    <linearGradient
       x1="149.58073"
       y1="468.76932"
       x2="148.87151"
       y2="419.00079"
       id="linearGradient3366"
       xlink:href="#linearGradient3225"
       gradientUnits="userSpaceOnUse" />
    <linearGradient
       x1="197.69443"
       y1="410.01901"
       x2="159.90962"
       y2="410.55746"
       id="linearGradient3380"
       xlink:href="#linearGradient3215"
       gradientUnits="userSpaceOnUse" />
    <linearGradient
       x1="149.58073"
       y1="468.76932"
       x2="148.87151"
       y2="419.00079"
       id="linearGradient3382"
       xlink:href="#linearGradient3225"
       gradientUnits="userSpaceOnUse" />
    <linearGradient
       x1="197.69443"
       y1="410.01901"
       x2="159.90962"
       y2="410.55746"
       id="linearGradient3396"
       xlink:href="#linearGradient3215"
       gradientUnits="userSpaceOnUse" />
    <linearGradient
       x1="149.58073"
       y1="468.76932"
       x2="148.87151"
       y2="419.00079"
       id="linearGradient3398"
       xlink:href="#linearGradient3225"
       gradientUnits="userSpaceOnUse" />
    <linearGradient
       x1="155.88834"
       y1="390.97162"
       x2="130.57162"
       y2="504.4548"
       id="linearGradient3413"
       xlink:href="#linearGradient3407"
       gradientUnits="userSpaceOnUse" />
    <linearGradient
       x1="197.69443"
       y1="410.01901"
       x2="159.90962"
       y2="410.55746"
       id="linearGradient3427"
       xlink:href="#linearGradient3215"
       gradientUnits="userSpaceOnUse" />
    <linearGradient
       x1="149.58073"
       y1="468.76932"
       x2="148.87151"
       y2="419.00079"
       id="linearGradient3429"
       xlink:href="#linearGradient3225"
       gradientUnits="userSpaceOnUse" />
    <linearGradient
       x1="155.88834"
       y1="390.97162"
       x2="130.57162"
       y2="504.4548"
       id="linearGradient3431"
       xlink:href="#linearGradient3407"
       gradientUnits="userSpaceOnUse" />
    <linearGradient
       x1="197.69443"
       y1="410.01901"
       x2="159.90962"
       y2="410.55746"
       id="linearGradient3451"
       xlink:href="#linearGradient3215"
       gradientUnits="userSpaceOnUse" />
    <linearGradient
       x1="149.58073"
       y1="468.76932"
       x2="148.87151"
       y2="419.00079"
       id="linearGradient3453"
       xlink:href="#linearGradient3225"
       gradientUnits="userSpaceOnUse" />
    <linearGradient
       x1="155.88834"
       y1="390.97162"
       x2="130.57162"
       y2="504.4548"
       id="linearGradient3455"
       xlink:href="#linearGradient3407"
       gradientUnits="userSpaceOnUse" />
    <linearGradient
       x1="197.69443"
       y1="410.01901"
       x2="159.90962"
       y2="410.55746"
       id="linearGradient3469"
       xlink:href="#linearGradient3215"
       gradientUnits="userSpaceOnUse" />
    <linearGradient
       x1="149.58073"
       y1="468.76932"
       x2="148.87151"
       y2="419.00079"
       id="linearGradient3471"
       xlink:href="#linearGradient3225"
       gradientUnits="userSpaceOnUse" />
    <linearGradient
       x1="155.88834"
       y1="390.97162"
       x2="130.57162"
       y2="504.4548"
       id="linearGradient3473"
       xlink:href="#linearGradient3407"
       gradientUnits="userSpaceOnUse" />
    <radialGradient
       cx="247.56972"
       cy="302.13513"
       r="160.84915"
       fx="247.56972"
       fy="302.13513"
       id="radialGradient3489"
       xlink:href="#linearGradient3483"
       gradientUnits="userSpaceOnUse"
       gradientTransform="matrix(0.1426024,0.6779607,-0.9875916,0.1703486,512.82398,96.342112)" />
    <linearGradient
       x1="264.26862"
       y1="617.75842"
       x2="262.4021"
       y2="525.63928"
       id="linearGradient3550"
       xlink:href="#linearGradient3544"
       gradientUnits="userSpaceOnUse" />
    <linearGradient
       x1="254.93596"
       y1="608.46198"
       x2="212.939"
       y2="472.39609"
       id="linearGradient3560"
       xlink:href="#linearGradient3554"
       gradientUnits="userSpaceOnUse" />
    <linearGradient
       x1="240.93698"
       y1="616.4101"
       x2="240.93698"
       y2="540.77686"
       id="linearGradient3570"
       xlink:href="#linearGradient3564"
       gradientUnits="userSpaceOnUse" />
    <linearGradient
       inkscape:collect="always"
       xlink:href="#linearGradient3407"
       id="linearGradient4093"
       gradientUnits="userSpaceOnUse"
       x1="155.88834"
       y1="390.97162"
       x2="130.57162"
       y2="504.4548"
       gradientTransform="matrix(0.17656,2.5160651e-3,-2.5160651e-3,0.17656,40.25138,123.62775)" />
    <linearGradient
       inkscape:collect="always"
       xlink:href="#linearGradient3225"
       id="linearGradient4096"
       gradientUnits="userSpaceOnUse"
       x1="149.58073"
       y1="468.76932"
       x2="148.87151"
       y2="419.00079"
       gradientTransform="matrix(0.17656,2.5160651e-3,-2.5160651e-3,0.17656,40.25138,123.62775)" />
    <linearGradient
       inkscape:collect="always"
       xlink:href="#linearGradient3215"
       id="linearGradient4099"
       gradientUnits="userSpaceOnUse"
       x1="197.69443"
       y1="410.01901"
       x2="159.90962"
       y2="410.55746"
       gradientTransform="matrix(0.17656,2.5160651e-3,-2.5160651e-3,0.17656,40.25138,123.62775)" />
    <linearGradient
       inkscape:collect="always"
       xlink:href="#linearGradient3407"
       id="linearGradient4105"
       gradientUnits="userSpaceOnUse"
       x1="155.88834"
       y1="390.97162"
       x2="130.57162"
       y2="504.4548"
       gradientTransform="matrix(0.17656,2.5160651e-3,-2.5160651e-3,0.17656,78.29498,150.57531)" />
    <linearGradient
       inkscape:collect="always"
       xlink:href="#linearGradient3225"
       id="linearGradient4108"
       gradientUnits="userSpaceOnUse"
       x1="149.58073"
       y1="468.76932"
       x2="148.87151"
       y2="419.00079"
       gradientTransform="matrix(0.17656,2.5160651e-3,-2.5160651e-3,0.17656,78.29498,150.57531)" />
    <linearGradient
       inkscape:collect="always"
       xlink:href="#linearGradient3215"
       id="linearGradient4111"
       gradientUnits="userSpaceOnUse"
       x1="197.69443"
       y1="410.01901"
       x2="159.90962"
       y2="410.55746"
       gradientTransform="matrix(0.17656,2.5160651e-3,-2.5160651e-3,0.17656,78.29498,150.57531)" />
    <linearGradient
       inkscape:collect="always"
       xlink:href="#linearGradient3407"
       id="linearGradient4117"
       gradientUnits="userSpaceOnUse"
       x1="155.88834"
       y1="390.97162"
       x2="130.57162"
       y2="504.4548"
       gradientTransform="matrix(0.17656,2.5160651e-3,-2.5160651e-3,0.17656,124.26433,150.57531)" />
    <linearGradient
       inkscape:collect="always"
       xlink:href="#linearGradient3225"
       id="linearGradient4120"
       gradientUnits="userSpaceOnUse"
       x1="149.58073"
       y1="468.76932"
       x2="148.87151"
       y2="419.00079"
       gradientTransform="matrix(0.17656,2.5160651e-3,-2.5160651e-3,0.17656,124.26433,150.57531)" />
    <linearGradient
       inkscape:collect="always"
       xlink:href="#linearGradient3215"
       id="linearGradient4123"
       gradientUnits="userSpaceOnUse"
       x1="197.69443"
       y1="410.01901"
       x2="159.90962"
       y2="410.55746"
       gradientTransform="matrix(0.17656,2.5160651e-3,-2.5160651e-3,0.17656,124.26433,150.57531)" />
    <linearGradient
       inkscape:collect="always"
       xlink:href="#linearGradient3407"
       id="linearGradient4129"
       gradientUnits="userSpaceOnUse"
       x1="155.88834"
       y1="390.97162"
       x2="130.57162"
       y2="504.4548"
       gradientTransform="matrix(0.17656,2.5160651e-3,-2.5160651e-3,0.17656,160.40575,123.62775)" />
    <linearGradient
       inkscape:collect="always"
       xlink:href="#linearGradient3225"
       id="linearGradient4132"
       gradientUnits="userSpaceOnUse"
       x1="149.58073"
       y1="468.76932"
       x2="148.87151"
       y2="419.00079"
       gradientTransform="matrix(0.17656,2.5160651e-3,-2.5160651e-3,0.17656,160.40575,123.62775)" />
    <linearGradient
       inkscape:collect="always"
       xlink:href="#linearGradient3215"
       id="linearGradient4135"
       gradientUnits="userSpaceOnUse"
       x1="197.69443"
       y1="410.01901"
       x2="159.90962"
       y2="410.55746"
       gradientTransform="matrix(0.17656,2.5160651e-3,-2.5160651e-3,0.17656,160.40575,123.62775)" />
    <radialGradient
       inkscape:collect="always"
       xlink:href="#linearGradient3483"
       id="radialGradient4215"
       gradientUnits="userSpaceOnUse"
       gradientTransform="matrix(7.883902e-2,0.4139051,-0.5459989,0.1040004,268.98696,-68.605695)"
       cx="247.56972"
       cy="302.13513"
       fx="247.56972"
       fy="302.13513"
       r="160.84915" />
    <linearGradient
       inkscape:collect="always"
       xlink:href="#linearGradient3564"
       id="linearGradient4218"
       gradientUnits="userSpaceOnUse"
       x1="240.93698"
       y1="616.4101"
       x2="240.93698"
       y2="540.77686"
       gradientTransform="matrix(0.552859,0,0,0.6105149,-14.53239,-127.42399)" />
    <radialGradient
       inkscape:collect="always"
       xlink:href="#linearGradient3483"
       id="radialGradient4225"
       gradientUnits="userSpaceOnUse"
       gradientTransform="matrix(7.7833066e-2,0.4086238,-0.5390322,0.1026734,267.15336,-65.8698)"
       cx="247.56972"
       cy="302.13513"
       fx="247.56972"
       fy="302.13513"
       r="160.84915" />
  </defs>
  <path
     style="fill:#ffffff;fill-opacity:1;fill-rule:nonzero;stroke:#0d0046;stroke-width:1.70489514;stroke-linecap:butt;stroke-linejoin:miter;marker:none;marker-start:none;marker-mid:none;marker-end:none;stroke-miterlimit:4;stroke-dasharray:none;stroke-dashoffset:0;stroke-opacity:1;visibility:visible;display:inline;overflow:visible;enable-background:accumulate"
     id="path3501"
     d="M 231.5617,145.65393 C 231.5617,204.74709 183.90828,252.65156 125.12481,252.65156 C 66.341334,252.65156 18.687917,204.74709 18.687917,145.65393 C 18.687917,86.560774 66.341334,38.656305 125.12481,38.656305 C 183.90828,38.656305 231.5617,86.560774 231.5617,145.65393 L 231.5617,145.65393 z" />
  <path
     style="fill:#0d0046;fill-opacity:1;fill-rule:nonzero;stroke:#0d0046;stroke-width:0;stroke-linecap:butt;stroke-linejoin:miter;marker:none;marker-start:none;marker-mid:none;marker-end:none;stroke-miterlimit:4;stroke-dasharray:none;stroke-dashoffset:0;stroke-opacity:1;visibility:visible;display:inline;overflow:visible;enable-background:accumulate"
     id="path3497"
     d="M 225.25436,145.65394 C 225.25436,201.24529 180.42484,246.31097 125.12483,246.31097 C 69.824817,246.31097 24.995302,201.24529 24.995302,145.65394 C 24.995302,90.062601 69.824817,44.996913 125.12483,44.996913 C 180.42484,44.996913 225.25436,90.062601 225.25436,145.65394 L 225.25436,145.65394 z" />
  <path
     style="fill:#ead67a;fill-opacity:1;stroke:#0d0046;stroke-width:0;stroke-linecap:butt;stroke-linejoin:miter;stroke-miterlimit:4;stroke-dasharray:none;stroke-opacity:1"
     id="path3495"
     d="M 221.15454,145.6539 C 221.15454,198.96905 178.16056,242.18952 125.12481,242.18952 C 72.089053,242.18952 29.095082,198.96905 29.095082,145.6539 C 29.095082,92.33874 72.089053,49.118269 125.12481,49.118269 C 178.16056,49.118269 221.15454,92.33874 221.15454,145.6539 L 221.15454,145.6539 z" />
  <path
     style="fill:#ae841b;fill-opacity:1;stroke:#0d0046;stroke-width:0;stroke-linecap:butt;stroke-linejoin:miter;stroke-miterlimit:4;stroke-dasharray:none;stroke-opacity:1"
     id="path3491"
     d="M 215.47838,144.70284 C 215.47838,194.69128 175.09668,235.21491 125.28334,235.21491 C 75.469996,235.21491 35.088306,194.69128 35.088306,144.70284 C 35.088306,94.714409 75.469996,54.190777 125.28334,54.190777 C 175.09668,54.190777 215.47838,94.714409 215.47838,144.70284 L 215.47838,144.70284 z" />
  <path
     style="fill:#d9b214;fill-opacity:1;stroke:#0d0046;stroke-width:0;stroke-linecap:butt;stroke-linejoin:miter;stroke-miterlimit:4;stroke-dasharray:none;stroke-opacity:1"
     id="path3479"
     d="M 214.21021,145.81245 C 214.21021,195.18807 174.39628,235.21491 125.28331,235.21491 C 76.170338,235.21491 36.35641,195.18807 36.35641,145.81245 C 36.35641,96.43683 76.170338,56.409983 125.28331,56.409983 C 174.39628,56.409983 214.21021,96.43683 214.21021,145.81245 L 214.21021,145.81245 z" />
  <path
     style="fill:url(#radialGradient4225);fill-opacity:1;stroke:#0d0046;stroke-width:0;stroke-linecap:butt;stroke-linejoin:miter;stroke-miterlimit:4;stroke-dasharray:none;stroke-opacity:1"
     id="path3481"
     d="M 213.07554,145.81245 C 213.07554,194.55806 173.76962,234.07417 125.28331,234.07417 C 76.797002,234.07417 37.491085,194.55806 37.491085,145.81245 C 37.491085,97.066845 76.797002,57.550726 125.28331,57.550726 C 173.76962,57.550726 213.07554,97.066845 213.07554,145.81245 L 213.07554,145.81245 z" />
  <g
     id="g3368"
     transform="matrix(0.3409791,0,0,0.3409791,82.95984,-35.48422)">
    <path
       style="opacity:1;fill:#eee097;fill-opacity:1;stroke:#0d0046;stroke-width:0;stroke-linecap:butt;stroke-linejoin:miter;stroke-miterlimit:4;stroke-dasharray:none;stroke-opacity:1"
       id="path3370"
       transform="matrix(0.9338398,1.2792225e-2,-1.330767e-2,0.8976695,117.81206,67.141664)"
       d="M 172.93608,447.08593 L 148.92893,430.27745 L 125.28333,447.59085 L 133.85052,419.56458 L 110.07761,402.42641 L 139.37957,401.9137 L 148.33271,374.00833 L 157.87513,401.71772 L 187.18139,401.60943 L 163.77696,419.24749 L 172.93608,447.08593 z" />
    <path
       style="opacity:1;fill:#be9613;fill-opacity:1;stroke:#0d0046;stroke-width:0;stroke-linecap:butt;stroke-linejoin:miter;stroke-miterlimit:4;stroke-dasharray:none;stroke-opacity:1"
       id="path3372"
       transform="matrix(0.9579534,1.2792225e-2,-1.36513e-2,0.8976695,109.7174,67.141664)"
       d="M 172.93608,447.08593 L 148.92893,430.27745 L 125.28333,447.59085 L 133.85052,419.56458 L 110.07761,402.42641 L 139.37957,401.9137 L 148.33271,374.00833 L 157.87513,401.71772 L 187.18139,401.60943 L 163.77696,419.24749 L 172.93608,447.08593 z" />
    <path
       style="opacity:1;fill:#d9b214;fill-opacity:1;stroke:#0d0046;stroke-width:0;stroke-linecap:butt;stroke-linejoin:miter;stroke-miterlimit:4;stroke-dasharray:none;stroke-opacity:1"
       id="path3374"
       transform="matrix(0.8976695,1.2792225e-2,-1.2792225e-2,0.8976695,120.65641,67.141664)"
       d="M 172.93608,447.08593 L 148.92893,430.27745 L 125.28333,447.59085 L 133.85052,419.56458 L 110.07761,402.42641 L 139.37957,401.9137 L 148.33271,374.00833 L 157.87513,401.71772 L 187.18139,401.60943 L 163.77696,419.24749 L 172.93608,447.08593 z" />
    <path
       style="opacity:1;fill:url(#linearGradient3380);fill-opacity:1;stroke:#0d0046;stroke-width:0;stroke-linecap:butt;stroke-linejoin:miter;stroke-miterlimit:4;stroke-dasharray:none;stroke-opacity:1"
       id="path3376"
       transform="matrix(0.8976695,1.2792225e-2,-1.2792225e-2,0.8976695,120.65641,67.141664)"
       d="M 172.93608,447.08593 L 148.92893,430.27745 L 125.28333,447.59085 L 133.85052,419.56458 L 110.07761,402.42641 L 139.37957,401.9137 L 148.33271,374.00833 L 157.87513,401.71772 L 187.18139,401.60943 L 163.77696,419.24749 L 172.93608,447.08593 z" />
    <path
       style="opacity:1;fill:url(#linearGradient3382);fill-opacity:1;stroke:#0d0046;stroke-width:0;stroke-linecap:butt;stroke-linejoin:miter;stroke-miterlimit:4;stroke-dasharray:none;stroke-opacity:1"
       id="path3378"
       transform="matrix(0.8976695,1.2792225e-2,-1.2792225e-2,0.8976695,120.65641,67.141664)"
       d="M 172.93608,447.08593 L 148.92893,430.27745 L 125.28333,447.59085 L 133.85052,419.56458 L 110.07761,402.42641 L 139.37957,401.9137 L 148.33271,374.00833 L 157.87513,401.71772 L 187.18139,401.60943 L 163.77696,419.24749 L 172.93608,447.08593 z" />
  </g>
  <g
     id="g3256"
     transform="matrix(0.196687,0,0,0.196687,48.22282,-14.48796)">
    <path
       style="opacity:1;fill:#eee097;fill-opacity:1;stroke:#0d0046;stroke-width:0;stroke-linecap:butt;stroke-linejoin:miter;stroke-miterlimit:4;stroke-dasharray:none;stroke-opacity:1"
       id="path3258"
       transform="matrix(0.9338398,1.2792225e-2,-1.330767e-2,0.8976695,117.81206,67.141664)"
       d="M 172.93608,447.08593 L 148.92893,430.27745 L 125.28333,447.59085 L 133.85052,419.56458 L 110.07761,402.42641 L 139.37957,401.9137 L 148.33271,374.00833 L 157.87513,401.71772 L 187.18139,401.60943 L 163.77696,419.24749 L 172.93608,447.08593 z" />
    <path
       style="opacity:1;fill:#be9613;fill-opacity:1;stroke:#0d0046;stroke-width:0;stroke-linecap:butt;stroke-linejoin:miter;stroke-miterlimit:4;stroke-dasharray:none;stroke-opacity:1"
       id="path3260"
       transform="matrix(0.9579534,1.2792225e-2,-1.36513e-2,0.8976695,109.7174,67.141664)"
       d="M 172.93608,447.08593 L 148.92893,430.27745 L 125.28333,447.59085 L 133.85052,419.56458 L 110.07761,402.42641 L 139.37957,401.9137 L 148.33271,374.00833 L 157.87513,401.71772 L 187.18139,401.60943 L 163.77696,419.24749 L 172.93608,447.08593 z" />
    <path
       style="opacity:1;fill:#d9b214;fill-opacity:1;stroke:#0d0046;stroke-width:0;stroke-linecap:butt;stroke-linejoin:miter;stroke-miterlimit:4;stroke-dasharray:none;stroke-opacity:1"
       id="path3262"
       transform="matrix(0.8976695,1.2792225e-2,-1.2792225e-2,0.8976695,120.65641,67.141664)"
       d="M 172.93608,447.08593 L 148.92893,430.27745 L 125.28333,447.59085 L 133.85052,419.56458 L 110.07761,402.42641 L 139.37957,401.9137 L 148.33271,374.00833 L 157.87513,401.71772 L 187.18139,401.60943 L 163.77696,419.24749 L 172.93608,447.08593 z" />
    <path
       style="opacity:1;fill:url(#linearGradient3268);fill-opacity:1;stroke:#0d0046;stroke-width:0;stroke-linecap:butt;stroke-linejoin:miter;stroke-miterlimit:4;stroke-dasharray:none;stroke-opacity:1"
       id="path3264"
       transform="matrix(0.8976695,1.2792225e-2,-1.2792225e-2,0.8976695,120.65641,67.141664)"
       d="M 172.93608,447.08593 L 148.92893,430.27745 L 125.28333,447.59085 L 133.85052,419.56458 L 110.07761,402.42641 L 139.37957,401.9137 L 148.33271,374.00833 L 157.87513,401.71772 L 187.18139,401.60943 L 163.77696,419.24749 L 172.93608,447.08593 z" />
    <path
       style="opacity:1;fill:url(#linearGradient3270);fill-opacity:1;stroke:#0d0046;stroke-width:0;stroke-linecap:butt;stroke-linejoin:miter;stroke-miterlimit:4;stroke-dasharray:none;stroke-opacity:1"
       id="path3266"
       transform="matrix(0.8976695,1.2792225e-2,-1.2792225e-2,0.8976695,120.65641,67.141664)"
       d="M 172.93608,447.08593 L 148.92893,430.27745 L 125.28333,447.59085 L 133.85052,419.56458 L 110.07761,402.42641 L 139.37957,401.9137 L 148.33271,374.00833 L 157.87513,401.71772 L 187.18139,401.60943 L 163.77696,419.24749 L 172.93608,447.08593 z" />
  </g>
  <g
     id="g3233"
     transform="matrix(0.3409791,0,0,0.3409791,-0.10202,-35.48422)">
    <path
       style="opacity:1;fill:#eee097;fill-opacity:1;stroke:#0d0046;stroke-width:0;stroke-linecap:butt;stroke-linejoin:miter;stroke-miterlimit:4;stroke-dasharray:none;stroke-opacity:1"
       id="path3211"
       transform="matrix(0.9338398,1.2792225e-2,-1.330767e-2,0.8976695,117.81206,67.141664)"
       d="M 172.93608,447.08593 L 148.92893,430.27745 L 125.28333,447.59085 L 133.85052,419.56458 L 110.07761,402.42641 L 139.37957,401.9137 L 148.33271,374.00833 L 157.87513,401.71772 L 187.18139,401.60943 L 163.77696,419.24749 L 172.93608,447.08593 z" />
    <path
       style="opacity:1;fill:#be9613;fill-opacity:1;stroke:#0d0046;stroke-width:0;stroke-linecap:butt;stroke-linejoin:miter;stroke-miterlimit:4;stroke-dasharray:none;stroke-opacity:1"
       id="path3209"
       transform="matrix(0.9579534,1.2792225e-2,-1.36513e-2,0.8976695,109.7174,67.141664)"
       d="M 172.93608,447.08593 L 148.92893,430.27745 L 125.28333,447.59085 L 133.85052,419.56458 L 110.07761,402.42641 L 139.37957,401.9137 L 148.33271,374.00833 L 157.87513,401.71772 L 187.18139,401.60943 L 163.77696,419.24749 L 172.93608,447.08593 z" />
    <path
       style="opacity:1;fill:#d9b214;fill-opacity:1;stroke:#0d0046;stroke-width:0;stroke-linecap:butt;stroke-linejoin:miter;stroke-miterlimit:4;stroke-dasharray:none;stroke-opacity:1"
       id="path3207"
       transform="matrix(0.8976695,1.2792225e-2,-1.2792225e-2,0.8976695,120.65641,67.141664)"
       d="M 172.93608,447.08593 L 148.92893,430.27745 L 125.28333,447.59085 L 133.85052,419.56458 L 110.07761,402.42641 L 139.37957,401.9137 L 148.33271,374.00833 L 157.87513,401.71772 L 187.18139,401.60943 L 163.77696,419.24749 L 172.93608,447.08593 z" />
    <path
       style="opacity:1;fill:url(#linearGradient3221);fill-opacity:1;stroke:#0d0046;stroke-width:0;stroke-linecap:butt;stroke-linejoin:miter;stroke-miterlimit:4;stroke-dasharray:none;stroke-opacity:1"
       id="path3213"
       transform="matrix(0.8976695,1.2792225e-2,-1.2792225e-2,0.8976695,120.65641,67.141664)"
       d="M 172.93608,447.08593 L 148.92893,430.27745 L 125.28333,447.59085 L 133.85052,419.56458 L 110.07761,402.42641 L 139.37957,401.9137 L 148.33271,374.00833 L 157.87513,401.71772 L 187.18139,401.60943 L 163.77696,419.24749 L 172.93608,447.08593 z" />
    <path
       style="opacity:1;fill:url(#linearGradient3231);fill-opacity:1;stroke:#0d0046;stroke-width:0;stroke-linecap:butt;stroke-linejoin:miter;stroke-miterlimit:4;stroke-dasharray:none;stroke-opacity:1"
       id="path3223"
       transform="matrix(0.8976695,1.2792225e-2,-1.2792225e-2,0.8976695,120.65641,67.141664)"
       d="M 172.93608,447.08593 L 148.92893,430.27745 L 125.28333,447.59085 L 133.85052,419.56458 L 110.07761,402.42641 L 139.37957,401.9137 L 148.33271,374.00833 L 157.87513,401.71772 L 187.18139,401.60943 L 163.77696,419.24749 L 172.93608,447.08593 z" />
  </g>
  <path
     style="fill:#ffffff;fill-rule:evenodd;stroke:#000000;stroke-width:0.34097904px;stroke-linecap:butt;stroke-linejoin:miter;stroke-opacity:1"
     id="path3202"
     d="M 97.23499,28.99497 C 98.18358,28.04638 100.44891,20.1787 100.44891,20.1787 L 114.29838,14.67685 C 114.29838,14.67685 118.6619,18.85066 119.04135,19.60955 C 119.42078,20.36842 118.6619,24.35251 118.6619,24.35251 L 101.77694,31.56183 L 97.23499,28.99497 z" />
  <path
     style="fill:#0d0046;fill-opacity:1;fill-rule:evenodd;stroke:#000000;stroke-width:0;stroke-linecap:butt;stroke-linejoin:miter;stroke-miterlimit:4;stroke-dasharray:none;stroke-opacity:1"
     id="path3182"
     d="M 96.57304,154.01523 C 92.81017,145.25571 96.78392,146.97846 96.77657,142.21071 C 98.06451,139.15781 96.94829,136.10491 96.77657,133.05201 C 93.6817,133.76096 91.29471,133.16304 95.14835,121.04395 C 96.46584,119.55143 95.07532,118.0589 94.94483,116.56637 C 87.61163,108.43304 92.55314,102.04033 100.64357,94.99256 L 112.85516,91.73615 L 117.53627,92.1432 L 117.94332,96.82431 L 119.97859,99.26663 L 122.62443,99.47015 L 147.11339,115.30995 C 151.23195,123.32707 146.72388,120.76083 148.47229,126.53917 C 150.82775,132.64876 158.48465,131.30735 162.92267,137.52959 C 163.3159,139.33496 164.03258,140.16997 163.9403,143.43187 C 166.32438,146.41051 167.86549,149.95114 168.6214,154.01523 L 96.57304,154.01523 z" />
  <path
     style="fill:#ffffff;fill-rule:evenodd;stroke:#000000;stroke-width:0;stroke-linecap:butt;stroke-linejoin:miter;stroke-miterlimit:4;stroke-dasharray:none;stroke-opacity:1"
     id="path3174"
     d="M 98.33959,147.65698 C 115.94595,148.03881 129.65346,138.67346 144.38175,131.86009 C 136.28823,136.92197 127.11023,143.05529 116.25557,147.65698 C 121.64963,148.8477 129.93337,146.40749 135.32743,144.57466 C 130.16171,150.40203 94.82024,160.33689 98.33959,147.65698 z" />
  <rect
     style="fill:#0d0046;fill-opacity:1;stroke:#ffffff;stroke-width:0;stroke-linecap:butt;stroke-linejoin:miter;stroke-miterlimit:4;stroke-dasharray:none;stroke-opacity:1"
     id="rect2396"
     transform="matrix(1,0,-0.2013977,0.9795096,0,0)"
     y="155.50725"
     x="46.408207"
     height="33.7794"
     width="229.00174" />
  <path
     style="fill:#ffffff;fill-rule:evenodd;stroke:#000000;stroke-width:0;stroke-linecap:butt;stroke-linejoin:miter;stroke-miterlimit:4;stroke-dasharray:none;stroke-opacity:1"
     id="path3176"
     d="M 98.72487,142.45557 C 104.17499,134.23605 113.91353,126.01653 121.64963,117.797 C 114.75952,126.49202 108.64612,136.74048 100.84397,143.61144 C 99.27126,145.22302 98.07762,143.52308 98.72487,142.45557 z" />
  <path
     style="fill:#ffffff;fill-rule:evenodd;stroke:#000000;stroke-width:0;stroke-linecap:butt;stroke-linejoin:miter;stroke-miterlimit:4;stroke-dasharray:none;stroke-opacity:1"
     id="path3178"
     d="M 98.43007,117.44017 C 100.09666,118.42704 103.37005,119.0454 106.92117,118.14776 C 105.88592,119.75625 104.43763,121.57127 104.2677,122.7471 C 104.18396,125.74808 117.00946,115.54644 123.90336,111.24874 C 112.33766,121.3108 99.98583,132.43412 97.54558,130.17682 C 93.33061,128.23829 98.69613,122.39222 98.43007,117.44017 z" />
  <path
     style="fill:#ffffff;fill-opacity:1;fill-rule:evenodd;stroke:#0d0046;stroke-width:1.70489526;stroke-linecap:butt;stroke-linejoin:miter;stroke-miterlimit:4;stroke-dasharray:none;stroke-opacity:1"
     id="path3184"
     d="M 101.6612,109.64647 C 101.51674,101.10715 100.82164,93.11845 101.6612,83.59508 C 101.44248,72.60465 102.15233,61.61423 104.10352,50.6238 C 102.06825,47.23169 101.6612,43.56822 102.88236,39.63337 L 112.44811,40.04042 L 111.02343,54.28728 C 110.73544,65.41755 112.59657,76.44921 111.77623,81.19119 C 114.22012,91.01565 112.32161,94.64468 112.65163,98.65604 C 110.82931,102.31952 105.92488,105.98299 101.6612,109.64647 z" />
  <path
     style="fill:#ffffff;fill-rule:evenodd;stroke:#000000;stroke-width:0;stroke-linecap:butt;stroke-linejoin:miter;stroke-miterlimit:4;stroke-dasharray:none;stroke-opacity:1"
     id="path3180"
     d="M 113.64329,99.21969 C 110.05298,103.54406 106.69467,108.56437 102.67562,111.60254 C 100.78746,114.50531 108.73851,111.08287 112.7588,110.18736 C 102.88687,115.94203 98.59253,116.73886 97.19179,114.9636 C 94.85339,112.08306 98.86923,110.65547 102.14493,108.77217 C 105.64035,107.61216 109.7021,103.05424 113.64329,99.21969 z" />
  <path
     style="font-size:128.95785522px;font-style:normal;font-weight:normal;text-align:start;line-height:125%;text-anchor:start;fill:#ffffff;fill-opacity:1;stroke:#ffffff;stroke-width:0.67915899;stroke-linecap:butt;stroke-linejoin:miter;stroke-miterlimit:4;stroke-opacity:1;font-family:Bitstream Vera Sans"
     id="text2398"
     d="M 14.509289,180.83698 L 14.688304,180.21661 L 16.576109,180.21661 L 22.239517,155.81568 L 20.319165,155.81568 L 20.481907,155.15773 L 30.881111,155.15773 L 30.750916,155.81568 L 28.781744,155.81568 L 23.150873,180.21661 L 24.241245,180.21661 C 26.812554,180.21661 28.974306,179.62758 30.726511,178.44951 C 32.478678,177.27146 33.940644,175.4229 35.1124,172.90385 L 35.681991,172.90385 L 33.680273,180.83698 L 14.509289,180.83698 z M 35.535523,180.83698 L 35.714547,180.21661 L 37.602353,180.21661 L 43.26576,155.81568 L 41.377955,155.81568 L 41.50815,155.15773 L 51.842261,155.15773 L 51.712066,155.81568 L 49.807987,155.81568 L 44.177117,180.21661 L 46.032376,180.21661 L 45.902181,180.83698 L 35.535523,180.83698 z M 59.963074,167.2078 L 60.158362,167.2078 C 61.199905,167.20781 62.057008,167.03862 62.72969,166.70023 C 63.402345,166.36187 63.982784,165.81044 64.471027,165.04593 C 64.872443,164.40679 65.227756,163.48251 65.536984,162.27309 C 65.846175,161.06373 66.000785,159.9264 66.000794,158.8611 C 66.000785,157.7332 65.786507,156.93738 65.357969,156.47365 C 64.929404,156.00997 64.19977,155.77812 63.169086,155.77809 C 63.103984,155.77812 63.003627,155.78439 62.868017,155.79689 C 62.732388,155.80945 62.632032,155.81572 62.566949,155.81568 L 59.963074,167.2078 z M 56.936078,180.21661 C 57.033717,180.22914 57.144922,180.23855 57.269702,180.24481 C 57.394464,180.25108 57.570762,180.25421 57.798605,180.25421 C 58.688255,180.25421 59.463992,180.11322 60.125816,179.83123 C 60.787622,179.54925 61.368071,179.11374 61.867153,178.52472 C 62.453017,177.82289 62.949374,176.80776 63.356242,175.4793 C 63.763082,174.15086 63.966511,172.85374 63.96653,171.58794 C 63.966511,170.32216 63.632887,169.37908 62.965666,168.75871 C 62.298408,168.13836 61.286695,167.82817 59.930528,167.82816 L 59.800333,167.82816 L 56.936078,180.21661 z M 48.32704,180.83698 L 48.473499,180.21661 L 50.361305,180.21661 L 56.024722,155.81568 L 54.136916,155.81568 L 54.267111,155.15773 L 64.666315,155.15773 C 67.302717,155.15775 69.228494,155.5964 70.443645,156.47365 C 71.658768,157.35095 72.266339,158.73581 72.266358,160.6282 C 72.266339,162.62089 71.588242,164.21253 70.232084,165.40311 C 68.875889,166.59372 66.906708,167.30808 64.324559,167.54618 C 66.375088,167.75925 67.921137,168.34827 68.962698,169.31327 C 70.004231,170.27829 70.525002,171.60674 70.52502,173.29863 C 70.525002,175.71742 69.613645,177.57851 67.790961,178.8819 C 65.968229,180.18528 63.348091,180.83698 59.930528,180.83698 L 48.32704,180.83698 z M 71.273635,180.83698 L 71.45265,180.21661 L 73.340456,180.21661 L 79.003873,155.81568 L 77.083521,155.81568 L 77.246262,155.15773 L 95.50589,155.15773 L 93.715733,163.35404 L 93.146133,163.35404 C 93.156963,163.22873 93.165104,163.09713 93.170547,162.95926 C 93.175953,162.82142 93.17866,162.62089 93.178679,162.35769 C 93.17866,160.12692 92.652465,158.47262 91.600083,157.39479 C 90.547674,156.31701 88.931107,155.77812 86.750383,155.77809 C 86.43573,155.77812 86.191623,155.78125 86.018042,155.78749 C 85.844442,155.79378 85.687125,155.80318 85.54609,155.81568 L 82.844577,167.1326 C 82.985611,167.14515 83.137504,167.15455 83.300255,167.1608 C 83.462987,167.16708 83.701671,167.17022 84.016314,167.17021 C 85.622023,167.17022 86.894125,166.86317 87.832613,166.24906 C 88.771073,165.63498 89.484424,164.6449 89.972668,163.27883 L 90.509712,163.27883 L 88.345252,172.79106 L 87.808199,172.67827 C 87.808189,172.65321 87.813614,172.60935 87.824472,172.54668 C 87.857009,172.08298 87.873282,171.73834 87.873301,171.51273 C 87.873282,170.19683 87.550516,169.24749 86.904984,168.66471 C 86.259432,168.08196 85.204325,167.79057 83.73966,167.79056 C 83.457563,167.79057 83.23786,167.79371 83.080553,167.79997 C 82.923226,167.80624 82.779475,167.81564 82.649289,167.82816 L 79.91522,180.21661 C 80.034557,180.22914 80.170176,180.23855 80.322078,180.24481 C 80.473962,180.25108 80.701805,180.25421 81.005591,180.25421 C 83.576909,180.25421 85.746793,179.65578 87.515271,178.45892 C 89.283712,177.26206 90.737537,175.41037 91.876747,172.90385 L 92.446347,172.90385 L 90.444619,180.83698 L 71.273635,180.83698 z M 107.61388,155.77809 L 104.97746,167.2078 L 105.41687,167.2078 C 106.25227,167.20781 106.96019,167.08562 107.54065,166.84122 C 108.12108,166.59685 108.63372,166.20521 109.07856,165.66629 C 109.62102,165.01461 110.09568,164.00887 110.50254,162.64907 C 110.90938,161.28931 111.11281,159.98279 111.11283,158.72951 C 111.11281,157.68933 110.84158,156.93738 110.29913,156.47365 C 109.75664,156.00997 108.86155,155.77812 107.61388,155.77809 L 107.61388,155.77809 z M 93.341421,180.83698 L 93.520435,180.21661 L 95.408241,180.21661 L 101.07166,155.77809 L 99.183852,155.77809 L 99.314047,155.15773 L 110.67343,155.15773 C 113.03859,155.15775 114.73652,155.5776 115.76724,156.41726 C 116.79792,157.25696 117.31328,158.62301 117.31329,160.5154 C 117.31328,162.55823 116.6162,164.1718 115.22206,165.35611 C 113.82788,166.54045 111.7909,167.24541 109.11111,167.47098 C 110.8687,167.68405 112.18149,168.19161 113.04946,168.9937 C 113.91739,169.79579 114.35137,170.89239 114.35139,172.2835 C 114.35137,173.08559 114.16693,174.13832 113.79807,175.4417 C 113.42917,176.74509 113.24473,177.6349 113.24475,178.11114 C 113.24473,178.47459 113.32068,178.75657 113.47259,178.95709 C 113.62446,179.15761 113.83603,179.25787 114.10728,179.25787 C 114.32425,179.25787 114.60091,179.15134 114.93726,178.93829 C 115.27358,178.72524 115.6533,178.40565 116.07645,177.97955 L 116.36939,178.52472 C 115.46887,179.51479 114.57107,180.25108 113.67601,180.73358 C 112.78092,181.21608 111.87228,181.45734 110.95009,181.45734 C 109.72408,181.45734 108.75577,181.11896 108.04515,180.44219 C 107.3345,179.76544 106.97917,178.8443 106.97919,177.67876 C 106.97917,176.7639 107.20702,175.46051 107.6627,173.7686 C 108.11836,172.07671 108.34621,170.89239 108.34622,170.21561 C 108.34621,169.33835 108.13193,168.72112 107.70339,168.36393 C 107.27483,168.00676 106.5235,167.82817 105.44942,167.82816 L 104.81472,167.82816 L 101.98301,180.21661 L 103.83827,180.21661 L 103.70808,180.83698 L 93.341421,180.83698 z M 119.59168,180.83698 L 119.75442,180.21661 L 121.6585,180.21661 L 127.32191,155.81568 C 125.71619,156.02877 124.28948,156.74625 123.0418,157.96816 C 121.79412,159.1901 120.77969,160.8726 119.99853,163.01565 L 119.42893,163.01565 L 121.30047,155.15773 L 140.45518,155.15773 L 138.59992,163.01565 L 138.09542,162.99686 C 138.12795,162.75875 138.15236,162.5081 138.16865,162.2449 C 138.18491,161.98174 138.19305,161.72482 138.19307,161.47414 C 138.19305,159.8324 137.82416,158.53215 137.08642,157.57339 C 136.34864,156.61467 135.27454,156.02877 133.86413,155.81568 L 128.23327,180.21661 L 130.08853,180.21661 L 129.95833,180.83698 L 119.59168,180.83698 z M 133.53865,180.83698 L 133.68512,180.21661 C 134.65072,180.15395 135.51325,179.77484 136.27271,179.07928 C 137.03217,178.38373 137.88928,177.13361 138.84404,175.3289 L 149.47107,155.15773 L 151.73318,155.15773 L 154.01157,180.21661 L 155.93193,180.21661 L 155.93193,180.83698 L 145.74428,180.83698 L 145.90702,180.21661 L 147.74601,180.21661 L 147.24151,173.56182 L 140.3738,173.56182 L 139.31599,175.64849 C 139.14239,175.98687 138.99864,176.36911 138.88471,176.79522 C 138.7708,177.22133 138.71384,177.57851 138.71384,177.86675 C 138.71384,178.61872 138.91455,179.18895 139.31599,179.57746 C 139.71741,179.96596 140.32498,180.18528 141.13869,180.23541 L 141.00849,180.83698 L 133.53865,180.83698 z M 146.31388,162.2449 L 140.71556,172.90385 L 147.17641,172.90385 L 146.31388,162.2449 z M 169.0001,155.77809 L 166.36368,167.2078 L 166.80308,167.2078 C 167.63848,167.20781 168.3464,167.08562 168.92686,166.84122 C 169.50729,166.59685 170.01993,166.20521 170.46477,165.66629 C 171.00723,165.01461 171.4819,164.00887 171.88877,162.64907 C 172.29561,161.28931 172.49904,159.98279 172.49904,158.72951 C 172.49904,157.68933 172.2278,156.93738 171.68534,156.47365 C 171.14285,156.00997 170.24778,155.77812 169.0001,155.77809 L 169.0001,155.77809 z M 154.72764,180.83698 L 154.90666,180.21661 L 156.79446,180.21661 L 162.45788,155.77809 L 160.57007,155.77809 L 160.70027,155.15773 L 172.05964,155.15773 C 174.42481,155.15775 176.12274,155.5776 177.15347,156.41726 C 178.18414,157.25696 178.69949,158.62301 178.69951,160.5154 C 178.69949,162.55823 178.00241,164.1718 176.60828,165.35611 C 175.2141,166.54045 173.17712,167.24541 170.49733,167.47098 C 172.25492,167.68405 173.5677,168.19161 174.43567,168.9937 C 175.30361,169.79579 175.73759,170.89239 175.73761,172.2835 C 175.73759,173.08559 175.55315,174.13832 175.18428,175.4417 C 174.81539,176.74509 174.63095,177.6349 174.63097,178.11114 C 174.63095,178.47459 174.70689,178.75657 174.8588,178.95709 C 175.01068,179.15761 175.22224,179.25787 175.49349,179.25787 C 175.71047,179.25787 175.98712,179.15134 176.32348,178.93829 C 176.65979,178.72524 177.03953,178.40565 177.46268,177.97955 L 177.7556,178.52472 C 176.85509,179.51479 175.9573,180.25108 175.06223,180.73358 C 174.16713,181.21608 173.25849,181.45734 172.3363,181.45734 C 171.1103,181.45734 170.14199,181.11896 169.43136,180.44219 C 168.72072,179.76544 168.36539,178.8443 168.3654,177.67876 C 168.36539,176.7639 168.59323,175.46051 169.04892,173.7686 C 169.50459,172.07671 169.73242,170.89239 169.73244,170.21561 C 169.73242,169.33835 169.51814,168.72112 169.0896,168.36393 C 168.66104,168.00676 167.90972,167.82817 166.83563,167.82816 L 166.20093,167.82816 L 163.36923,180.21661 L 165.22449,180.21661 L 165.09429,180.83698 L 154.72764,180.83698 z M 177.57659,180.83698 L 177.7556,180.21661 L 179.64341,180.21661 L 185.30683,155.81568 L 183.41902,155.81568 L 183.54922,155.15773 L 193.88332,155.15773 L 193.75313,155.81568 L 191.84904,155.81568 L 186.21818,180.21661 L 188.07344,180.21661 L 187.94325,180.83698 L 177.57659,180.83698 z M 187.50384,180.83698 L 187.65031,180.21661 C 188.61591,180.15395 189.47845,179.77484 190.2379,179.07928 C 190.99736,178.38373 191.85448,177.13361 192.80923,175.3289 L 203.43627,155.15773 L 205.69838,155.15773 L 207.97676,180.21661 L 209.89712,180.21661 L 209.89712,180.83698 L 199.70948,180.83698 L 199.87222,180.21661 L 201.7112,180.21661 L 201.20671,173.56182 L 194.339,173.56182 L 193.28117,175.64849 C 193.10758,175.98687 192.96383,176.36911 192.84991,176.79522 C 192.73599,177.22133 192.67903,177.57851 192.67903,177.86675 C 192.67903,178.61872 192.87975,179.18895 193.28117,179.57746 C 193.6826,179.96596 194.29018,180.18528 195.10388,180.23541 L 194.97369,180.83698 L 187.50384,180.83698 z M 200.27908,162.2449 L 194.68075,172.90385 L 201.1416,172.90385 L 200.27908,162.2449 z M 214.2586,155.81568 L 212.69628,155.81568 L 212.82648,155.15773 L 220.99612,155.15773 L 229.2634,174.44536 L 232.2253,161.69974 C 232.37717,161.06059 232.48295,160.53109 232.54265,160.11122 C 232.6023,159.69141 232.63213,159.28723 232.63215,158.8987 C 232.63213,157.99639 232.41786,157.30083 231.98933,156.81203 C 231.56075,156.32329 230.87452,155.99117 229.93064,155.81568 L 230.06083,155.15773 L 236.96109,155.15773 L 236.79835,155.81568 C 235.89781,155.91597 235.10852,156.45487 234.43045,157.43239 C 233.75233,158.40996 233.1963,159.81986 232.76235,161.66213 L 228.30322,180.83698 L 225.03211,180.83698 L 215.8372,159.66946 L 212.56609,174.29497 C 212.53354,174.43284 212.49014,174.62709 212.43589,174.87774 C 212.20806,175.93048 212.09413,176.65737 212.09413,177.05841 C 212.09413,177.96075 212.3274,178.68138 212.79393,179.22028 C 213.26045,179.75918 213.93854,180.09128 214.8282,180.21661 L 214.69801,180.83698 L 207.8303,180.83698 L 207.96049,180.17902 C 208.89355,180.10382 209.68285,179.59311 210.32839,178.64691 C 210.97393,177.7007 211.51912,176.26259 211.96394,174.33257 L 215.56054,158.82351 L 214.2586,155.81568 z" />
  <path
     style="fill:#0d0046;fill-opacity:1;fill-rule:evenodd;stroke:#000000;stroke-width:0;stroke-linecap:butt;stroke-linejoin:miter;stroke-miterlimit:4;stroke-dasharray:none;stroke-opacity:1"
     id="path3190"
     d="M 107.65823,53.00004 C 110.95535,48.98951 111.32407,47.0906 112.21148,44.4627 L 111.4526,51.29258 L 107.65823,53.00004 z" />
  <path
     style="fill:#0d0046;fill-opacity:1;fill-rule:evenodd;stroke:#000000;stroke-width:0;stroke-linecap:butt;stroke-linejoin:miter;stroke-miterlimit:4;stroke-dasharray:none;stroke-opacity:1"
     id="path3196"
     d="M 110.88344,66.28035 L 109.93485,75.76629 C 111.26525,77.86752 112.41272,93.69902 112.59091,98.53254 L 115.24697,95.30732 L 112.40119,78.80179 L 110.88344,66.28035 z" />
  <path
     style="fill:#0d0046;fill-opacity:1;fill-rule:evenodd;stroke:#000000;stroke-width:0;stroke-linecap:butt;stroke-linejoin:miter;stroke-miterlimit:4;stroke-dasharray:none;stroke-opacity:1"
     id="path3198"
     d="M 103.48442,48.82623 C 106.46576,49.188742 109.32079,40.495949 112.78063,47.30848 L 115.29157,36.078 C 116.71657,34.8992 118.15678,33.86611 119.07246,32.12264 C 120.66415,29.092 121.15983,24.79494 120.74881,20.1787 C 110.26034,19.33596 101.44752,20.48532 96.50565,27.85666 C 96.29935,30.28089 96.68482,32.92765 98.26348,34.68882 C 99.12444,35.64932 100.47622,36.07454 101.96666,36.68423 C 101.90008,42.06739 102.05147,46.94194 103.48442,48.82623 z"
     sodipodi:nodetypes="cccsccscc" />
  <path
     style="fill:#0d0046;fill-opacity:1;fill-rule:evenodd;stroke:#000000;stroke-width:0;stroke-linecap:butt;stroke-linejoin:miter;stroke-miterlimit:4;stroke-dasharray:none;stroke-opacity:1"
     id="path3200"
     d="M 98.93116,27.00858 C 99.95541,15.30201 115.11846,17.64498 118.85163,20.55814 L 120.74881,20.13786 C 117.811,13.07756 111.98713,9.08945 103.48442,8.60586 C 104.81039,10.94572 105.79445,13.28558 104.62272,15.62545 C 98.57367,19.3373 95.93716,21.39341 96.46481,27.95717 L 98.93116,27.00858 z" />
  <path
     style="fill:#0d0046;fill-opacity:1;fill-rule:evenodd;stroke:#000000;stroke-width:0;stroke-linecap:butt;stroke-linejoin:miter;stroke-miterlimit:4;stroke-dasharray:none;stroke-opacity:1"
     id="path3204"
     d="M 145.96424,115.47901 C 148.52909,112.68327 148.54469,109.88753 148.67872,107.09179 L 164.41839,106.77424 L 149.39823,103.76509 C 149.74394,102.99991 149.77009,101.25603 149.62026,99.98451 L 167.20392,93.89115 L 149.09955,94.11477 C 148.99936,92.62591 148.76088,92.37606 148.40517,91.42292 L 163.8961,77.52616 L 145.38898,88.37307 C 144.82554,87.85231 143.85948,87.26019 142.45509,86.90008 L 145.09377,65.51355 L 136.91127,85.88275 C 135.54547,85.61625 132.50716,85.55916 131.16611,86.05685 L 123.85409,72.99967 L 128.28368,87.38147 C 124.99486,89.1614 124.45506,90.1571 123.5059,92.67248 L 114.80112,92.49839 L 115.8457,94.23934 L 122.63542,95.8062 C 122.57477,97.6052 122.19271,99.40418 123.15771,101.20317 L 118.10894,104.51099 L 135.6926,123.48741 L 145.96424,115.47901 z" />
  <g
     id="g3240"
     transform="matrix(0.196687,0,0,0.196687,26.66478,1.9976)">
    <path
       style="opacity:1;fill:#eee097;fill-opacity:1;stroke:#0d0046;stroke-width:0;stroke-linecap:butt;stroke-linejoin:miter;stroke-miterlimit:4;stroke-dasharray:none;stroke-opacity:1"
       id="path3242"
       transform="matrix(0.9338398,1.2792225e-2,-1.330767e-2,0.8976695,117.81206,67.141664)"
       d="M 172.93608,447.08593 L 148.92893,430.27745 L 125.28333,447.59085 L 133.85052,419.56458 L 110.07761,402.42641 L 139.37957,401.9137 L 148.33271,374.00833 L 157.87513,401.71772 L 187.18139,401.60943 L 163.77696,419.24749 L 172.93608,447.08593 z" />
    <path
       style="opacity:1;fill:#be9613;fill-opacity:1;stroke:#0d0046;stroke-width:0;stroke-linecap:butt;stroke-linejoin:miter;stroke-miterlimit:4;stroke-dasharray:none;stroke-opacity:1"
       id="path3244"
       transform="matrix(0.9579534,1.2792225e-2,-1.36513e-2,0.8976695,109.7174,67.141664)"
       d="M 172.93608,447.08593 L 148.92893,430.27745 L 125.28333,447.59085 L 133.85052,419.56458 L 110.07761,402.42641 L 139.37957,401.9137 L 148.33271,374.00833 L 157.87513,401.71772 L 187.18139,401.60943 L 163.77696,419.24749 L 172.93608,447.08593 z" />
    <path
       style="opacity:1;fill:#d9b214;fill-opacity:1;stroke:#0d0046;stroke-width:0;stroke-linecap:butt;stroke-linejoin:miter;stroke-miterlimit:4;stroke-dasharray:none;stroke-opacity:1"
       id="path3246"
       transform="matrix(0.8976695,1.2792225e-2,-1.2792225e-2,0.8976695,120.65641,67.141664)"
       d="M 172.93608,447.08593 L 148.92893,430.27745 L 125.28333,447.59085 L 133.85052,419.56458 L 110.07761,402.42641 L 139.37957,401.9137 L 148.33271,374.00833 L 157.87513,401.71772 L 187.18139,401.60943 L 163.77696,419.24749 L 172.93608,447.08593 z" />
    <path
       style="opacity:1;fill:url(#linearGradient3252);fill-opacity:1;stroke:#0d0046;stroke-width:0;stroke-linecap:butt;stroke-linejoin:miter;stroke-miterlimit:4;stroke-dasharray:none;stroke-opacity:1"
       id="path3248"
       transform="matrix(0.8976695,1.2792225e-2,-1.2792225e-2,0.8976695,120.65641,67.141664)"
       d="M 172.93608,447.08593 L 148.92893,430.27745 L 125.28333,447.59085 L 133.85052,419.56458 L 110.07761,402.42641 L 139.37957,401.9137 L 148.33271,374.00833 L 157.87513,401.71772 L 187.18139,401.60943 L 163.77696,419.24749 L 172.93608,447.08593 z" />
    <path
       style="opacity:1;fill:url(#linearGradient3254);fill-opacity:1;stroke:#0d0046;stroke-width:0;stroke-linecap:butt;stroke-linejoin:miter;stroke-miterlimit:4;stroke-dasharray:none;stroke-opacity:1"
       id="path3250"
       transform="matrix(0.8976695,1.2792225e-2,-1.2792225e-2,0.8976695,120.65641,67.141664)"
       d="M 172.93608,447.08593 L 148.92893,430.27745 L 125.28333,447.59085 L 133.85052,419.56458 L 110.07761,402.42641 L 139.37957,401.9137 L 148.33271,374.00833 L 157.87513,401.71772 L 187.18139,401.60943 L 163.77696,419.24749 L 172.93608,447.08593 z" />
  </g>
  <g
     id="g3272"
     transform="matrix(0.196687,0,0,0.196687,8.59407,24.50673)">
    <path
       style="opacity:1;fill:#eee097;fill-opacity:1;stroke:#0d0046;stroke-width:0;stroke-linecap:butt;stroke-linejoin:miter;stroke-miterlimit:4;stroke-dasharray:none;stroke-opacity:1"
       id="path3274"
       transform="matrix(0.9338398,1.2792225e-2,-1.330767e-2,0.8976695,117.81206,67.141664)"
       d="M 172.93608,447.08593 L 148.92893,430.27745 L 125.28333,447.59085 L 133.85052,419.56458 L 110.07761,402.42641 L 139.37957,401.9137 L 148.33271,374.00833 L 157.87513,401.71772 L 187.18139,401.60943 L 163.77696,419.24749 L 172.93608,447.08593 z" />
    <path
       style="opacity:1;fill:#be9613;fill-opacity:1;stroke:#0d0046;stroke-width:0;stroke-linecap:butt;stroke-linejoin:miter;stroke-miterlimit:4;stroke-dasharray:none;stroke-opacity:1"
       id="path3276"
       transform="matrix(0.9579534,1.2792225e-2,-1.36513e-2,0.8976695,109.7174,67.141664)"
       d="M 172.93608,447.08593 L 148.92893,430.27745 L 125.28333,447.59085 L 133.85052,419.56458 L 110.07761,402.42641 L 139.37957,401.9137 L 148.33271,374.00833 L 157.87513,401.71772 L 187.18139,401.60943 L 163.77696,419.24749 L 172.93608,447.08593 z" />
    <path
       style="opacity:1;fill:#d9b214;fill-opacity:1;stroke:#0d0046;stroke-width:0;stroke-linecap:butt;stroke-linejoin:miter;stroke-miterlimit:4;stroke-dasharray:none;stroke-opacity:1"
       id="path3278"
       transform="matrix(0.8976695,1.2792225e-2,-1.2792225e-2,0.8976695,120.65641,67.141664)"
       d="M 172.93608,447.08593 L 148.92893,430.27745 L 125.28333,447.59085 L 133.85052,419.56458 L 110.07761,402.42641 L 139.37957,401.9137 L 148.33271,374.00833 L 157.87513,401.71772 L 187.18139,401.60943 L 163.77696,419.24749 L 172.93608,447.08593 z" />
    <path
       style="opacity:1;fill:url(#linearGradient3284);fill-opacity:1;stroke:#0d0046;stroke-width:0;stroke-linecap:butt;stroke-linejoin:miter;stroke-miterlimit:4;stroke-dasharray:none;stroke-opacity:1"
       id="path3280"
       transform="matrix(0.8976695,1.2792225e-2,-1.2792225e-2,0.8976695,120.65641,67.141664)"
       d="M 172.93608,447.08593 L 148.92893,430.27745 L 125.28333,447.59085 L 133.85052,419.56458 L 110.07761,402.42641 L 139.37957,401.9137 L 148.33271,374.00833 L 157.87513,401.71772 L 187.18139,401.60943 L 163.77696,419.24749 L 172.93608,447.08593 z" />
    <path
       style="opacity:1;fill:url(#linearGradient3286);fill-opacity:1;stroke:#0d0046;stroke-width:0;stroke-linecap:butt;stroke-linejoin:miter;stroke-miterlimit:4;stroke-dasharray:none;stroke-opacity:1"
       id="path3282"
       transform="matrix(0.8976695,1.2792225e-2,-1.2792225e-2,0.8976695,120.65641,67.141664)"
       d="M 172.93608,447.08593 L 148.92893,430.27745 L 125.28333,447.59085 L 133.85052,419.56458 L 110.07761,402.42641 L 139.37957,401.9137 L 148.33271,374.00833 L 157.87513,401.71772 L 187.18139,401.60943 L 163.77696,419.24749 L 172.93608,447.08593 z" />
  </g>
  <g
     id="g3288"
     transform="matrix(0.196687,0,0,0.196687,1.93644,51.77131)">
    <path
       style="opacity:1;fill:#eee097;fill-opacity:1;stroke:#0d0046;stroke-width:0;stroke-linecap:butt;stroke-linejoin:miter;stroke-miterlimit:4;stroke-dasharray:none;stroke-opacity:1"
       id="path3290"
       transform="matrix(0.9338398,1.2792225e-2,-1.330767e-2,0.8976695,117.81206,67.141664)"
       d="M 172.93608,447.08593 L 148.92893,430.27745 L 125.28333,447.59085 L 133.85052,419.56458 L 110.07761,402.42641 L 139.37957,401.9137 L 148.33271,374.00833 L 157.87513,401.71772 L 187.18139,401.60943 L 163.77696,419.24749 L 172.93608,447.08593 z" />
    <path
       style="opacity:1;fill:#be9613;fill-opacity:1;stroke:#0d0046;stroke-width:0;stroke-linecap:butt;stroke-linejoin:miter;stroke-miterlimit:4;stroke-dasharray:none;stroke-opacity:1"
       id="path3292"
       transform="matrix(0.9579534,1.2792225e-2,-1.36513e-2,0.8976695,109.7174,67.141664)"
       d="M 172.93608,447.08593 L 148.92893,430.27745 L 125.28333,447.59085 L 133.85052,419.56458 L 110.07761,402.42641 L 139.37957,401.9137 L 148.33271,374.00833 L 157.87513,401.71772 L 187.18139,401.60943 L 163.77696,419.24749 L 172.93608,447.08593 z" />
    <path
       style="opacity:1;fill:#d9b214;fill-opacity:1;stroke:#0d0046;stroke-width:0;stroke-linecap:butt;stroke-linejoin:miter;stroke-miterlimit:4;stroke-dasharray:none;stroke-opacity:1"
       id="path3294"
       transform="matrix(0.8976695,1.2792225e-2,-1.2792225e-2,0.8976695,120.65641,67.141664)"
       d="M 172.93608,447.08593 L 148.92893,430.27745 L 125.28333,447.59085 L 133.85052,419.56458 L 110.07761,402.42641 L 139.37957,401.9137 L 148.33271,374.00833 L 157.87513,401.71772 L 187.18139,401.60943 L 163.77696,419.24749 L 172.93608,447.08593 z" />
    <path
       style="opacity:1;fill:url(#linearGradient3300);fill-opacity:1;stroke:#0d0046;stroke-width:0;stroke-linecap:butt;stroke-linejoin:miter;stroke-miterlimit:4;stroke-dasharray:none;stroke-opacity:1"
       id="path3296"
       transform="matrix(0.8976695,1.2792225e-2,-1.2792225e-2,0.8976695,120.65641,67.141664)"
       d="M 172.93608,447.08593 L 148.92893,430.27745 L 125.28333,447.59085 L 133.85052,419.56458 L 110.07761,402.42641 L 139.37957,401.9137 L 148.33271,374.00833 L 157.87513,401.71772 L 187.18139,401.60943 L 163.77696,419.24749 L 172.93608,447.08593 z" />
    <path
       style="opacity:1;fill:url(#linearGradient3302);fill-opacity:1;stroke:#0d0046;stroke-width:0;stroke-linecap:butt;stroke-linejoin:miter;stroke-miterlimit:4;stroke-dasharray:none;stroke-opacity:1"
       id="path3298"
       transform="matrix(0.8976695,1.2792225e-2,-1.2792225e-2,0.8976695,120.65641,67.141664)"
       d="M 172.93608,447.08593 L 148.92893,430.27745 L 125.28333,447.59085 L 133.85052,419.56458 L 110.07761,402.42641 L 139.37957,401.9137 L 148.33271,374.00833 L 157.87513,401.71772 L 187.18139,401.60943 L 163.77696,419.24749 L 172.93608,447.08593 z" />
  </g>
  <g
     id="g3304"
     transform="matrix(0.196687,0,0,0.196687,104.02011,-14.48796)">
    <path
       style="opacity:1;fill:#eee097;fill-opacity:1;stroke:#0d0046;stroke-width:0;stroke-linecap:butt;stroke-linejoin:miter;stroke-miterlimit:4;stroke-dasharray:none;stroke-opacity:1"
       id="path3306"
       transform="matrix(0.9338398,1.2792225e-2,-1.330767e-2,0.8976695,117.81206,67.141664)"
       d="M 172.93608,447.08593 L 148.92893,430.27745 L 125.28333,447.59085 L 133.85052,419.56458 L 110.07761,402.42641 L 139.37957,401.9137 L 148.33271,374.00833 L 157.87513,401.71772 L 187.18139,401.60943 L 163.77696,419.24749 L 172.93608,447.08593 z" />
    <path
       style="opacity:1;fill:#be9613;fill-opacity:1;stroke:#0d0046;stroke-width:0;stroke-linecap:butt;stroke-linejoin:miter;stroke-miterlimit:4;stroke-dasharray:none;stroke-opacity:1"
       id="path3308"
       transform="matrix(0.9579534,1.2792225e-2,-1.36513e-2,0.8976695,109.7174,67.141664)"
       d="M 172.93608,447.08593 L 148.92893,430.27745 L 125.28333,447.59085 L 133.85052,419.56458 L 110.07761,402.42641 L 139.37957,401.9137 L 148.33271,374.00833 L 157.87513,401.71772 L 187.18139,401.60943 L 163.77696,419.24749 L 172.93608,447.08593 z" />
    <path
       style="opacity:1;fill:#d9b214;fill-opacity:1;stroke:#0d0046;stroke-width:0;stroke-linecap:butt;stroke-linejoin:miter;stroke-miterlimit:4;stroke-dasharray:none;stroke-opacity:1"
       id="path3310"
       transform="matrix(0.8976695,1.2792225e-2,-1.2792225e-2,0.8976695,120.65641,67.141664)"
       d="M 172.93608,447.08593 L 148.92893,430.27745 L 125.28333,447.59085 L 133.85052,419.56458 L 110.07761,402.42641 L 139.37957,401.9137 L 148.33271,374.00833 L 157.87513,401.71772 L 187.18139,401.60943 L 163.77696,419.24749 L 172.93608,447.08593 z" />
    <path
       style="opacity:1;fill:url(#linearGradient3316);fill-opacity:1;stroke:#0d0046;stroke-width:0;stroke-linecap:butt;stroke-linejoin:miter;stroke-miterlimit:4;stroke-dasharray:none;stroke-opacity:1"
       id="path3312"
       transform="matrix(0.8976695,1.2792225e-2,-1.2792225e-2,0.8976695,120.65641,67.141664)"
       d="M 172.93608,447.08593 L 148.92893,430.27745 L 125.28333,447.59085 L 133.85052,419.56458 L 110.07761,402.42641 L 139.37957,401.9137 L 148.33271,374.00833 L 157.87513,401.71772 L 187.18139,401.60943 L 163.77696,419.24749 L 172.93608,447.08593 z" />
    <path
       style="opacity:1;fill:url(#linearGradient3318);fill-opacity:1;stroke:#0d0046;stroke-width:0;stroke-linecap:butt;stroke-linejoin:miter;stroke-miterlimit:4;stroke-dasharray:none;stroke-opacity:1"
       id="path3314"
       transform="matrix(0.8976695,1.2792225e-2,-1.2792225e-2,0.8976695,120.65641,67.141664)"
       d="M 172.93608,447.08593 L 148.92893,430.27745 L 125.28333,447.59085 L 133.85052,419.56458 L 110.07761,402.42641 L 139.37957,401.9137 L 148.33271,374.00833 L 157.87513,401.71772 L 187.18139,401.60943 L 163.77696,419.24749 L 172.93608,447.08593 z" />
  </g>
  <g
     id="g3320"
     transform="matrix(0.196687,0,0,0.196687,127.48033,1.04651)">
    <path
       style="opacity:1;fill:#eee097;fill-opacity:1;stroke:#0d0046;stroke-width:0;stroke-linecap:butt;stroke-linejoin:miter;stroke-miterlimit:4;stroke-dasharray:none;stroke-opacity:1"
       id="path3322"
       transform="matrix(0.9338398,1.2792225e-2,-1.330767e-2,0.8976695,117.81206,67.141664)"
       d="M 172.93608,447.08593 L 148.92893,430.27745 L 125.28333,447.59085 L 133.85052,419.56458 L 110.07761,402.42641 L 139.37957,401.9137 L 148.33271,374.00833 L 157.87513,401.71772 L 187.18139,401.60943 L 163.77696,419.24749 L 172.93608,447.08593 z" />
    <path
       style="opacity:1;fill:#be9613;fill-opacity:1;stroke:#0d0046;stroke-width:0;stroke-linecap:butt;stroke-linejoin:miter;stroke-miterlimit:4;stroke-dasharray:none;stroke-opacity:1"
       id="path3324"
       transform="matrix(0.9579534,1.2792225e-2,-1.36513e-2,0.8976695,109.7174,67.141664)"
       d="M 172.93608,447.08593 L 148.92893,430.27745 L 125.28333,447.59085 L 133.85052,419.56458 L 110.07761,402.42641 L 139.37957,401.9137 L 148.33271,374.00833 L 157.87513,401.71772 L 187.18139,401.60943 L 163.77696,419.24749 L 172.93608,447.08593 z" />
    <path
       style="opacity:1;fill:#d9b214;fill-opacity:1;stroke:#0d0046;stroke-width:0;stroke-linecap:butt;stroke-linejoin:miter;stroke-miterlimit:4;stroke-dasharray:none;stroke-opacity:1"
       id="path3326"
       transform="matrix(0.8976695,1.2792225e-2,-1.2792225e-2,0.8976695,120.65641,67.141664)"
       d="M 172.93608,447.08593 L 148.92893,430.27745 L 125.28333,447.59085 L 133.85052,419.56458 L 110.07761,402.42641 L 139.37957,401.9137 L 148.33271,374.00833 L 157.87513,401.71772 L 187.18139,401.60943 L 163.77696,419.24749 L 172.93608,447.08593 z" />
    <path
       style="opacity:1;fill:url(#linearGradient3332);fill-opacity:1;stroke:#0d0046;stroke-width:0;stroke-linecap:butt;stroke-linejoin:miter;stroke-miterlimit:4;stroke-dasharray:none;stroke-opacity:1"
       id="path3328"
       transform="matrix(0.8976695,1.2792225e-2,-1.2792225e-2,0.8976695,120.65641,67.141664)"
       d="M 172.93608,447.08593 L 148.92893,430.27745 L 125.28333,447.59085 L 133.85052,419.56458 L 110.07761,402.42641 L 139.37957,401.9137 L 148.33271,374.00833 L 157.87513,401.71772 L 187.18139,401.60943 L 163.77696,419.24749 L 172.93608,447.08593 z" />
    <path
       style="opacity:1;fill:url(#linearGradient3334);fill-opacity:1;stroke:#0d0046;stroke-width:0;stroke-linecap:butt;stroke-linejoin:miter;stroke-miterlimit:4;stroke-dasharray:none;stroke-opacity:1"
       id="path3330"
       transform="matrix(0.8976695,1.2792225e-2,-1.2792225e-2,0.8976695,120.65641,67.141664)"
       d="M 172.93608,447.08593 L 148.92893,430.27745 L 125.28333,447.59085 L 133.85052,419.56458 L 110.07761,402.42641 L 139.37957,401.9137 L 148.33271,374.00833 L 157.87513,401.71772 L 187.18139,401.60943 L 163.77696,419.24749 L 172.93608,447.08593 z" />
  </g>
  <g
     id="g3336"
     transform="matrix(0.196687,0,0,0.196687,143.96588,23.55563)">
    <path
       style="opacity:1;fill:#eee097;fill-opacity:1;stroke:#0d0046;stroke-width:0;stroke-linecap:butt;stroke-linejoin:miter;stroke-miterlimit:4;stroke-dasharray:none;stroke-opacity:1"
       id="path3338"
       transform="matrix(0.9338398,1.2792225e-2,-1.330767e-2,0.8976695,117.81206,67.141664)"
       d="M 172.93608,447.08593 L 148.92893,430.27745 L 125.28333,447.59085 L 133.85052,419.56458 L 110.07761,402.42641 L 139.37957,401.9137 L 148.33271,374.00833 L 157.87513,401.71772 L 187.18139,401.60943 L 163.77696,419.24749 L 172.93608,447.08593 z" />
    <path
       style="opacity:1;fill:#be9613;fill-opacity:1;stroke:#0d0046;stroke-width:0;stroke-linecap:butt;stroke-linejoin:miter;stroke-miterlimit:4;stroke-dasharray:none;stroke-opacity:1"
       id="path3340"
       transform="matrix(0.9579534,1.2792225e-2,-1.36513e-2,0.8976695,109.7174,67.141664)"
       d="M 172.93608,447.08593 L 148.92893,430.27745 L 125.28333,447.59085 L 133.85052,419.56458 L 110.07761,402.42641 L 139.37957,401.9137 L 148.33271,374.00833 L 157.87513,401.71772 L 187.18139,401.60943 L 163.77696,419.24749 L 172.93608,447.08593 z" />
    <path
       style="opacity:1;fill:#d9b214;fill-opacity:1;stroke:#0d0046;stroke-width:0;stroke-linecap:butt;stroke-linejoin:miter;stroke-miterlimit:4;stroke-dasharray:none;stroke-opacity:1"
       id="path3342"
       transform="matrix(0.8976695,1.2792225e-2,-1.2792225e-2,0.8976695,120.65641,67.141664)"
       d="M 172.93608,447.08593 L 148.92893,430.27745 L 125.28333,447.59085 L 133.85052,419.56458 L 110.07761,402.42641 L 139.37957,401.9137 L 148.33271,374.00833 L 157.87513,401.71772 L 187.18139,401.60943 L 163.77696,419.24749 L 172.93608,447.08593 z" />
    <path
       style="opacity:1;fill:url(#linearGradient3348);fill-opacity:1;stroke:#0d0046;stroke-width:0;stroke-linecap:butt;stroke-linejoin:miter;stroke-miterlimit:4;stroke-dasharray:none;stroke-opacity:1"
       id="path3344"
       transform="matrix(0.8976695,1.2792225e-2,-1.2792225e-2,0.8976695,120.65641,67.141664)"
       d="M 172.93608,447.08593 L 148.92893,430.27745 L 125.28333,447.59085 L 133.85052,419.56458 L 110.07761,402.42641 L 139.37957,401.9137 L 148.33271,374.00833 L 157.87513,401.71772 L 187.18139,401.60943 L 163.77696,419.24749 L 172.93608,447.08593 z" />
    <path
       style="opacity:1;fill:url(#linearGradient3350);fill-opacity:1;stroke:#0d0046;stroke-width:0;stroke-linecap:butt;stroke-linejoin:miter;stroke-miterlimit:4;stroke-dasharray:none;stroke-opacity:1"
       id="path3346"
       transform="matrix(0.8976695,1.2792225e-2,-1.2792225e-2,0.8976695,120.65641,67.141664)"
       d="M 172.93608,447.08593 L 148.92893,430.27745 L 125.28333,447.59085 L 133.85052,419.56458 L 110.07761,402.42641 L 139.37957,401.9137 L 148.33271,374.00833 L 157.87513,401.71772 L 187.18139,401.60943 L 163.77696,419.24749 L 172.93608,447.08593 z" />
  </g>
  <g
     id="g3352"
     transform="matrix(0.196687,0,0,0.196687,151.89163,50.50319)">
    <path
       style="opacity:1;fill:#eee097;fill-opacity:1;stroke:#0d0046;stroke-width:0;stroke-linecap:butt;stroke-linejoin:miter;stroke-miterlimit:4;stroke-dasharray:none;stroke-opacity:1"
       id="path3354"
       transform="matrix(0.9338398,1.2792225e-2,-1.330767e-2,0.8976695,117.81206,67.141664)"
       d="M 172.93608,447.08593 L 148.92893,430.27745 L 125.28333,447.59085 L 133.85052,419.56458 L 110.07761,402.42641 L 139.37957,401.9137 L 148.33271,374.00833 L 157.87513,401.71772 L 187.18139,401.60943 L 163.77696,419.24749 L 172.93608,447.08593 z" />
    <path
       style="opacity:1;fill:#be9613;fill-opacity:1;stroke:#0d0046;stroke-width:0;stroke-linecap:butt;stroke-linejoin:miter;stroke-miterlimit:4;stroke-dasharray:none;stroke-opacity:1"
       id="path3356"
       transform="matrix(0.9579534,1.2792225e-2,-1.36513e-2,0.8976695,109.7174,67.141664)"
       d="M 172.93608,447.08593 L 148.92893,430.27745 L 125.28333,447.59085 L 133.85052,419.56458 L 110.07761,402.42641 L 139.37957,401.9137 L 148.33271,374.00833 L 157.87513,401.71772 L 187.18139,401.60943 L 163.77696,419.24749 L 172.93608,447.08593 z" />
    <path
       style="opacity:1;fill:#d9b214;fill-opacity:1;stroke:#0d0046;stroke-width:0;stroke-linecap:butt;stroke-linejoin:miter;stroke-miterlimit:4;stroke-dasharray:none;stroke-opacity:1"
       id="path3358"
       transform="matrix(0.8976695,1.2792225e-2,-1.2792225e-2,0.8976695,120.65641,67.141664)"
       d="M 172.93608,447.08593 L 148.92893,430.27745 L 125.28333,447.59085 L 133.85052,419.56458 L 110.07761,402.42641 L 139.37957,401.9137 L 148.33271,374.00833 L 157.87513,401.71772 L 187.18139,401.60943 L 163.77696,419.24749 L 172.93608,447.08593 z" />
    <path
       style="opacity:1;fill:url(#linearGradient3364);fill-opacity:1;stroke:#0d0046;stroke-width:0;stroke-linecap:butt;stroke-linejoin:miter;stroke-miterlimit:4;stroke-dasharray:none;stroke-opacity:1"
       id="path3360"
       transform="matrix(0.8976695,1.2792225e-2,-1.2792225e-2,0.8976695,120.65641,67.141664)"
       d="M 172.93608,447.08593 L 148.92893,430.27745 L 125.28333,447.59085 L 133.85052,419.56458 L 110.07761,402.42641 L 139.37957,401.9137 L 148.33271,374.00833 L 157.87513,401.71772 L 187.18139,401.60943 L 163.77696,419.24749 L 172.93608,447.08593 z" />
    <path
       style="opacity:1;fill:url(#linearGradient3366);fill-opacity:1;stroke:#0d0046;stroke-width:0;stroke-linecap:butt;stroke-linejoin:miter;stroke-miterlimit:4;stroke-dasharray:none;stroke-opacity:1"
       id="path3362"
       transform="matrix(0.8976695,1.2792225e-2,-1.2792225e-2,0.8976695,120.65641,67.141664)"
       d="M 172.93608,447.08593 L 148.92893,430.27745 L 125.28333,447.59085 L 133.85052,419.56458 L 110.07761,402.42641 L 139.37957,401.9137 L 148.33271,374.00833 L 157.87513,401.71772 L 187.18139,401.60943 L 163.77696,419.24749 L 172.93608,447.08593 z" />
  </g>
  <path
     style="fill:#eee097;fill-opacity:1;stroke:#0d0046;stroke-width:0;stroke-linecap:butt;stroke-linejoin:miter;stroke-miterlimit:4;stroke-dasharray:none;stroke-opacity:1"
     id="path3386"
     d="M 190.43998,203.00036 L 186.07448,199.97225 L 181.68608,202.96961 L 183.33301,198.04285 L 179.0114,194.95712 L 184.39475,194.94032 L 186.11226,190.03588 L 187.79242,194.95225 L 193.17551,195.00687 L 188.83055,198.06216 L 190.43998,203.00036 z" />
  <path
     style="fill:#be9613;fill-opacity:1;stroke:#0d0046;stroke-width:0;stroke-linecap:butt;stroke-linejoin:miter;stroke-miterlimit:4;stroke-dasharray:none;stroke-opacity:1"
     id="path3388"
     d="M 189.63784,203.00036 L 185.15961,199.97225 L 180.65789,202.96961 L 182.34735,198.04285 L 177.91414,194.95712 L 183.43651,194.94032 L 185.19836,190.03588 L 186.92191,194.95225 L 192.444,195.00687 L 187.98685,198.06216 L 189.63784,203.00036 z" />
  <path
     style="fill:#d9b214;fill-opacity:1;stroke:#0d0046;stroke-width:0;stroke-linecap:butt;stroke-linejoin:miter;stroke-miterlimit:4;stroke-dasharray:none;stroke-opacity:1"
     id="path3390"
     d="M 189.81445,203.00036 L 185.61804,199.97225 L 181.39961,202.96961 L 182.98275,198.04285 L 178.82852,194.95712 L 184.00337,194.94032 L 185.65434,190.03588 L 187.26944,194.95225 L 192.44402,195.00687 L 188.26736,198.06216 L 189.81445,203.00036 z" />
  <path
     style="fill:url(#linearGradient4135);fill-opacity:1;stroke:#0d0046;stroke-width:0;stroke-linecap:butt;stroke-linejoin:miter;stroke-miterlimit:4;stroke-dasharray:none;stroke-opacity:1"
     id="path3392"
     d="M 189.81445,203.00036 L 185.61804,199.97225 L 181.39961,202.96961 L 182.98275,198.04285 L 178.82852,194.95712 L 184.00337,194.94032 L 185.65434,190.03588 L 187.26944,194.95225 L 192.44402,195.00687 L 188.26736,198.06216 L 189.81445,203.00036 z" />
  <path
     style="fill:url(#linearGradient4132);fill-opacity:1;stroke:#0d0046;stroke-width:0;stroke-linecap:butt;stroke-linejoin:miter;stroke-miterlimit:4;stroke-dasharray:none;stroke-opacity:1"
     id="path3394"
     d="M 189.81445,203.00036 L 185.61804,199.97225 L 181.39961,202.96961 L 182.98275,198.04285 L 178.82852,194.95712 L 184.00337,194.94032 L 185.65434,190.03588 L 187.26944,194.95225 L 192.44402,195.00687 L 188.26736,198.06216 L 189.81445,203.00036 z" />
  <path
     style="fill:url(#linearGradient4129);fill-opacity:1;stroke:#0d0046;stroke-width:0;stroke-linecap:butt;stroke-linejoin:miter;stroke-miterlimit:4;stroke-dasharray:none;stroke-opacity:1"
     id="path3405"
     d="M 189.81445,203.00036 L 185.61804,199.97225 L 181.39961,202.96961 L 182.98275,198.04285 L 178.82852,194.95712 L 184.00337,194.94032 L 185.65434,190.03588 L 187.26944,194.95225 L 192.44402,195.00687 L 188.26736,198.06216 L 189.81445,203.00036 z" />
  <path
     style="fill:#eee097;fill-opacity:1;stroke:#0d0046;stroke-width:0;stroke-linecap:butt;stroke-linejoin:miter;stroke-miterlimit:4;stroke-dasharray:none;stroke-opacity:1"
     id="path3415"
     d="M 154.29855,229.94792 L 149.93305,226.91981 L 145.54465,229.91717 L 147.19158,224.99041 L 142.86997,221.90468 L 148.25332,221.88788 L 149.97083,216.98344 L 151.65099,221.89981 L 157.03408,221.95443 L 152.68912,225.00972 L 154.29855,229.94792 z" />
  <path
     style="fill:#be9613;fill-opacity:1;stroke:#0d0046;stroke-width:0;stroke-linecap:butt;stroke-linejoin:miter;stroke-miterlimit:4;stroke-dasharray:none;stroke-opacity:1"
     id="path3417"
     d="M 153.49642,229.94792 L 149.01819,226.91981 L 144.51647,229.91717 L 146.20593,224.99041 L 141.77272,221.90468 L 147.29509,221.88788 L 149.05694,216.98344 L 150.78049,221.89981 L 156.30258,221.95443 L 151.84543,225.00972 L 153.49642,229.94792 z" />
  <path
     style="fill:#d9b214;fill-opacity:1;stroke:#0d0046;stroke-width:0;stroke-linecap:butt;stroke-linejoin:miter;stroke-miterlimit:4;stroke-dasharray:none;stroke-opacity:1"
     id="path3419"
     d="M 153.67303,229.94792 L 149.47662,226.91981 L 145.25819,229.91717 L 146.84133,224.99041 L 142.6871,221.90468 L 147.86195,221.88788 L 149.51292,216.98344 L 151.12802,221.89981 L 156.3026,221.95443 L 152.12594,225.00972 L 153.67303,229.94792 z" />
  <path
     style="fill:url(#linearGradient4123);fill-opacity:1;stroke:#0d0046;stroke-width:0;stroke-linecap:butt;stroke-linejoin:miter;stroke-miterlimit:4;stroke-dasharray:none;stroke-opacity:1"
     id="path3421"
     d="M 153.67303,229.94792 L 149.47662,226.91981 L 145.25819,229.91717 L 146.84133,224.99041 L 142.6871,221.90468 L 147.86195,221.88788 L 149.51292,216.98344 L 151.12802,221.89981 L 156.3026,221.95443 L 152.12594,225.00972 L 153.67303,229.94792 z" />
  <path
     style="fill:url(#linearGradient4120);fill-opacity:1;stroke:#0d0046;stroke-width:0;stroke-linecap:butt;stroke-linejoin:miter;stroke-miterlimit:4;stroke-dasharray:none;stroke-opacity:1"
     id="path3423"
     d="M 153.67303,229.94792 L 149.47662,226.91981 L 145.25819,229.91717 L 146.84133,224.99041 L 142.6871,221.90468 L 147.86195,221.88788 L 149.51292,216.98344 L 151.12802,221.89981 L 156.3026,221.95443 L 152.12594,225.00972 L 153.67303,229.94792 z" />
  <path
     style="fill:url(#linearGradient4117);fill-opacity:1;stroke:#0d0046;stroke-width:0;stroke-linecap:butt;stroke-linejoin:miter;stroke-miterlimit:4;stroke-dasharray:none;stroke-opacity:1"
     id="path3425"
     d="M 153.67303,229.94792 L 149.47662,226.91981 L 145.25819,229.91717 L 146.84133,224.99041 L 142.6871,221.90468 L 147.86195,221.88788 L 149.51292,216.98344 L 151.12802,221.89981 L 156.3026,221.95443 L 152.12594,225.00972 L 153.67303,229.94792 z" />
  <path
     style="fill:#eee097;fill-opacity:1;stroke:#0d0046;stroke-width:0;stroke-linecap:butt;stroke-linejoin:miter;stroke-miterlimit:4;stroke-dasharray:none;stroke-opacity:1"
     id="path3433"
     d="M 108.3292,229.94792 L 103.9637,226.91981 L 99.5753,229.91717 L 101.22223,224.99041 L 96.900617,221.90468 L 102.28397,221.88788 L 104.00148,216.98344 L 105.68164,221.89981 L 111.06473,221.95443 L 106.71977,225.00972 L 108.3292,229.94792 z" />
  <path
     style="fill:#be9613;fill-opacity:1;stroke:#0d0046;stroke-width:0;stroke-linecap:butt;stroke-linejoin:miter;stroke-miterlimit:4;stroke-dasharray:none;stroke-opacity:1"
     id="path3435"
     d="M 107.52707,229.94792 L 103.04884,226.91981 L 98.547123,229.91717 L 100.23658,224.99041 L 95.803374,221.90468 L 101.32574,221.88788 L 103.08759,216.98344 L 104.81114,221.89981 L 110.33323,221.95443 L 105.87608,225.00972 L 107.52707,229.94792 z" />
  <path
     style="fill:#d9b214;fill-opacity:1;stroke:#0d0046;stroke-width:0;stroke-linecap:butt;stroke-linejoin:miter;stroke-miterlimit:4;stroke-dasharray:none;stroke-opacity:1"
     id="path3437"
     d="M 107.70368,229.94792 L 103.50727,226.91981 L 99.288837,229.91717 L 100.87198,224.99041 L 96.717752,221.90468 L 101.8926,221.88788 L 103.54357,216.98344 L 105.15867,221.89981 L 110.33325,221.95443 L 106.15659,225.00972 L 107.70368,229.94792 z" />
  <path
     style="fill:url(#linearGradient4111);fill-opacity:1;stroke:#0d0046;stroke-width:0;stroke-linecap:butt;stroke-linejoin:miter;stroke-miterlimit:4;stroke-dasharray:none;stroke-opacity:1"
     id="path3439"
     d="M 107.70368,229.94792 L 103.50727,226.91981 L 99.288837,229.91717 L 100.87198,224.99041 L 96.717752,221.90468 L 101.8926,221.88788 L 103.54357,216.98344 L 105.15867,221.89981 L 110.33325,221.95443 L 106.15659,225.00972 L 107.70368,229.94792 z" />
  <path
     style="fill:url(#linearGradient4108);fill-opacity:1;stroke:#0d0046;stroke-width:0;stroke-linecap:butt;stroke-linejoin:miter;stroke-miterlimit:4;stroke-dasharray:none;stroke-opacity:1"
     id="path3441"
     d="M 107.70368,229.94792 L 103.50727,226.91981 L 99.288837,229.91717 L 100.87198,224.99041 L 96.717752,221.90468 L 101.8926,221.88788 L 103.54357,216.98344 L 105.15867,221.89981 L 110.33325,221.95443 L 106.15659,225.00972 L 107.70368,229.94792 z" />
  <path
     style="fill:url(#linearGradient4105);fill-opacity:1;stroke:#0d0046;stroke-width:0;stroke-linecap:butt;stroke-linejoin:miter;stroke-miterlimit:4;stroke-dasharray:none;stroke-opacity:1"
     id="path3443"
     d="M 107.70368,229.94792 L 103.50727,226.91981 L 99.288837,229.91717 L 100.87198,224.99041 L 96.717752,221.90468 L 101.8926,221.88788 L 103.54357,216.98344 L 105.15867,221.89981 L 110.33325,221.95443 L 106.15659,225.00972 L 107.70368,229.94792 z" />
  <path
     style="fill:#eee097;fill-opacity:1;stroke:#0d0046;stroke-width:0;stroke-linecap:butt;stroke-linejoin:miter;stroke-miterlimit:4;stroke-dasharray:none;stroke-opacity:1"
     id="path3457"
     d="M 70.285603,203.00036 L 65.920104,199.97225 L 61.5317,202.96961 L 63.178629,198.04285 L 58.857017,194.95712 L 64.240373,194.94032 L 65.957875,190.03588 L 67.638044,194.95225 L 73.021131,195.00687 L 68.676174,198.06216 L 70.285603,203.00036 z" />
  <path
     style="fill:#be9613;fill-opacity:1;stroke:#0d0046;stroke-width:0;stroke-linecap:butt;stroke-linejoin:miter;stroke-miterlimit:4;stroke-dasharray:none;stroke-opacity:1"
     id="path3459"
     d="M 69.483477,203.00036 L 65.005253,199.97225 L 60.503533,202.96961 L 62.192988,198.04285 L 57.759784,194.95712 L 63.282149,194.94032 L 65.043999,190.03588 L 66.767553,194.95225 L 72.289641,195.00687 L 67.83249,198.06216 L 69.483477,203.00036 z" />
  <path
     style="fill:#d9b214;fill-opacity:1;stroke:#0d0046;stroke-width:0;stroke-linecap:butt;stroke-linejoin:miter;stroke-miterlimit:4;stroke-dasharray:none;stroke-opacity:1"
     id="path3461"
     d="M 69.660077,203.00036 L 65.463666,199.97225 L 61.245237,202.96961 L 62.828376,198.04285 L 58.674152,194.95712 L 63.848996,194.94032 L 65.499974,190.03588 L 67.115065,194.95225 L 72.289651,195.00687 L 68.112986,198.06216 L 69.660077,203.00036 z" />
  <path
     style="fill:url(#linearGradient4099);fill-opacity:1;stroke:#0d0046;stroke-width:0;stroke-linecap:butt;stroke-linejoin:miter;stroke-miterlimit:4;stroke-dasharray:none;stroke-opacity:1"
     id="path3463"
     d="M 69.660077,203.00036 L 65.463666,199.97225 L 61.245237,202.96961 L 62.828376,198.04285 L 58.674152,194.95712 L 63.848996,194.94032 L 65.499974,190.03588 L 67.115065,194.95225 L 72.289651,195.00687 L 68.112986,198.06216 L 69.660077,203.00036 z" />
  <path
     style="fill:url(#linearGradient4096);fill-opacity:1;stroke:#0d0046;stroke-width:0;stroke-linecap:butt;stroke-linejoin:miter;stroke-miterlimit:4;stroke-dasharray:none;stroke-opacity:1"
     id="path3465"
     d="M 69.660077,203.00036 L 65.463666,199.97225 L 61.245237,202.96961 L 62.828376,198.04285 L 58.674152,194.95712 L 63.848996,194.94032 L 65.499974,190.03588 L 67.115065,194.95225 L 72.289651,195.00687 L 68.112986,198.06216 L 69.660077,203.00036 z" />
  <path
     style="fill:url(#linearGradient4093);fill-opacity:1;stroke:#0d0046;stroke-width:0;stroke-linecap:butt;stroke-linejoin:miter;stroke-miterlimit:4;stroke-dasharray:none;stroke-opacity:1"
     id="path3467"
     d="M 69.660077,203.00036 L 65.463666,199.97225 L 61.245237,202.96961 L 62.828376,198.04285 L 58.674152,194.95712 L 63.848996,194.94032 L 65.499974,190.03588 L 67.115065,194.95225 L 72.289651,195.00687 L 68.112986,198.06216 L 69.660077,203.00036 z" />
  <path
     style="font-size:118.76532745px;font-style:normal;font-weight:normal;text-align:start;line-height:125%;text-anchor:start;fill:#0d0046;fill-opacity:1;stroke:#0d0046;stroke-width:0.62547982;stroke-linecap:butt;stroke-linejoin:miter;stroke-miterlimit:4;stroke-opacity:1;font-family:Bitstream Vera Sans"
     id="text3475"
     d="M 83.772104,190.84028 L 82.003524,190.84028 L 82.153407,190.23432 L 91.490869,190.23432 C 94.358548,190.23434 96.331953,190.63832 97.411094,191.44623 C 98.490207,192.2542 99.029773,193.64501 99.029792,195.61868 C 99.029773,197.00374 98.700038,198.29933 98.040586,199.50546 C 97.381107,200.71161 96.506809,201.62632 95.417703,202.24957 C 94.84815,202.57276 94.123736,202.80071 93.24446,202.93343 C 92.365157,203.06618 90.97128,203.13255 89.062828,203.13254 L 86.934553,203.13254 L 84.611427,213.31261 L 86.32005,213.31261 L 86.200145,213.88394 L 76.652843,213.88394 L 76.817715,213.31261 L 78.556308,213.31261 L 83.772104,190.84028 z M 87.069437,202.56121 C 87.339215,202.59585 87.54405,202.61894 87.683949,202.63046 C 87.823821,202.64201 87.943725,202.64778 88.043653,202.64777 C 88.922938,202.64778 89.657345,202.49197 90.246875,202.18032 C 90.836386,201.8687 91.281029,201.39548 91.580805,200.76066 C 92.080381,199.76805 92.495045,198.59077 92.824799,197.22879 C 93.154516,195.86685 93.319379,194.66071 93.319397,193.61036 C 93.319379,192.61778 93.097062,191.90217 92.652437,191.46355 C 92.207784,191.02498 91.49086,190.80568 90.501673,190.80565 C 90.301817,190.80568 90.14944,190.80856 90.044543,190.81431 C 89.93961,190.8201 89.84719,190.82876 89.767266,190.84028 L 87.069437,202.56121 z M 94.518433,213.88394 L 94.653318,213.31261 C 95.542604,213.2549 96.336968,212.90576 97.036401,212.26517 C 97.735833,211.62459 98.525201,210.47327 99.404485,208.81122 L 109.1916,190.23432 L 111.27491,190.23432 L 113.37322,213.31261 L 115.14179,213.31261 L 115.14179,213.88394 L 105.75936,213.88394 L 105.90924,213.31261 L 107.60288,213.31261 L 107.13825,207.18379 L 100.81335,207.18379 L 99.839136,209.10554 C 99.679269,209.41718 99.546869,209.76921 99.441963,210.16164 C 99.337048,210.55407 99.28459,210.88302 99.28459,211.14847 C 99.28459,211.841 99.469439,212.36617 99.839136,212.72396 C 100.20884,213.08177 100.76838,213.28375 101.51778,213.32992 L 101.39789,213.88394 L 94.518433,213.88394 z M 106.28394,196.76134 L 101.1281,206.57783 L 107.0783,206.57783 L 106.28394,196.76134 z M 127.17708,190.80565 L 124.74904,201.33198 L 125.15371,201.33198 C 125.92309,201.33199 126.57506,201.21946 127.10964,200.99438 C 127.6442,200.76932 128.11631,200.40864 128.52599,199.91232 C 129.02558,199.31214 129.46272,198.38589 129.83743,197.13357 C 130.21212,195.88128 130.39947,194.67802 130.39948,193.5238 C 130.39947,192.56583 130.14967,191.87332 129.65009,191.44623 C 129.15048,191.0192 128.32615,190.80568 127.17708,190.80565 L 127.17708,190.80565 z M 114.03269,213.88394 L 114.19755,213.31261 L 115.93615,213.31261 L 121.15194,190.80565 L 119.41335,190.80565 L 119.53325,190.23432 L 129.99481,190.23432 C 132.17304,190.23434 133.73677,190.621 134.68603,191.3943 C 135.63524,192.16763 136.10985,193.42572 136.10987,195.16854 C 136.10985,197.04991 135.46788,198.53594 134.18393,199.62665 C 132.89994,200.71738 131.02396,201.36662 128.55597,201.57436 C 130.17465,201.7706 131.38367,202.23805 132.18305,202.97673 C 132.98238,203.71542 133.38206,204.72535 133.38207,206.00651 C 133.38206,206.7452 133.2122,207.71473 132.87249,208.9151 C 132.53274,210.11547 132.36288,210.93495 132.3629,211.37355 C 132.36288,211.70827 132.43282,211.96797 132.57273,212.15263 C 132.7126,212.33731 132.90744,212.42964 133.15725,212.42964 C 133.35707,212.42964 133.61187,212.33154 133.92164,212.13532 C 134.23137,211.93911 134.58109,211.64479 134.97079,211.25236 L 135.24058,211.75443 C 134.41122,212.66625 133.5844,213.34435 132.76008,213.78871 C 131.93573,214.23309 131.0989,214.45527 130.2496,214.45527 C 129.1205,214.45527 128.22872,214.14364 127.57426,213.52037 C 126.91978,212.89709 126.59254,212.04876 126.59256,210.97535 C 126.59254,210.13278 126.80237,208.93241 127.22205,207.37423 C 127.64169,205.81607 127.85152,204.72535 127.85154,204.10207 C 127.85152,203.29414 127.65419,202.72569 127.25952,202.39674 C 126.86482,202.0678 126.17288,201.90332 125.18369,201.90331 L 124.59916,201.90331 L 121.99126,213.31261 L 123.69989,213.31261 L 123.57998,213.88394 L 114.03269,213.88394 z M 138.20818,213.88394 L 138.35806,213.31261 L 140.11164,213.31261 L 145.32744,190.84028 C 143.84862,191.03652 142.53469,191.6973 141.38562,192.82262 C 140.23654,193.94799 139.3023,195.49751 138.58288,197.47118 L 138.05831,197.47118 L 139.78191,190.23432 L 157.42268,190.23432 L 155.71406,197.47118 L 155.24944,197.45386 C 155.27939,197.23458 155.30188,197.00374 155.31688,196.76134 C 155.33184,196.51897 155.33934,196.28236 155.33936,196.0515 C 155.33934,194.53952 154.99962,193.34203 154.32019,192.45904 C 153.64071,191.57611 152.65152,191.03652 151.35258,190.84028 L 146.16676,213.31261 L 147.87539,213.31261 L 147.75548,213.88394 L 138.20818,213.88394 z M 157.55757,190.84028 L 155.93888,190.84028 L 156.05878,190.23432 L 165.30633,190.23432 L 165.14145,190.84028 L 163.52277,190.84028 L 165.51616,203.21911 L 169.56289,196.36314 C 170.01251,195.58984 170.33475,194.94061 170.52961,194.41542 C 170.72443,193.89029 170.82186,193.41994 170.82187,193.0044 C 170.82186,192.38117 170.65949,191.88774 170.33476,191.52414 C 170.01001,191.16059 169.53789,190.93264 168.9184,190.84028 L 169.03831,190.23432 L 175.76788,190.23432 L 175.618,190.84028 C 174.81863,190.8403 174.03926,191.20099 173.27989,191.92235 C 172.52048,192.64374 171.52629,194.04321 170.29729,196.12076 L 165.84588,203.70387 L 163.61269,213.31261 L 165.60608,213.31261 L 165.39625,213.88394 L 155.68409,213.88394 L 155.84895,213.31261 L 157.66249,213.31261 L 159.68586,204.20594 L 157.55757,190.84028 z" />
  <text
     sodipodi:linespacing="125%"
     style="font-size:169.55332947px;font-style:normal;font-weight:normal;text-align:start;line-height:125%;text-anchor:start;fill:#0d0046;fill-opacity:1;stroke:none;stroke-width:1px;stroke-linecap:butt;stroke-linejoin:miter;stroke-opacity:1;font-family:Bitstream Vera Sans"
     xml:space="preserve"
     id="text3518"
     transform="scale(1.1486603,0.8705794)"
     y="261.92999"
     x="96.468697"><tspan
       style="font-size:11.77453709px;font-style:normal;font-variant:normal;font-weight:bold;font-stretch:normal;text-align:start;line-height:125%;writing-mode:lr-tb;text-anchor:start;fill:#0d0046;fill-opacity:1;font-family:Arial;-inkscape-font-specification:Arial Bold"
       id="tspan3520"
       y="261.92999"
       x="96.468697">1971</tspan></text>
  <path
     style="fill:#0d0046;fill-rule:evenodd;stroke:#000000;stroke-width:0;stroke-linecap:butt;stroke-linejoin:miter;stroke-opacity:1;fill-opacity:1;stroke-miterlimit:4;stroke-dasharray:none"
     d="M 106.09157,42.43113 C 107.61585,44.42712 108.46473,46.558193 108.89212,48.773561 C 109.08254,46.71433 108.97108,44.6551 108.06843,42.595869 L 106.09157,42.43113 z"
     id="path4227"
     sodipodi:nodetypes="cccc" />
  <path
     style="fill:#0d0046;fill-rule:evenodd;stroke:#000000;stroke-width:0;stroke-linecap:butt;stroke-linejoin:miter;stroke-opacity:1;stroke-miterlimit:4;stroke-dasharray:none;fill-opacity:1"
     d="M 105.72865,76.116002 C 106.78162,75.757639 107.70889,75.198159 109.40223,75.864387 C 108.1777,75.742589 106.95318,75.706869 105.72865,76.116002 z"
     id="path4738"
     sodipodi:nodetypes="ccc" />
</svg>
