<?xml version="1.0" encoding="UTF-8" standalone="no"?>
<!-- Created with Inkscape (http://www.inkscape.org/) -->
<svg xmlns:rdf="http://www.w3.org/1999/02/22-rdf-syntax-ns#" xmlns="http://www.w3.org/2000/svg" height="127" width="198" version="1.1" xmlns:cc="http://creativecommons.org/ns#" xmlns:dc="http://purl.org/dc/elements/1.1/">
<g transform="translate(-189.475,-423.194)" fill-rule="nonzero">
<rect style="color:#000000;" height="127" width="198" y="423.19" x="189.47" fill="#b30000"/>
<g transform="translate(-1.2314532,3.8314905)" fill="#FFF">
<path style="color:#000000;" d="m256.33,464.17c0-29.009-46.239-28.985-46.239,0v37.741c0,28.996,46.53,29.023,46.53,0v-15.89c0-0.99552-0.22091-1.286-1.2301-1.286h-21.155c-1.0037,0-1.3698,0.36522-1.3698,1.3698v10.942c0,0.99723,1.0534,2.0548,2.0548,2.0548h4.9936c0.99765,0,1.4328,0.43534,1.4328,1.4328v1.5446c0,9.1112-16.671,9.0766-16.671,0v-37.051c0-9.8887,17.272-9.7286,17.272,0.16422v7.0261c0,1.5027,1.5495,3.0146,3.0564,3.0146h8.2945c1.5072,0,3.0317-1.6707,3.0317-3.1788v-7.8836z"/>
<path style="color:#000000;" d="m288.51,441.97c-8.8507,0.47206-17.406,5.2365-20.531,14.312h8.8125c8.0602,0,21.594,5.3378,21.594,12.438v10h-31.312v2.0625h31.312v10.812c0,12.383,4.125,13.53,4.125,9.2812v-3.375c0-0.54296,0.19793-0.90625,0.90625-0.90625h3.3438c0.56674,0,0.75,0.0711,0.75,0.71875v4.0312c0,5.1841-5.1488,7.3125-6.2188,7.3125h-1.5625c-7.8853-2.1129-8.2855-15.281-10-15.281v13.469c0,0.35184-0.0583,0.40625-0.625,0.40625h-11.094c-0.41059,0-0.625-0.0508-0.625-0.59375v-9.7188h-10.656v4.625c0,29.568,46.5,29.583,46.5,0v-37.469c0-14.167-10.692-21.533-21.812-22.125h-2.9062zm-18.219,21.375,1.3438,4.125-3.5312,2.5312,4.3438,0,1.3438,4.125,1.3438-4.125,4.3125,0-3.4688-2.5312,1.3125-4.125-3.5,2.5312-3.5-2.5312zm15.125,0,1.3125,4.125-3.5,2.5312,4.3438,0,1.3125,4.125,1.375-4.125,4.3125,0-3.4688-2.5312,1.3125-4.125-3.5312,2.5312-3.4688-2.5312z"/>
<path style="color:#000000;" d="m326.95,443.16c-2.4049,0-3.1875,0.7899-3.1875,3.1875v71.17c0,3.7025,1.7091,5.0924,3.7586,5.0924h5.5956c2.043,0,4.6771-1.3846,4.6771-5.0924l-0.00003-24.326c0-2.4011,0.57189-2.9375,2.9688-2.9375h5.0312c31.37,0,31.376-47.094,0-47.094h-18.844zm12.906,14.375,4.125,0c13.55,0,14.574,18.188-0.15625,18.188h-3.6562c-1.5996,0-2.3125-0.36911-2.3125-1.9688v-14.188c0-1.598,0.3976-2.0312,2-2.0312z"/>
</g>
</g>
<metadata>
<rdf:RDF>
<cc:Work rdf:about="">
<dc:title/>
</cc:Work>
</rdf:RDF>
</metadata>
</svg>
