<?xml version="1.0" encoding="UTF-8" ?>
<!DOCTYPE svg PUBLIC "-//W3C//DTD SVG 1.1//EN" "http://www.w3.org/Graphics/SVG/1.1/DTD/svg11.dtd">
<svg width="304pt" height="304pt" viewBox="0 0 304 304" version="1.1" xmlns="http://www.w3.org/2000/svg">
<g id="#0000ffff">
<path fill="#0000ff" opacity="1.00" d=" M 76.37 1.61 C 85.10 5.88 93.22 14.35 92.11 24.77 C 101.76 21.56 111.88 19.87 122.03 19.40 C 129.36 19.52 137.21 20.51 142.93 25.54 C 142.49 15.75 149.20 7.19 157.58 2.83 C 162.07 7.79 164.42 14.35 164.83 20.97 C 164.57 27.13 162.68 33.14 159.52 38.43 C 158.03 40.49 159.45 42.96 159.87 45.14 C 160.69 50.04 164.22 53.86 165.33 58.68 C 168.02 66.87 167.04 76.15 162.40 83.45 C 163.12 85.60 163.70 87.93 165.42 89.54 C 178.34 102.75 190.27 116.96 200.74 132.21 C 207.92 142.95 214.49 154.30 218.21 166.74 C 173.95 166.83 129.70 166.91 85.44 166.99 C 72.78 153.48 64.45 134.81 66.85 116.06 C 67.15 110.51 69.05 105.25 70.85 100.06 C 71.11 94.92 71.13 89.76 71.78 84.64 C 64.51 74.18 68.75 60.44 74.81 50.48 C 75.79 45.73 76.89 40.62 75.25 35.89 C 73.73 32.39 71.53 29.17 70.51 25.45 C 68.37 17.04 71.32 8.38 76.37 1.61 M 108.78 148.83 C 109.03 150.46 109.32 152.10 109.76 153.70 C 108.50 155.06 107.22 156.40 105.96 157.75 C 107.57 157.85 109.18 157.95 110.80 158.01 C 111.76 159.58 112.65 161.18 113.52 162.80 C 114.13 161.28 114.57 159.64 115.58 158.32 C 117.04 157.79 118.69 157.95 120.23 157.71 C 119.35 156.25 118.17 155.01 116.88 153.91 C 117.12 152.15 117.55 150.42 118.12 148.74 C 116.46 149.61 114.88 150.94 112.94 151.03 C 111.44 150.52 110.14 149.60 108.78 148.83 M 132.77 148.84 C 133.04 150.49 133.31 152.14 133.63 153.78 C 132.40 155.10 131.16 156.43 129.94 157.77 C 131.55 157.86 133.17 157.95 134.78 158.01 C 135.72 159.58 136.60 161.19 137.45 162.81 C 138.08 161.24 138.76 159.69 139.44 158.15 C 141.05 158.01 142.65 157.87 144.26 157.70 C 143.29 156.32 142.14 155.09 140.88 153.97 C 141.09 152.19 141.49 150.46 142.05 148.76 C 140.42 149.58 138.92 150.85 137.05 151.07 C 135.50 150.59 134.16 149.64 132.77 148.84 M 156.76 148.87 C 157.01 150.52 157.27 152.18 157.56 153.82 C 156.34 155.14 155.12 156.45 153.93 157.78 C 155.53 157.87 157.15 157.95 158.76 158.01 C 159.67 159.57 160.53 161.16 161.37 162.76 C 162.04 161.19 162.76 159.64 163.49 158.10 C 165.16 157.97 166.83 157.81 168.50 157.61 C 167.31 156.38 166.08 155.18 164.82 154.03 C 165.09 152.31 165.43 150.60 165.83 148.91 C 164.25 149.68 162.78 150.83 161.00 151.07 C 159.47 150.57 158.14 149.66 156.76 148.87 M 180.80 148.94 C 181.00 150.58 181.21 152.23 181.44 153.87 C 180.27 155.17 179.09 156.47 177.94 157.79 C 179.54 157.88 181.14 157.96 182.74 158.03 C 183.60 159.57 184.45 161.13 185.34 162.67 C 186.03 161.13 186.75 159.62 187.45 158.09 C 189.11 157.96 190.78 157.81 192.44 157.63 C 191.27 156.42 190.07 155.25 188.84 154.10 C 189.07 152.37 189.34 150.65 189.66 148.93 C 188.14 149.68 186.76 150.84 185.04 151.06 C 183.50 150.63 182.17 149.70 180.80 148.94 Z" />
</g>
<g id="#ffffffff">
<path fill="#ffffff" opacity="1.00" d=" M 108.78 148.83 C 110.14 149.60 111.44 150.52 112.94 151.03 C 114.88 150.94 116.46 149.61 118.12 148.74 C 117.55 150.42 117.12 152.15 116.88 153.91 C 118.17 155.01 119.35 156.25 120.23 157.71 C 118.69 157.95 117.04 157.79 115.58 158.32 C 114.57 159.64 114.13 161.28 113.52 162.80 C 112.65 161.18 111.76 159.58 110.80 158.01 C 109.18 157.95 107.57 157.85 105.96 157.75 C 107.22 156.40 108.50 155.06 109.76 153.70 C 109.32 152.10 109.03 150.46 108.78 148.83 Z" />
<path fill="#ffffff" opacity="1.00" d=" M 132.77 148.84 C 134.16 149.64 135.50 150.59 137.05 151.07 C 138.92 150.85 140.42 149.58 142.05 148.76 C 141.49 150.46 141.09 152.19 140.88 153.97 C 142.14 155.09 143.29 156.32 144.26 157.70 C 142.65 157.87 141.05 158.01 139.44 158.15 C 138.76 159.69 138.08 161.24 137.45 162.81 C 136.60 161.19 135.72 159.58 134.78 158.01 C 133.17 157.95 131.55 157.86 129.94 157.77 C 131.16 156.43 132.40 155.10 133.63 153.78 C 133.31 152.14 133.04 150.49 132.77 148.84 Z" />
<path fill="#ffffff" opacity="1.00" d=" M 156.76 148.87 C 158.14 149.66 159.47 150.57 161.00 151.07 C 162.78 150.83 164.25 149.68 165.83 148.91 C 165.43 150.60 165.09 152.31 164.82 154.03 C 166.08 155.18 167.31 156.38 168.50 157.61 C 166.83 157.81 165.16 157.97 163.49 158.10 C 162.76 159.64 162.04 161.19 161.37 162.76 C 160.53 161.16 159.67 159.57 158.76 158.01 C 157.15 157.95 155.53 157.87 153.93 157.78 C 155.12 156.45 156.34 155.14 157.56 153.82 C 157.27 152.18 157.01 150.52 156.76 148.87 Z" />
<path fill="#ffffff" opacity="1.00" d=" M 180.80 148.94 C 182.17 149.70 183.50 150.63 185.04 151.06 C 186.76 150.84 188.14 149.68 189.66 148.93 C 189.34 150.65 189.07 152.37 188.84 154.10 C 190.07 155.25 191.27 156.42 192.44 157.63 C 190.78 157.81 189.11 157.96 187.45 158.09 C 186.75 159.62 186.03 161.13 185.34 162.67 C 184.45 161.13 183.60 159.57 182.74 158.03 C 181.14 157.96 179.54 157.88 177.94 157.79 C 179.09 156.47 180.27 155.17 181.44 153.87 C 181.21 152.23 181.00 150.58 180.80 148.94 Z" />
</g>
<g id="#ff0000ff">
<path fill="#ff0000" opacity="1.00" d=" M 84.93 174.81 C 129.28 174.90 173.64 175.06 217.99 174.98 C 224.84 196.50 230.42 218.51 233.73 240.87 C 234.22 247.61 235.26 254.43 234.07 261.16 C 246.38 261.18 258.69 261.14 271.00 261.18 C 269.79 270.08 270.07 279.07 269.11 288.00 C 257.15 287.85 245.20 288.63 233.24 288.78 C 232.89 293.38 233.05 298.01 232.67 302.61 C 223.70 304.13 214.73 300.58 207.40 295.63 C 199.43 290.09 192.55 283.08 186.74 275.33 C 185.99 274.47 185.30 273.21 184.00 273.21 C 172.28 272.61 160.65 270.91 149.05 269.20 C 136.87 267.41 125.04 263.92 112.92 261.81 C 87.77 257.31 62.23 254.86 36.67 255.06 C 36.66 246.67 36.67 238.28 36.66 229.89 C 61.13 232.35 85.61 234.71 110.15 236.35 C 113.76 236.98 117.42 237.09 121.08 237.00 C 121.76 236.40 122.45 235.79 123.14 235.19 C 122.77 228.84 119.14 223.37 116.17 217.95 C 106.82 202.83 96.02 188.67 84.93 174.81 Z" />
</g>
</svg>
